<svg id="Слой_1" data-name="Слой 1" xmlns="http://www.w3.org/2000/svg" width="469.16" height="360.89" viewBox="0 0 469.16 360.89">
  <defs>
    <style>
      .cls-1 {
        fill: none;
      }

      .cls-2 {
        fill: #fff;
        stroke: #fff;
        stroke-miterlimit: 10;
      }
    </style>
  </defs>
  <ellipse class="cls-1" cx="234.58" cy="180.45" rx="331.75" ry="255.19"/>
  <path class="cls-2" d="M1056.1,449.59v187.8a5.18,5.18,0,0,0,5.17,5.17h45.43a9.12,9.12,0,0,1,9.12,9.12v16.58a9.12,9.12,0,0,1-9.12,9.12H1003.52a5.18,5.18,0,0,0-5.17,5.17v14.56a5.18,5.18,0,0,0,5.17,5.17h132a5.18,5.18,0,0,0,5.17-5.17V449.59a5.18,5.18,0,0,0-5.17-5.17H1121a5.18,5.18,0,0,0-5.17,5.17V608.53a9.12,9.12,0,0,1-9.12,9.12h-16.58a9.12,9.12,0,0,1-9.12-9.12V449.59a5.17,5.17,0,0,0-5.17-5.17h-14.56A5.17,5.17,0,0,0,1056.1,449.59Z" transform="translate(-689.61 -363.04)"/>
  <path class="cls-2" d="M707.66,697.11V389.87a5.17,5.17,0,0,1,5.17-5.17h14.56a5.18,5.18,0,0,1,5.17,5.17v133A4.94,4.94,0,0,0,741,526.3c44.76-45,92-92.08,136.75-137.12a15.2,15.2,0,0,1,10.78-4.48h247a5.17,5.17,0,0,1,5.17,5.17v14.56a5.18,5.18,0,0,1-5.17,5.17H1032.38a9.12,9.12,0,0,0-9.12,9.12V637.39a5.18,5.18,0,0,1-5.17,5.17h-14.57a5.18,5.18,0,0,1-5.17-5.17V418.72a9.12,9.12,0,0,0-9.12-9.12H902.94a19.12,19.12,0,0,0-13.58,5.65c-40,40.2-82.37,82.4-122.32,122.6a9.13,9.13,0,0,0,0,12.9c44.74,44.49,91.51,91,136.25,135.45A15.33,15.33,0,0,1,907.81,697v.07a5.16,5.16,0,0,1-5.16,5.17H888.08a15.32,15.32,0,0,1-10.82-4.46c-44.74-44.52-91.52-91-136.26-135.53a5,5,0,0,0-8.44,3.51V697.11a5.18,5.18,0,0,1-5.17,5.17H712.83A5.17,5.17,0,0,1,707.66,697.11Z" transform="translate(-689.61 -363.04)"/>
  <path class="cls-2" d="M960.35,444.42H924.12a15.27,15.27,0,0,0-10.8,4.48l-90.93,90.93a5.17,5.17,0,0,0,0,7.31l11.53,11.54a5.17,5.17,0,0,0,7.31,0l11.55-11.55a9.13,9.13,0,0,1,12.9,0l69.3,69.3a19.22,19.22,0,0,1,5.63,13.6v67.08a5.18,5.18,0,0,0,5.17,5.17h14.57a5.18,5.18,0,0,0,5.17-5.17V449.59A5.18,5.18,0,0,0,960.35,444.42Zm-21.72,128a3,3,0,0,1-5,2.1l-47.64-47.64a7.15,7.15,0,0,1,0-10.11l47.64-47.63a3,3,0,0,1,5,2.09Z" transform="translate(-689.61 -363.04)"/>
</svg>
