<svg id="Слой_1" data-name="Слой 1" xmlns="http://www.w3.org/2000/svg" width="469.16" height="360.89" viewBox="0 0 469.16 360.89">
  <defs>
    <style>
      .cls-1 {
        fill: none;
      }

      .cls-2 {
        fill: #fff;
        stroke: #fff;
        stroke-miterlimit: 10;
      }
    </style>
  </defs>
  <ellipse class="cls-1" cx="234.58" cy="180.45" rx="331.75" ry="255.19"/>
  <path class="cls-2" d="M1056.06,449.59V637.38a5.17,5.17,0,0,0,5.16,5.17h45.43a9.12,9.12,0,0,1,9.11,9.12v16.58a9.12,9.12,0,0,1-9.11,9.13H1003.5a5.17,5.17,0,0,0-5.17,5.17v14.56a5.18,5.18,0,0,0,5.17,5.17h132a5.18,5.18,0,0,0,5.17-5.17V449.59a5.17,5.17,0,0,0-5.17-5.16h-14.56a5.18,5.18,0,0,0-5.17,5.17V608.53a9.11,9.11,0,0,1-9.11,9.12h-16.58a9.12,9.12,0,0,1-9.12-9.12V449.6a5.17,5.17,0,0,0-5.17-5.17h-14.56A5.17,5.17,0,0,0,1056.06,449.59Z" transform="translate(-689.61 -363.04)"/>
  <path class="cls-2" d="M707.73,697.11V389.87a5.17,5.17,0,0,1,5.16-5.17h14.56a5.17,5.17,0,0,1,5.17,5.17v133A4.94,4.94,0,0,0,741,526.3c44.75-45,92-92.07,136.71-137.11a15.2,15.2,0,0,1,10.78-4.49h247a5.18,5.18,0,0,1,5.17,5.17v14.56a5.17,5.17,0,0,1-5.17,5.17H1032.35a9.12,9.12,0,0,0-9.12,9.12V637.38a5.18,5.18,0,0,1-5.17,5.17H1003.5a5.18,5.18,0,0,1-5.17-5.17V418.72a9.12,9.12,0,0,0-9.12-9.12H903a19.18,19.18,0,0,0-13.58,5.65c-39.94,40.2-82.34,82.4-122.28,122.6a9.13,9.13,0,0,0,0,12.9c44.73,44.49,91.48,91,136.21,135.44A15.39,15.39,0,0,1,907.82,697v.07a5.17,5.17,0,0,1-5.17,5.17H888.09a15.36,15.36,0,0,1-10.82-4.47c-44.72-44.51-91.48-91-136.21-135.52a5,5,0,0,0-8.44,3.51V697.11a5.18,5.18,0,0,1-5.17,5.17H712.89A5.17,5.17,0,0,1,707.73,697.11Z" transform="translate(-689.61 -363.04)"/>
  <path class="cls-2" d="M960.34,444.43H924.12a15.28,15.28,0,0,0-10.79,4.47l-90.91,90.93a5.18,5.18,0,0,0,0,7.31L834,558.68a5.17,5.17,0,0,0,7.31,0l11.54-11.55a9.13,9.13,0,0,1,12.9,0L935,616.43A19.24,19.24,0,0,1,940.61,630v67.09a5.17,5.17,0,0,0,5.17,5.17h14.56a5.17,5.17,0,0,0,5.16-5.17V449.6A5.17,5.17,0,0,0,960.34,444.43Zm-21.72,128a3,3,0,0,1-5,2.09L886,526.89a7.15,7.15,0,0,1,0-10.11q23.82-23.8,47.62-47.63a3,3,0,0,1,5,2.09Z" transform="translate(-689.61 -363.04)"/>
</svg>
