<svg id="Слой_1" data-name="Слой 1" xmlns="http://www.w3.org/2000/svg" width="469.16" height="360.89" viewBox="0 0 469.16 360.89">
  <defs>
    <style>
      .cls-1 {
        fill: none;
      }

      .cls-2 {
        fill: #fff;
        stroke: #fff;
        stroke-miterlimit: 10;
      }
    </style>
  </defs>
  <ellipse class="cls-1" cx="234.58" cy="180.45" rx="331.75" ry="255.19"/>
  <path class="cls-2" d="M1055.93,449.6V637.38a5.18,5.18,0,0,0,5.17,5.17h45.38a9.13,9.13,0,0,1,9.11,9.12v16.58a9.12,9.12,0,0,1-9.11,9.12H1003.43a5.18,5.18,0,0,0-5.17,5.17V697.1a5.18,5.18,0,0,0,5.17,5.17h131.86a5.18,5.18,0,0,0,5.17-5.17V449.6a5.18,5.18,0,0,0-5.17-5.17h-14.54a5.17,5.17,0,0,0-5.16,5.17V608.52a9.13,9.13,0,0,1-9.11,9.13h-16.57a9.12,9.12,0,0,1-9.1-9.13V449.6a5.18,5.18,0,0,0-5.17-5.17H1061.1A5.18,5.18,0,0,0,1055.93,449.6Z" transform="translate(-689.61 -363.04)"/>
  <path class="cls-2" d="M707.93,697.1V389.88a5.17,5.17,0,0,1,5.16-5.17h14.55a5.17,5.17,0,0,1,5.16,5.17V522.82a4.93,4.93,0,0,0,8.41,3.48c44.7-45,91.88-92.07,136.58-137.11a15.18,15.18,0,0,1,10.77-4.48h246.73a5.17,5.17,0,0,1,5.17,5.17v14.56a5.18,5.18,0,0,1-5.17,5.17h-103a9.11,9.11,0,0,0-9.11,9.12V637.38a5.17,5.17,0,0,1-5.16,5.17h-14.54a5.18,5.18,0,0,1-5.17-5.17V418.73a9.11,9.11,0,0,0-9.11-9.12H903a19.1,19.1,0,0,0-13.57,5.65c-39.9,40.2-82.26,82.39-122.16,122.59a9.13,9.13,0,0,0,0,12.9c44.68,44.48,91.39,91,136.08,135.44A15.37,15.37,0,0,1,907.84,697v.07a5.17,5.17,0,0,1-5.17,5.17H888.12a15.33,15.33,0,0,1-10.8-4.46L741.23,562.29a5,5,0,0,0-8.43,3.51V697.1a5.17,5.17,0,0,1-5.16,5.17H713.09A5.17,5.17,0,0,1,707.93,697.1Z" transform="translate(-689.61 -363.04)"/>
  <path class="cls-2" d="M960.3,444.43H924.12a15.22,15.22,0,0,0-10.78,4.48l-90.83,90.92a5.18,5.18,0,0,0,0,7.31L834,558.68a5.15,5.15,0,0,0,7.3,0l11.53-11.55a9.12,9.12,0,0,1,12.89,0q34.59,34.65,69.21,69.3A19.22,19.22,0,0,1,940.59,630V697.1a5.18,5.18,0,0,0,5.17,5.17H960.3a5.17,5.17,0,0,0,5.16-5.17V449.6A5.17,5.17,0,0,0,960.3,444.43Zm-21.69,128a3,3,0,0,1-5.05,2.09L886,526.89a7.15,7.15,0,0,1,0-10.11q23.79-23.8,47.57-47.63a3,3,0,0,1,5.05,2.09Z" transform="translate(-689.61 -363.04)"/>
</svg>
