<svg id="Слой_1" data-name="Слой 1" xmlns="http://www.w3.org/2000/svg" width="469.16" height="360.89" viewBox="0 0 469.16 360.89">
  <defs>
    <style>
      .cls-1 {
        fill: none;
      }

      .cls-2 {
        fill: #fff;
        stroke: #fff;
        stroke-miterlimit: 10;
      }
    </style>
  </defs>
  <ellipse class="cls-1" cx="234.58" cy="180.45" rx="331.75" ry="255.19"/>
  <path class="cls-2" d="M1055.74,449.61V637.37a5.17,5.17,0,0,0,5.15,5.17h45.31a9.12,9.12,0,0,1,9.1,9.12v16.58a9.11,9.11,0,0,1-9.1,9.12H1003.31a5.17,5.17,0,0,0-5.16,5.16v14.57a5.17,5.17,0,0,0,5.16,5.17H1135a5.17,5.17,0,0,0,5.15-5.17V449.61a5.17,5.17,0,0,0-5.15-5.17h-14.53a5.17,5.17,0,0,0-5.15,5.17V608.52a9.11,9.11,0,0,1-9.1,9.12h-16.53a9.11,9.11,0,0,1-9.1-9.12V449.61a5.17,5.17,0,0,0-5.16-5.17h-14.52A5.17,5.17,0,0,0,1055.74,449.61Z" transform="translate(-689.61 -363.04)"/>
  <path class="cls-2" d="M708.25,697.09V389.89a5.17,5.17,0,0,1,5.16-5.17h14.52a5.17,5.17,0,0,1,5.16,5.17V522.83a4.92,4.92,0,0,0,8.39,3.47c44.64-45,91.74-92.06,136.38-137.09a15.14,15.14,0,0,1,10.75-4.49H1135a5.17,5.17,0,0,1,5.15,5.17v14.56a5.16,5.16,0,0,1-5.15,5.17h-102.9a9.11,9.11,0,0,0-9.09,9.12V637.37a5.17,5.17,0,0,1-5.16,5.17h-14.52a5.17,5.17,0,0,1-5.16-5.17V418.74a9.11,9.11,0,0,0-9.09-9.12H903a19.07,19.07,0,0,0-13.55,5.65c-39.84,40.2-82.14,82.38-122,122.58a9.14,9.14,0,0,0,0,12.9c44.62,44.48,91.26,90.94,135.88,135.42A15.36,15.36,0,0,1,907.86,697v.08a5.16,5.16,0,0,1-5.16,5.17H888.18a15.26,15.26,0,0,1-10.79-4.47c-44.62-44.5-91.27-91-135.89-135.51a4.94,4.94,0,0,0-8.41,3.51v131.3a5.17,5.17,0,0,1-5.16,5.17H713.41A5.17,5.17,0,0,1,708.25,697.09Z" transform="translate(-689.61 -363.04)"/>
  <path class="cls-2" d="M960.25,444.44H924.12a15.25,15.25,0,0,0-10.77,4.47Q868,494.38,822.67,539.83a5.18,5.18,0,0,0,0,7.31l11.5,11.54a5.14,5.14,0,0,0,7.29,0L853,547.13a9.09,9.09,0,0,1,12.86,0L935,616.42A19.23,19.23,0,0,1,940.57,630v67.08a5.17,5.17,0,0,0,5.15,5.17h14.53a5.17,5.17,0,0,0,5.15-5.17V449.61A5.17,5.17,0,0,0,960.25,444.44Zm-21.66,128a3,3,0,0,1-5,2.09L886,526.89a7.16,7.16,0,0,1,0-10.1Q909.8,493,933.55,469.16a3,3,0,0,1,5,2.09Z" transform="translate(-689.61 -363.04)"/>
</svg>
