<svg id="Слой_1" data-name="Слой 1" xmlns="http://www.w3.org/2000/svg" width="469.16" height="360.89" viewBox="0 0 469.16 360.89">
  <defs>
    <style>
      .cls-1 {
        fill: none;
      }

      .cls-2 {
        fill: #fff;
        stroke: #fff;
        stroke-miterlimit: 10;
      }
    </style>
  </defs>
  <ellipse class="cls-1" cx="234.58" cy="180.45" rx="331.75" ry="255.19"/>
  <path class="cls-2" d="M1055.47,449.62V637.36a5.17,5.17,0,0,0,5.15,5.17h45.22a9.09,9.09,0,0,1,9.07,9.12v16.57a9.1,9.1,0,0,1-9.07,9.12H1003.15a5.17,5.17,0,0,0-5.15,5.17v14.56a5.17,5.17,0,0,0,5.15,5.17h131.41a5.17,5.17,0,0,0,5.14-5.17V449.62a5.16,5.16,0,0,0-5.14-5.17h-14.5a5.17,5.17,0,0,0-5.15,5.17V608.51a9.09,9.09,0,0,1-9.07,9.12h-16.5a9.1,9.1,0,0,1-9.08-9.12V449.62a5.17,5.17,0,0,0-5.15-5.17h-14.49A5.17,5.17,0,0,0,1055.47,449.62Z" transform="translate(-689.61 -363.04)"/>
  <path class="cls-2" d="M708.69,697.07V389.91a5.16,5.16,0,0,1,5.14-5.17h14.49a5.17,5.17,0,0,1,5.15,5.17V522.83a4.91,4.91,0,0,0,8.38,3.47c44.55-45,91.55-92,136.1-137.07a15.12,15.12,0,0,1,10.73-4.49h245.88a5.16,5.16,0,0,1,5.14,5.17v14.56a5.16,5.16,0,0,1-5.14,5.17H1031.87a9.09,9.09,0,0,0-9.08,9.12v218.6a5.17,5.17,0,0,1-5.15,5.17h-14.49a5.17,5.17,0,0,1-5.15-5.17V418.76a9.09,9.09,0,0,0-9.07-9.12H903a19,19,0,0,0-13.52,5.65c-39.76,40.19-82,82.37-121.73,122.56a9.15,9.15,0,0,0,0,12.9l135.61,135.4A15.41,15.41,0,0,1,907.89,697v.08a5.15,5.15,0,0,1-5.14,5.17h-14.5a15.23,15.23,0,0,1-10.77-4.47L741.87,562.28a4.93,4.93,0,0,0-8.4,3.51V697.07a5.17,5.17,0,0,1-5.15,5.17H713.83A5.16,5.16,0,0,1,708.69,697.07Z" transform="translate(-689.61 -363.04)"/>
  <path class="cls-2" d="M960.17,444.45h-36a15.18,15.18,0,0,0-10.75,4.47l-90.5,90.91a5.18,5.18,0,0,0,0,7.31l11.48,11.54a5.15,5.15,0,0,0,7.28,0l11.49-11.55a9.05,9.05,0,0,1,12.84,0l69,69.28A19.27,19.27,0,0,1,940.54,630v67.07a5.16,5.16,0,0,0,5.14,5.17h14.49a5.17,5.17,0,0,0,5.15-5.17V449.62A5.17,5.17,0,0,0,960.17,444.45Zm-21.61,128a3,3,0,0,1-5,2.1l-47.41-47.63a7.18,7.18,0,0,1,0-10.1l47.41-47.62a3,3,0,0,1,5,2.09Z" transform="translate(-689.61 -363.04)"/>
</svg>
