<svg id="Слой_1" data-name="Слой 1" xmlns="http://www.w3.org/2000/svg" width="469.16" height="360.89" viewBox="0 0 469.16 360.89">
  <defs>
    <style>
      .cls-1 {
        fill: none;
      }

      .cls-2 {
        fill: #fff;
        stroke: #fff;
        stroke-miterlimit: 10;
      }
    </style>
  </defs>
  <ellipse class="cls-1" cx="234.58" cy="180.45" rx="331.75" ry="255.19"/>
  <path class="cls-2" d="M1055.15,449.63V637.34a5.16,5.16,0,0,0,5.13,5.17h45.11a9.09,9.09,0,0,1,9,9.12V668.2a9.09,9.09,0,0,1-9,9.12H1003a5.16,5.16,0,0,0-5.13,5.17V697a5.15,5.15,0,0,0,5.13,5.17H1134a5.16,5.16,0,0,0,5.14-5.17V449.63a5.16,5.16,0,0,0-5.14-5.16h-14.46a5.16,5.16,0,0,0-5.13,5.17V608.5a9.09,9.09,0,0,1-9,9.12h-16.46a9.09,9.09,0,0,1-9.06-9.12V449.64a5.16,5.16,0,0,0-5.13-5.17h-14.46A5.15,5.15,0,0,0,1055.15,449.63Z" transform="translate(-689.61 -363.04)"/>
  <path class="cls-2" d="M709.22,697V389.93a5.15,5.15,0,0,1,5.13-5.16h14.46a5.16,5.16,0,0,1,5.13,5.17V522.83a4.89,4.89,0,0,0,8.36,3.47c44.44-45,91.33-92,135.77-137a15,15,0,0,1,10.7-4.48H1134a5.16,5.16,0,0,1,5.14,5.17v14.55a5.16,5.16,0,0,1-5.14,5.17H1031.6a9.09,9.09,0,0,0-9.06,9.12V637.34a5.16,5.16,0,0,1-5.13,5.17H1003a5.16,5.16,0,0,1-5.13-5.17V418.78a9.08,9.08,0,0,0-9.06-9.12H903.1a18.93,18.93,0,0,0-13.49,5.65C850,455.49,807.84,497.67,768.17,537.85a9.18,9.18,0,0,0,0,12.9L903.48,686.13A15.38,15.38,0,0,1,907.93,697v.08a5.15,5.15,0,0,1-5.13,5.16H888.34a15.19,15.19,0,0,1-10.74-4.46L742.32,562.28a4.92,4.92,0,0,0-8.38,3.51V697a5.16,5.16,0,0,1-5.13,5.17H714.35A5.16,5.16,0,0,1,709.22,697Z" transform="translate(-689.61 -363.04)"/>
  <path class="cls-2" d="M960.09,444.47h-36a15.11,15.11,0,0,0-10.72,4.47l-90.28,90.89a5.2,5.2,0,0,0,0,7.31l11.46,11.53a5.09,5.09,0,0,0,7.25,0l11.47-11.54a9,9,0,0,1,12.8,0l68.8,69.27A19.29,19.29,0,0,1,940.49,630v67a5.16,5.16,0,0,0,5.14,5.17h14.46a5.16,5.16,0,0,0,5.13-5.17V449.64A5.16,5.16,0,0,0,960.09,444.47ZM938.52,572.42a2.94,2.94,0,0,1-5,2.09L886.22,526.9a7.2,7.2,0,0,1,0-10.11l47.3-47.61a2.94,2.94,0,0,1,5,2.09Z" transform="translate(-689.61 -363.04)"/>
</svg>
