<svg id="Слой_1" data-name="Слой 1" xmlns="http://www.w3.org/2000/svg" width="469.16" height="360.89" viewBox="0 0 469.16 360.89">
  <defs>
    <style>
      .cls-1 {
        fill: none;
      }

      .cls-2 {
        fill: #fff;
        stroke: #fff;
        stroke-miterlimit: 10;
      }
    </style>
  </defs>
  <ellipse class="cls-1" cx="234.58" cy="180.45" rx="331.75" ry="255.19"/>
  <path class="cls-2" d="M1054.77,449.65V637.33a5.14,5.14,0,0,0,5.11,5.16h45a9.08,9.08,0,0,1,9,9.12v16.57a9.08,9.08,0,0,1-9,9.12H1002.72a5.14,5.14,0,0,0-5.11,5.16V697a5.14,5.14,0,0,0,5.11,5.16h130.7a5.15,5.15,0,0,0,5.12-5.16V449.65a5.15,5.15,0,0,0-5.12-5.17H1119a5.15,5.15,0,0,0-5.12,5.17V608.49a9.08,9.08,0,0,1-9,9.12h-16.41a9.08,9.08,0,0,1-9-9.12V449.65a5.16,5.16,0,0,0-5.12-5.17h-14.42A5.15,5.15,0,0,0,1054.77,449.65Z" transform="translate(-689.61 -363.04)"/>
  <path class="cls-2" d="M709.84,697V390A5.14,5.14,0,0,1,715,384.8h14.42a5.14,5.14,0,0,1,5.11,5.16V522.84a4.88,4.88,0,0,0,8.34,3.47c44.31-45,91.06-92,135.37-137a15,15,0,0,1,10.68-4.48h244.54a5.14,5.14,0,0,1,5.12,5.16v14.56a5.14,5.14,0,0,1-5.12,5.16H1031.29a9.08,9.08,0,0,0-9,9.12V637.33a5.15,5.15,0,0,1-5.12,5.16h-14.42a5.14,5.14,0,0,1-5.11-5.16V418.8a9.08,9.08,0,0,0-9-9.12H903.16a18.9,18.9,0,0,0-13.45,5.65c-39.55,40.18-81.54,82.34-121.08,122.52a9.18,9.18,0,0,0,0,12.89L903.54,686.11A15.41,15.41,0,0,1,908,696.94V697a5.13,5.13,0,0,1-5.12,5.16H888.44a15.12,15.12,0,0,1-10.71-4.46L742.85,562.28a4.9,4.9,0,0,0-8.36,3.5V697a5.14,5.14,0,0,1-5.11,5.16H715A5.15,5.15,0,0,1,709.84,697Z" transform="translate(-689.61 -363.04)"/>
  <path class="cls-2" d="M960,444.48H924.12A15,15,0,0,0,913.43,449q-45,45.44-90,90.88a5.19,5.19,0,0,0,0,7.3q5.7,5.77,11.42,11.53a5.07,5.07,0,0,0,7.23,0l11.43-11.54a9,9,0,0,1,12.77,0q34.31,34.62,68.6,69.26A19.3,19.3,0,0,1,940.45,630v67a5.14,5.14,0,0,0,5.11,5.16H960A5.15,5.15,0,0,0,965.1,697V449.65A5.16,5.16,0,0,0,960,444.48Zm-21.5,127.93a2.93,2.93,0,0,1-5,2.1L886.33,526.9a7.2,7.2,0,0,1,0-10.1l47.15-47.61a2.93,2.93,0,0,1,5,2.09Z" transform="translate(-689.61 -363.04)"/>
</svg>
