<svg id="Слой_1" data-name="Слой 1" xmlns="http://www.w3.org/2000/svg" width="469.16" height="360.89" viewBox="0 0 469.16 360.89">
  <defs>
    <style>
      .cls-1 {
        fill: none;
      }

      .cls-2 {
        fill: #fff;
        stroke: #fff;
        stroke-miterlimit: 10;
      }
    </style>
  </defs>
  <ellipse class="cls-1" cx="234.58" cy="180.45" rx="331.75" ry="255.19"/>
  <path class="cls-2" d="M1054.34,449.67V637.31a5.13,5.13,0,0,0,5.1,5.16h44.83a9.07,9.07,0,0,1,9,9.12v16.56a9.07,9.07,0,0,1-9,9.12h-101.8a5.14,5.14,0,0,0-5.11,5.16V697a5.14,5.14,0,0,0,5.11,5.17h130.27a5.14,5.14,0,0,0,5.1-5.17V449.67a5.13,5.13,0,0,0-5.1-5.16h-14.37a5.13,5.13,0,0,0-5.1,5.16V608.48a9.06,9.06,0,0,1-9,9.11h-16.36a9.06,9.06,0,0,1-9-9.11V449.67a5.13,5.13,0,0,0-5.1-5.16h-14.37A5.13,5.13,0,0,0,1054.34,449.67Z" transform="translate(-689.61 -363.04)"/>
  <path class="cls-2" d="M710.55,697V390a5.13,5.13,0,0,1,5.1-5.16H730a5.14,5.14,0,0,1,5.1,5.16V522.84a4.86,4.86,0,0,0,8.31,3.47c44.16-45,90.76-92,134.92-137A14.92,14.92,0,0,1,889,384.83h243.75a5.13,5.13,0,0,1,5.1,5.16v14.56a5.13,5.13,0,0,1-5.1,5.16h-101.8a9.06,9.06,0,0,0-9,9.11V637.31a5.14,5.14,0,0,1-5.1,5.16h-14.37a5.14,5.14,0,0,1-5.11-5.16V418.82a9.06,9.06,0,0,0-9-9.11H903.23a18.77,18.77,0,0,0-13.41,5.65c-39.41,40.17-81.26,82.32-120.68,122.49a9.2,9.2,0,0,0,0,12.89c44.14,44.45,90.29,90.89,134.43,135.34A15.41,15.41,0,0,1,908,696.91V697a5.13,5.13,0,0,1-5.1,5.16H888.56a15,15,0,0,1-10.67-4.46c-44.15-44.48-90.3-90.94-134.44-135.42a4.89,4.89,0,0,0-8.33,3.51V697a5.14,5.14,0,0,1-5.1,5.17H715.65A5.14,5.14,0,0,1,710.55,697Z" transform="translate(-689.61 -363.04)"/>
  <path class="cls-2" d="M959.86,444.51H924.13A14.94,14.94,0,0,0,913.47,449l-89.72,90.86a5.21,5.21,0,0,0,0,7.3q5.68,5.76,11.38,11.53a5.06,5.06,0,0,0,7.21,0q5.7-5.76,11.39-11.54a8.92,8.92,0,0,1,12.73,0l68.38,69.24A19.33,19.33,0,0,1,940.39,630v67a5.14,5.14,0,0,0,5.1,5.17h14.37A5.14,5.14,0,0,0,965,697V449.67A5.13,5.13,0,0,0,959.86,444.51Zm-21.42,127.9a2.93,2.93,0,0,1-5,2.09l-47-47.6a7.21,7.21,0,0,1,0-10.1l47-47.59a2.92,2.92,0,0,1,5,2.09Z" transform="translate(-689.61 -363.04)"/>
</svg>
