<svg id="Слой_1" data-name="Слой 1" xmlns="http://www.w3.org/2000/svg" width="469.16" height="360.89" viewBox="0 0 469.16 360.89">
  <defs>
    <style>
      .cls-1 {
        fill: none;
      }

      .cls-2 {
        fill: #fff;
        stroke: #fff;
        stroke-miterlimit: 10;
      }
    </style>
  </defs>
  <ellipse class="cls-1" cx="234.58" cy="180.45" rx="331.75" ry="255.19"/>
  <path class="cls-2" d="M1053.86,449.69v187.6a5.13,5.13,0,0,0,5.08,5.16h44.67a9,9,0,0,1,9,9.11v16.56a9.05,9.05,0,0,1-9,9.12H1002.18a5.12,5.12,0,0,0-5.08,5.16V697a5.12,5.12,0,0,0,5.08,5.16H1132a5.12,5.12,0,0,0,5.08-5.16V449.69a5.13,5.13,0,0,0-5.08-5.16h-14.32a5.13,5.13,0,0,0-5.08,5.16V608.46a9,9,0,0,1-9,9.11h-16.3a9,9,0,0,1-9-9.11V449.69a5.12,5.12,0,0,0-5.08-5.16h-14.32A5.13,5.13,0,0,0,1053.86,449.69Z" transform="translate(-689.61 -363.04)"/>
  <path class="cls-2" d="M711.33,697V390a5.13,5.13,0,0,1,5.08-5.17h14.31a5.13,5.13,0,0,1,5.09,5.17V522.84a4.84,4.84,0,0,0,8.27,3.47c44-45,90.44-92,134.44-137a14.82,14.82,0,0,1,10.6-4.49H1132a5.13,5.13,0,0,1,5.08,5.17v14.55a5.12,5.12,0,0,1-5.08,5.16H1030.55a9,9,0,0,0-9,9.11V637.29a5.13,5.13,0,0,1-5.08,5.16h-14.32a5.13,5.13,0,0,1-5.08-5.16V418.85a9,9,0,0,0-9-9.11H903.3A18.65,18.65,0,0,0,890,415.39c-39.27,40.16-81,82.3-120.25,122.46a9.22,9.22,0,0,0,0,12.89c44,44.44,90,90.87,133.94,135.31a15.45,15.45,0,0,1,4.41,10.83V697a5.12,5.12,0,0,1-5.08,5.16H888.69a15,15,0,0,1-10.64-4.46c-44-44.46-90-90.92-133.95-135.38a4.86,4.86,0,0,0-8.29,3.5V697a5.13,5.13,0,0,1-5.09,5.16H716.41A5.12,5.12,0,0,1,711.33,697Z" transform="translate(-689.61 -363.04)"/>
  <path class="cls-2" d="M959.73,444.53h-35.6A14.88,14.88,0,0,0,913.51,449l-89.4,90.84a5.23,5.23,0,0,0,0,7.3l11.34,11.52a5,5,0,0,0,7.19,0L854,547.13a8.87,8.87,0,0,1,12.68,0l68.13,69.23a19.37,19.37,0,0,1,5.54,13.58v67a5.12,5.12,0,0,0,5.08,5.16h14.31a5.13,5.13,0,0,0,5.09-5.16V449.69A5.13,5.13,0,0,0,959.73,444.53ZM938.38,572.4a2.9,2.9,0,0,1-5,2.09l-46.83-47.58a7.23,7.23,0,0,1,0-10.1l46.83-47.59a2.91,2.91,0,0,1,5,2.1Z" transform="translate(-689.61 -363.04)"/>
</svg>
