<svg id="Слой_1" data-name="Слой 1" xmlns="http://www.w3.org/2000/svg" width="469.16" height="360.89" viewBox="0 0 469.16 360.89">
  <defs>
    <style>
      .cls-1 {
        fill: none;
      }

      .cls-2 {
        fill: #fff;
        stroke: #fff;
        stroke-miterlimit: 10;
      }
    </style>
  </defs>
  <ellipse class="cls-1" cx="234.58" cy="180.45" rx="331.75" ry="255.19"/>
  <path class="cls-2" d="M1053.35,449.72V637.26a5.12,5.12,0,0,0,5.06,5.17h44.49a9,9,0,0,1,8.93,9.1v16.56a9,9,0,0,1-8.93,9.11h-101a5.12,5.12,0,0,0-5.06,5.17v14.54a5.11,5.11,0,0,0,5.06,5.16h129.29a5.11,5.11,0,0,0,5.06-5.16V449.72a5.12,5.12,0,0,0-5.06-5.17H1116.9a5.12,5.12,0,0,0-5.07,5.17V608.44a9,9,0,0,1-8.93,9.12h-16.23a9,9,0,0,1-8.94-9.12V449.72a5.12,5.12,0,0,0-5.06-5.17h-14.26A5.12,5.12,0,0,0,1053.35,449.72Z" transform="translate(-689.61 -363.04)"/>
  <path class="cls-2" d="M712.17,696.91V390.07a5.12,5.12,0,0,1,5.06-5.17h14.26a5.12,5.12,0,0,1,5.06,5.17V522.85a4.82,4.82,0,0,0,8.25,3.47c43.82-45,90.07-92,133.9-136.94a14.77,14.77,0,0,1,10.56-4.48h241.9a5.12,5.12,0,0,1,5.06,5.17v14.54a5.11,5.11,0,0,1-5.06,5.16h-101a9,9,0,0,0-8.94,9.11V637.26a5.12,5.12,0,0,1-5.06,5.17h-14.26a5.12,5.12,0,0,1-5.06-5.17V418.88a9,9,0,0,0-8.93-9.11H903.39a18.56,18.56,0,0,0-13.31,5.65C851,455.57,809.43,497.7,770.31,537.85a9.25,9.25,0,0,0,0,12.89C814.16,595.17,860,641.58,903.76,686a15.48,15.48,0,0,1,4.4,10.83v.07a5.11,5.11,0,0,1-5.07,5.16H888.83a14.87,14.87,0,0,1-10.59-4.45c-43.81-44.46-89.61-90.9-133.42-135.36a4.85,4.85,0,0,0-8.27,3.51V696.91a5.11,5.11,0,0,1-5.06,5.16H717.23A5.11,5.11,0,0,1,712.17,696.91Z" transform="translate(-689.61 -363.04)"/>
  <path class="cls-2" d="M959.59,444.55H924.13A14.81,14.81,0,0,0,913.55,449l-89,90.82a5.24,5.24,0,0,0,0,7.3l11.29,11.52a5,5,0,0,0,7.16,0l11.31-11.53a8.8,8.8,0,0,1,12.63,0l67.86,69.21a19.38,19.38,0,0,1,5.51,13.57v67a5.12,5.12,0,0,0,5.06,5.17h14.26a5.12,5.12,0,0,0,5.07-5.17V449.72A5.12,5.12,0,0,0,959.59,444.55ZM938.33,572.39a2.89,2.89,0,0,1-5,2.09l-46.65-47.57a7.26,7.26,0,0,1,0-10.09l46.65-47.58a2.9,2.9,0,0,1,5,2.09Z" transform="translate(-689.61 -363.04)"/>
</svg>
