<svg id="Слой_1" data-name="Слой 1" xmlns="http://www.w3.org/2000/svg" width="469.16" height="360.89" viewBox="0 0 469.16 360.89">
  <defs>
    <style>
      .cls-1 {
        fill: none;
      }

      .cls-2 {
        fill: #fff;
        stroke: #fff;
        stroke-miterlimit: 10;
      }
    </style>
  </defs>
  <ellipse class="cls-1" cx="234.58" cy="180.45" rx="331.75" ry="255.19"/>
  <path class="cls-2" d="M1052.8,449.74v187.5a5.11,5.11,0,0,0,5,5.16h44.3a9,9,0,0,1,8.9,9.11v16.55a9,9,0,0,1-8.9,9.11h-100.6a5.11,5.11,0,0,0-5,5.16v14.54a5.11,5.11,0,0,0,5,5.16h128.74a5.1,5.1,0,0,0,5-5.16V449.74a5.11,5.11,0,0,0-5-5.16h-14.2a5.11,5.11,0,0,0-5,5.16V608.43a9,9,0,0,1-8.9,9.11H1086a9,9,0,0,1-8.9-9.11V449.74a5.11,5.11,0,0,0-5-5.16h-14.2A5.11,5.11,0,0,0,1052.8,449.74Z" transform="translate(-689.61 -363.04)"/>
  <path class="cls-2" d="M713.07,696.87V390.11a5.1,5.1,0,0,1,5-5.16h14.2a5.1,5.1,0,0,1,5,5.16V522.85a4.8,4.8,0,0,0,8.21,3.47c43.64-45,89.69-91.93,133.33-136.9A14.67,14.67,0,0,1,889.41,385h240.87a5.1,5.1,0,0,1,5,5.16v14.54a5.1,5.1,0,0,1-5,5.16h-100.6a9,9,0,0,0-8.9,9.11V637.24a5.11,5.11,0,0,1-5,5.16h-14.2a5.11,5.11,0,0,1-5-5.16V418.92a9,9,0,0,0-8.89-9.11H903.47a18.44,18.44,0,0,0-13.24,5.64c-39,40.14-80.31,82.27-119.26,122.41a9.26,9.26,0,0,0,0,12.88L903.85,686a15.52,15.52,0,0,1,4.37,10.83v.07a5.1,5.1,0,0,1-5,5.16H889a14.8,14.8,0,0,1-10.55-4.45c-43.62-44.45-89.23-90.88-132.85-135.32a4.82,4.82,0,0,0-8.23,3.5V696.87a5.1,5.1,0,0,1-5,5.16h-14.2A5.1,5.1,0,0,1,713.07,696.87Z" transform="translate(-689.61 -363.04)"/>
  <path class="cls-2" d="M959.44,444.58H924.13a14.75,14.75,0,0,0-10.54,4.47l-88.66,90.79a5.26,5.26,0,0,0,0,7.3l11.25,11.52a5,5,0,0,0,7.13,0q5.63-5.76,11.26-11.53a8.74,8.74,0,0,1,12.57,0q33.79,34.59,67.57,69.19a19.41,19.41,0,0,1,5.49,13.57v67a5.1,5.1,0,0,0,5,5.16h14.2a5.1,5.1,0,0,0,5-5.16V449.74A5.11,5.11,0,0,0,959.44,444.58ZM938.27,572.39a2.89,2.89,0,0,1-4.93,2.09l-46.45-47.57a7.27,7.27,0,0,1,0-10.08l46.45-47.57a2.89,2.89,0,0,1,4.93,2.09Z" transform="translate(-689.61 -363.04)"/>
</svg>
