<svg id="Слой_1" data-name="Слой 1" xmlns="http://www.w3.org/2000/svg" width="469.16" height="360.89" viewBox="0 0 469.16 360.89">
  <defs>
    <style>
      .cls-1 {
        fill: none;
      }

      .cls-2 {
        fill: #fff;
        stroke: #fff;
        stroke-miterlimit: 10;
      }
    </style>
  </defs>
  <ellipse class="cls-1" cx="234.58" cy="180.45" rx="331.75" ry="255.19"/>
  <path class="cls-2" d="M1052.22,449.77V637.21a5.09,5.09,0,0,0,5,5.16h44.1a9,9,0,0,1,8.85,9.11V668a9,9,0,0,1-8.85,9.1H1001.19a5.09,5.09,0,0,0-5,5.16v14.54a5.09,5.09,0,0,0,5,5.16h128.16a5.1,5.1,0,0,0,5-5.16V449.77a5.09,5.09,0,0,0-5-5.16h-14.14a5.09,5.09,0,0,0-5,5.16V608.41a9,9,0,0,1-8.85,9.11h-16.1a9,9,0,0,1-8.85-9.11V449.77a5.09,5.09,0,0,0-5-5.16h-14.13A5.09,5.09,0,0,0,1052.22,449.77Z" transform="translate(-689.61 -363.04)"/>
  <path class="cls-2" d="M714,696.83V390.15a5.1,5.1,0,0,1,5-5.16h14.14a5.09,5.09,0,0,1,5,5.16V522.86a4.78,4.78,0,0,0,8.18,3.47c43.44-45,89.28-91.91,132.73-136.86A14.54,14.54,0,0,1,889.56,385h239.79a5.09,5.09,0,0,1,5,5.16v14.54a5.1,5.1,0,0,1-5,5.16H1029.2a9,9,0,0,0-8.85,9.1V637.21a5.09,5.09,0,0,1-5,5.16h-14.14a5.08,5.08,0,0,1-5-5.16V419a9,9,0,0,0-8.86-9.1H903.57a18.35,18.35,0,0,0-13.19,5.64c-38.77,40.12-79.94,82.24-118.72,122.37a9.29,9.29,0,0,0,0,12.88c43.42,44.4,88.82,90.79,132.24,135.19a15.53,15.53,0,0,1,4.36,10.83v.07a5.09,5.09,0,0,1-5,5.16H889.14a14.65,14.65,0,0,1-10.5-4.46c-43.43-44.43-88.83-90.85-132.25-135.28a4.8,4.8,0,0,0-8.2,3.51V696.83a5.09,5.09,0,0,1-5,5.16H719A5.1,5.1,0,0,1,714,696.83Z" transform="translate(-689.61 -363.04)"/>
  <path class="cls-2" d="M959.28,444.61H924.13a14.63,14.63,0,0,0-10.49,4.46l-88.26,90.77a5.27,5.27,0,0,0,0,7.3l11.2,11.51a4.91,4.91,0,0,0,7.09,0l11.21-11.52a8.67,8.67,0,0,1,12.52,0Q901,581.7,934.66,616.3a19.43,19.43,0,0,1,5.47,13.57v67a5.1,5.1,0,0,0,5,5.16h14.13a5.1,5.1,0,0,0,5-5.16V449.77A5.09,5.09,0,0,0,959.28,444.61ZM938.2,572.38a2.87,2.87,0,0,1-4.9,2.09l-46.24-47.55a7.3,7.3,0,0,1,0-10.09l46.24-47.55a2.87,2.87,0,0,1,4.9,2.09Z" transform="translate(-689.61 -363.04)"/>
</svg>
