<svg id="Слой_1" data-name="Слой 1" xmlns="http://www.w3.org/2000/svg" width="469.16" height="360.89" viewBox="0 0 469.16 360.89">
  <defs>
    <style>
      .cls-1 {
        fill: none;
      }

      .cls-2 {
        fill: #fff;
        stroke: #fff;
        stroke-miterlimit: 10;
      }
    </style>
  </defs>
  <ellipse class="cls-1" cx="234.58" cy="180.45" rx="331.75" ry="255.19"/>
  <path class="cls-2" d="M1051.61,449.79v187.4a5.08,5.08,0,0,0,5,5.15h43.89a9,9,0,0,1,8.81,9.1V668a9,9,0,0,1-8.81,9.1h-99.67a5.08,5.08,0,0,0-5,5.16v14.53a5.08,5.08,0,0,0,5,5.16h127.54a5.08,5.08,0,0,0,5-5.16v-247a5.07,5.07,0,0,0-5-5.15h-14.07a5.08,5.08,0,0,0-5,5.15v158.6a9,9,0,0,1-8.81,9.1h-16a9,9,0,0,1-8.81-9.1V449.79a5.08,5.08,0,0,0-5-5.15H1056.6A5.07,5.07,0,0,0,1051.61,449.79Z" transform="translate(-689.61 -363.04)"/>
  <path class="cls-2" d="M715,696.78V390.19a5.08,5.08,0,0,1,5-5.15h14.06a5.08,5.08,0,0,1,5,5.15V522.87a4.75,4.75,0,0,0,8.13,3.46c43.24-44.94,88.86-91.87,132.09-136.82A14.48,14.48,0,0,1,889.73,385h238.63a5.08,5.08,0,0,1,5,5.15v14.54a5.09,5.09,0,0,1-5,5.16H1028.7a9,9,0,0,0-8.81,9.1c0,72.07,0,146.12,0,218.2a5.07,5.07,0,0,1-5,5.15h-14.07a5.08,5.08,0,0,1-5-5.15V419a9,9,0,0,0-8.81-9.1H903.67a18.15,18.15,0,0,0-13.12,5.64C852,455.64,811,497.74,772.39,537.86a9.32,9.32,0,0,0,0,12.87c43.22,44.4,88.39,90.77,131.61,135.16a15.59,15.59,0,0,1,4.33,10.82v.08a5.07,5.07,0,0,1-5,5.15H889.31a14.57,14.57,0,0,1-10.45-4.45c-43.22-44.42-88.4-90.82-131.62-135.24a4.77,4.77,0,0,0-8.15,3.5v131a5.08,5.08,0,0,1-5,5.16H720A5.08,5.08,0,0,1,715,696.78Z" transform="translate(-689.61 -363.04)"/>
  <path class="cls-2" d="M959.11,444.64h-35a14.53,14.53,0,0,0-10.44,4.46l-87.84,90.74a5.31,5.31,0,0,0,0,7.3q5.58,5.75,11.15,11.51a4.89,4.89,0,0,0,7.06,0l11.15-11.52a8.61,8.61,0,0,1,12.46,0q33.48,34.56,66.94,69.15a19.47,19.47,0,0,1,5.44,13.56v66.94a5.08,5.08,0,0,0,5,5.16h14.06a5.08,5.08,0,0,0,5-5.16v-247A5.08,5.08,0,0,0,959.11,444.64Zm-21,127.73a2.85,2.85,0,0,1-4.88,2.09l-46-47.54a7.3,7.3,0,0,1,0-10.08l46-47.54a2.86,2.86,0,0,1,4.88,2.09Z" transform="translate(-689.61 -363.04)"/>
</svg>
