<svg id="Слой_1" data-name="Слой 1" xmlns="http://www.w3.org/2000/svg" width="469.16" height="360.89" viewBox="0 0 469.16 360.89">
  <defs>
    <style>
      .cls-1 {
        fill: none;
      }

      .cls-2 {
        fill: #fff;
        stroke: #fff;
        stroke-miterlimit: 10;
      }
    </style>
  </defs>
  <ellipse class="cls-1" cx="234.58" cy="180.45" rx="331.75" ry="255.19"/>
  <path class="cls-2" d="M1051,449.82V637.16a5.07,5.07,0,0,0,5,5.15h43.66a9,9,0,0,1,8.77,9.1V668a9,9,0,0,1-8.77,9.1h-99.16a5.06,5.06,0,0,0-5,5.16v14.53a5.07,5.07,0,0,0,5,5.16h126.89a5.08,5.08,0,0,0,5-5.16V449.82a5.08,5.08,0,0,0-5-5.16h-14a5.07,5.07,0,0,0-5,5.16V608.37a8.94,8.94,0,0,1-8.77,9.1h-15.93a8.94,8.94,0,0,1-8.77-9.1V449.82a5.08,5.08,0,0,0-5-5.16h-14A5.07,5.07,0,0,0,1051,449.82Z" transform="translate(-689.61 -363.04)"/>
  <path class="cls-2" d="M716.1,696.74V390.24a5.07,5.07,0,0,1,5-5.16h14a5.08,5.08,0,0,1,5,5.16V522.87a4.72,4.72,0,0,0,8.09,3.47c43-44.93,88.41-91.85,131.42-136.78a14.38,14.38,0,0,1,10.36-4.48h237.42a5.08,5.08,0,0,1,5,5.16v14.53a5.08,5.08,0,0,1-5,5.16h-99.16a8.93,8.93,0,0,0-8.76,9.1V637.16a5.07,5.07,0,0,1-5,5.15h-14a5.06,5.06,0,0,1-5-5.15V419a8.94,8.94,0,0,0-8.77-9.1H903.77a18,18,0,0,0-13,5.63c-38.4,40.11-79.16,82.2-117.56,122.3a9.35,9.35,0,0,0,0,12.87c43,44.38,87.95,90.74,130.94,135.12a15.57,15.57,0,0,1,4.31,10.81v.08a5.06,5.06,0,0,1-5,5.16h-14a14.48,14.48,0,0,1-10.39-4.46c-43-44.4-88-90.79-131-135.2a4.75,4.75,0,0,0-8.11,3.5v131a5.08,5.08,0,0,1-5,5.16h-14A5.07,5.07,0,0,1,716.1,696.74Z" transform="translate(-689.61 -363.04)"/>
  <path class="cls-2" d="M958.94,444.66H924.13a14.39,14.39,0,0,0-10.38,4.47l-87.4,90.71a5.33,5.33,0,0,0,0,7.3l11.09,11.5a4.84,4.84,0,0,0,7,0l11.1-11.52a8.54,8.54,0,0,1,12.39,0l66.6,69.14A19.51,19.51,0,0,1,940,629.82v66.92a5.07,5.07,0,0,0,5,5.15h14a5.07,5.07,0,0,0,5-5.15V449.82A5.08,5.08,0,0,0,958.94,444.66Zm-20.87,127.7a2.84,2.84,0,0,1-4.86,2.09l-45.78-47.52a7.32,7.32,0,0,1,0-10.08l45.78-47.52a2.84,2.84,0,0,1,4.86,2.08Z" transform="translate(-689.61 -363.04)"/>
</svg>
