<svg id="Слой_1" data-name="Слой 1" xmlns="http://www.w3.org/2000/svg" width="469.16" height="360.89" viewBox="0 0 469.16 360.89">
  <defs>
    <style>
      .cls-1 {
        fill: none;
      }

      .cls-2 {
        fill: #fff;
        stroke: #fff;
        stroke-miterlimit: 10;
      }
    </style>
  </defs>
  <ellipse class="cls-1" cx="234.58" cy="180.45" rx="331.75" ry="255.19"/>
  <path class="cls-2" d="M1050.27,449.85V637.13a5.06,5.06,0,0,0,4.94,5.15h43.43a8.92,8.92,0,0,1,8.72,9.1v16.53a8.92,8.92,0,0,1-8.72,9.1H1000a5.06,5.06,0,0,0-4.94,5.16v14.52a5.06,5.06,0,0,0,4.94,5.16h126.2a5.06,5.06,0,0,0,4.94-5.16V449.85a5,5,0,0,0-4.94-5.15H1112.3a5,5,0,0,0-4.94,5.15v158.5a8.92,8.92,0,0,1-8.72,9.1h-15.85a8.92,8.92,0,0,1-8.72-9.1V449.85a5,5,0,0,0-4.94-5.15h-13.92A5.06,5.06,0,0,0,1050.27,449.85Z" transform="translate(-689.61 -363.04)"/>
  <path class="cls-2" d="M717.22,696.69V390.29a5.07,5.07,0,0,1,4.94-5.16h13.92a5.06,5.06,0,0,1,4.94,5.16V522.88a4.69,4.69,0,0,0,8.05,3.46c42.79-44.91,87.93-91.82,130.71-136.73a14.23,14.23,0,0,1,10.31-4.48h236.13a5.05,5.05,0,0,1,4.94,5.16v14.52a5.05,5.05,0,0,1-4.94,5.16H1027.6a8.91,8.91,0,0,0-8.72,9.09V637.13a5,5,0,0,1-4.94,5.15H1000a5,5,0,0,1-4.94-5.15V419.06a8.91,8.91,0,0,0-8.72-9.09H903.88a17.9,17.9,0,0,0-13,5.63C852.71,455.69,812.17,497.77,774,537.86a9.38,9.38,0,0,0,0,12.87c42.76,44.37,87.47,90.71,130.23,135.08a15.64,15.64,0,0,1,4.29,10.81v.07a5.06,5.06,0,0,1-4.94,5.16H889.67a14.38,14.38,0,0,1-10.34-4.46C836.57,653,791.86,606.63,749.09,562.24a4.72,4.72,0,0,0-8.07,3.5v131a5.06,5.06,0,0,1-4.94,5.16H722.16A5.07,5.07,0,0,1,717.22,696.69Z" transform="translate(-689.61 -363.04)"/>
  <path class="cls-2" d="M958.75,444.7H924.13a14.31,14.31,0,0,0-10.33,4.46l-86.92,90.68a5.35,5.35,0,0,0,0,7.3l11,11.5a4.81,4.81,0,0,0,7,0l11-11.52a8.47,8.47,0,0,1,12.33,0q33.11,34.56,66.24,69.11a19.63,19.63,0,0,1,5.38,13.56v66.9a5.06,5.06,0,0,0,4.94,5.16h13.92a5.06,5.06,0,0,0,4.94-5.16V449.85A5,5,0,0,0,958.75,444.7ZM938,572.35a2.82,2.82,0,0,1-4.83,2.09l-45.53-47.51a7.33,7.33,0,0,1,0-10.07l45.53-47.51a2.82,2.82,0,0,1,4.83,2.09Z" transform="translate(-689.61 -363.04)"/>
</svg>
