<svg id="Слой_1" data-name="Слой 1" xmlns="http://www.w3.org/2000/svg" width="469.16" height="360.89" viewBox="0 0 469.16 360.89">
  <defs>
    <style>
      .cls-1 {
        fill: none;
      }

      .cls-2 {
        fill: #fff;
        stroke: #fff;
        stroke-miterlimit: 10;
      }
    </style>
  </defs>
  <ellipse class="cls-1" cx="234.58" cy="180.45" rx="331.75" ry="255.19"/>
  <path class="cls-2" d="M1049.54,449.88V637.1a5,5,0,0,0,4.91,5.15h43.18a8.9,8.9,0,0,1,8.67,9.1v16.53a8.89,8.89,0,0,1-8.67,9.09H999.58a5,5,0,0,0-4.91,5.15v14.52a5,5,0,0,0,4.91,5.16h125.47a5.06,5.06,0,0,0,4.92-5.16V449.88a5,5,0,0,0-4.92-5.15h-13.84a5,5,0,0,0-4.91,5.15V608.33a8.9,8.9,0,0,1-8.67,9.1h-15.75a8.9,8.9,0,0,1-8.67-9.1V449.88a5,5,0,0,0-4.91-5.15h-13.85A5,5,0,0,0,1049.54,449.88Z" transform="translate(-689.61 -363.04)"/>
  <path class="cls-2" d="M718.42,696.64V390.34a5,5,0,0,1,4.91-5.16h13.84a5.06,5.06,0,0,1,4.92,5.16V522.89a4.66,4.66,0,0,0,8,3.46c42.53-44.91,87.42-91.79,129.95-136.7a14.12,14.12,0,0,1,10.25-4.47h234.76a5,5,0,0,1,4.92,5.16v14.52a5,5,0,0,1-4.92,5.15h-98a8.89,8.89,0,0,0-8.67,9.09v218a5,5,0,0,1-4.91,5.15H999.58a5,5,0,0,1-4.91-5.15v-218A8.89,8.89,0,0,0,986,410H904a17.8,17.8,0,0,0-12.91,5.63c-38,40.08-78.28,82.15-116.24,122.22a9.42,9.42,0,0,0,0,12.87c42.51,44.35,87,90.68,129.48,135a15.71,15.71,0,0,1,4.26,10.81v.07a5,5,0,0,1-4.91,5.16H889.87a14.28,14.28,0,0,1-10.28-4.45c-42.52-44.38-87-90.74-129.48-135.12a4.69,4.69,0,0,0-8,3.5V696.64a5.06,5.06,0,0,1-4.92,5.16H723.33A5,5,0,0,1,718.42,696.64Z" transform="translate(-689.61 -363.04)"/>
  <path class="cls-2" d="M958.55,444.73H924.13a14.17,14.17,0,0,0-10.27,4.46l-86.41,90.65a5.33,5.33,0,0,0,0,7.29l11,11.51a4.76,4.76,0,0,0,7,0l11-11.52a8.39,8.39,0,0,1,12.26,0l65.86,69.09a19.67,19.67,0,0,1,5.35,13.55v66.88a5,5,0,0,0,4.91,5.16h13.84a5,5,0,0,0,4.91-5.16V449.88A5,5,0,0,0,958.55,444.73ZM937.91,572.34a2.8,2.8,0,0,1-4.8,2.09l-45.27-47.49a7.38,7.38,0,0,1,0-10.08l45.27-47.49a2.8,2.8,0,0,1,4.8,2.09Z" transform="translate(-689.61 -363.04)"/>
</svg>
