<svg id="Слой_1" data-name="Слой 1" xmlns="http://www.w3.org/2000/svg" width="469.16" height="360.89" viewBox="0 0 469.16 360.89">
  <defs>
    <style>
      .cls-1 {
        fill: none;
      }

      .cls-2 {
        fill: #fff;
        stroke: #fff;
        stroke-miterlimit: 10;
      }
    </style>
  </defs>
  <ellipse class="cls-1" cx="234.58" cy="180.45" rx="331.75" ry="255.19"/>
  <path class="cls-2" d="M1048.76,449.91V637.07a5,5,0,0,0,4.88,5.15h42.91a8.87,8.87,0,0,1,8.61,9.09v16.53a8.87,8.87,0,0,1-8.61,9.09H999.11a5,5,0,0,0-4.88,5.15v14.51a5,5,0,0,0,4.88,5.16H1123.8a5,5,0,0,0,4.88-5.16V449.91a5,5,0,0,0-4.88-5.15H1110a5,5,0,0,0-4.88,5.15v158.4a8.86,8.86,0,0,1-8.61,9.09h-15.66a8.86,8.86,0,0,1-8.61-9.09V449.91a5,5,0,0,0-4.89-5.15h-13.75A5,5,0,0,0,1048.76,449.91Z" transform="translate(-689.61 -363.04)"/>
  <path class="cls-2" d="M719.71,696.59V390.39a5,5,0,0,1,4.88-5.16h13.75a5,5,0,0,1,4.88,5.16v132.5a4.63,4.63,0,0,0,7.95,3.46c42.27-44.89,86.88-91.76,129.15-136.65a14,14,0,0,1,10.18-4.47h233.3a5,5,0,0,1,4.88,5.16V404.9a5,5,0,0,1-4.88,5.15h-97.44a8.86,8.86,0,0,0-8.61,9.09V637.07a5,5,0,0,1-4.89,5.15H999.11a5,5,0,0,1-4.88-5.15V419.14a8.86,8.86,0,0,0-8.62-9.09H904.12a17.62,17.62,0,0,0-12.82,5.63c-37.73,40.07-77.79,82.12-115.52,122.19a9.46,9.46,0,0,0,0,12.86c42.25,44.33,86.42,90.65,128.67,135a15.71,15.71,0,0,1,4.24,10.8v.08a5,5,0,0,1-4.89,5.15H890.09a14.11,14.11,0,0,1-10.22-4.45c-42.25-44.37-86.42-90.71-128.68-135.08a4.66,4.66,0,0,0-8,3.5V696.59a5,5,0,0,1-4.88,5.16H724.59A5,5,0,0,1,719.71,696.59Z" transform="translate(-689.61 -363.04)"/>
  <path class="cls-2" d="M958.34,444.76H924.13a14,14,0,0,0-10.2,4.46l-85.88,90.63a5.36,5.36,0,0,0,0,7.28q5.44,5.75,10.9,11.5a4.7,4.7,0,0,0,6.9,0l10.91-11.51a8.3,8.3,0,0,1,12.18,0l65.44,69.07a19.67,19.67,0,0,1,5.32,13.54v66.86a5,5,0,0,0,4.88,5.16h13.75a5,5,0,0,0,4.89-5.16V449.91A5,5,0,0,0,958.34,444.76ZM937.83,572.33a2.79,2.79,0,0,1-4.78,2.09l-45-47.47a7.4,7.4,0,0,1,0-10.08l45-47.47a2.79,2.79,0,0,1,4.78,2.08Z" transform="translate(-689.61 -363.04)"/>
</svg>
