<svg id="Слой_1" data-name="Слой 1" xmlns="http://www.w3.org/2000/svg" width="469.16" height="360.89" viewBox="0 0 469.16 360.89">
  <defs>
    <style>
      .cls-1 {
        fill: none;
      }

      .cls-2 {
        fill: #fff;
        stroke: #fff;
        stroke-miterlimit: 10;
      }
    </style>
  </defs>
  <ellipse class="cls-1" cx="234.58" cy="180.45" rx="331.75" ry="255.19"/>
  <path class="cls-2" d="M1047.91,449.94V637a5,5,0,0,0,4.85,5.15h42.61a8.84,8.84,0,0,1,8.56,9.09V667.8a8.84,8.84,0,0,1-8.56,9.09H998.6a5,5,0,0,0-4.85,5.15v14.51a5,5,0,0,0,4.85,5.15h123.84a5,5,0,0,0,4.84-5.15V449.94a5,5,0,0,0-4.84-5.15h-13.66a5,5,0,0,0-4.85,5.15V608.29a8.84,8.84,0,0,1-8.56,9.09h-15.55a8.83,8.83,0,0,1-8.55-9.09V449.94a5,5,0,0,0-4.85-5.15h-13.66A5,5,0,0,0,1047.91,449.94Z" transform="translate(-689.61 -363.04)"/>
  <path class="cls-2" d="M721.1,696.55V390.43a5,5,0,0,1,4.85-5.15h13.66a5,5,0,0,1,4.85,5.15V522.9c0,4.36,5,6.55,7.89,3.46,42-44.88,86.29-91.73,128.27-136.61a13.85,13.85,0,0,1,10.11-4.47h231.71a5,5,0,0,1,4.84,5.15v14.51a5,5,0,0,1-4.84,5.15h-96.78a8.83,8.83,0,0,0-8.55,9.09V637a5,5,0,0,1-4.85,5.15H998.6a5,5,0,0,1-4.85-5.15V419.18a8.83,8.83,0,0,0-8.55-9.09H904.26a17.44,17.44,0,0,0-12.74,5.64c-37.47,40-77.25,82.08-114.72,122.14a9.49,9.49,0,0,0,0,12.85L904.62,685.67a15.75,15.75,0,0,1,4.21,10.8v.08A5,5,0,0,1,904,701.7H890.32a14,14,0,0,1-10.15-4.45c-42-44.35-85.83-90.68-127.79-135-2.92-3.08-7.92-.87-7.92,3.5V696.55a5,5,0,0,1-4.85,5.15H726A5,5,0,0,1,721.1,696.55Z" transform="translate(-689.61 -363.04)"/>
  <path class="cls-2" d="M958.1,444.79h-34A13.92,13.92,0,0,0,914,449.25l-85.29,90.6a5.38,5.38,0,0,0,0,7.28l10.82,11.5a4.64,4.64,0,0,0,6.85,0l10.84-11.51a8.21,8.21,0,0,1,12.1,0l65,69a19.81,19.81,0,0,1,5.28,13.55v66.84a5,5,0,0,0,4.85,5.15H958.1a5,5,0,0,0,4.85-5.16V449.94A5,5,0,0,0,958.1,444.79ZM937.73,572.33a2.76,2.76,0,0,1-4.74,2.08L888.31,527a7.45,7.45,0,0,1,0-10.07L933,469.42a2.76,2.76,0,0,1,4.74,2.09Z" transform="translate(-689.61 -363.04)"/>
</svg>
