<svg id="Слой_1" data-name="Слой 1" xmlns="http://www.w3.org/2000/svg" width="469.16" height="360.89" viewBox="0 0 469.16 360.89">
  <defs>
    <style>
      .cls-1 {
        fill: none;
      }

      .cls-2 {
        fill: #fff;
        stroke: #fff;
        stroke-miterlimit: 10;
      }
    </style>
  </defs>
  <ellipse class="cls-1" cx="234.58" cy="180.45" rx="331.75" ry="255.19"/>
  <path class="cls-2" d="M1047,450V637a5,5,0,0,0,4.82,5.15h42.29c4.69,0,8.49,4.07,8.49,9.08v16.52c0,5-3.8,9.08-8.49,9.08H998a5,5,0,0,0-4.81,5.15V696.5a5,5,0,0,0,4.81,5.15h122.9a5,5,0,0,0,4.81-5.15V450a5,5,0,0,0-4.81-5.15h-13.56a5,5,0,0,0-4.81,5.15v158.3c0,5-3.81,9.08-8.49,9.08h-15.43c-4.69,0-8.5-4.06-8.5-9.08V450a5,5,0,0,0-4.81-5.15h-13.55A5,5,0,0,0,1047,450Z" transform="translate(-689.61 -363.04)"/>
  <path class="cls-2" d="M722.64,696.5v-306a5,5,0,0,1,4.81-5.15H741a5,5,0,0,1,4.82,5.15c0,43.48,0,88.94,0,132.42,0,4.37,5,6.56,7.84,3.46,41.67-44.86,85.63-91.7,127.3-136.56a13.69,13.69,0,0,1,10-4.47h230a5,5,0,0,1,4.81,5.15V405a5,5,0,0,1-4.81,5.15h-96c-4.69,0-8.49,4.06-8.49,9.08V637a5,5,0,0,1-4.82,5.15H998a5,5,0,0,1-4.81-5.15V419.22c0-5-3.81-9.08-8.5-9.08H904.41a17.21,17.21,0,0,0-12.64,5.63c-37.19,40-76.67,82.06-113.86,122.1a9.53,9.53,0,0,0,0,12.85c41.64,44.31,85.18,90.6,126.82,134.9a15.88,15.88,0,0,1,4.18,10.8v.08a5,5,0,0,1-4.81,5.15H890.57a13.79,13.79,0,0,1-10.06-4.45c-41.65-44.34-85.19-90.65-126.84-135-2.89-3.08-7.86-.87-7.86,3.5V696.5a5,5,0,0,1-4.81,5.15H727.45A5,5,0,0,1,722.64,696.5Z" transform="translate(-689.61 -363.04)"/>
  <path class="cls-2" d="M957.85,444.82H924.13a13.72,13.72,0,0,0-10,4.46l-84.65,90.57a5.4,5.4,0,0,0,0,7.28l10.74,11.49a4.59,4.59,0,0,0,6.8,0q5.37-5.75,10.75-11.5a8.1,8.1,0,0,1,12,0l64.5,69a19.83,19.83,0,0,1,5.25,13.54V696.5a5,5,0,0,0,4.81,5.15h13.56a5,5,0,0,0,4.81-5.15V450A5,5,0,0,0,957.85,444.82Zm-20.22,127.5a2.74,2.74,0,0,1-4.7,2.08L888.59,527a7.49,7.49,0,0,1,0-10.07l44.35-47.45a2.74,2.74,0,0,1,4.7,2.09Z" transform="translate(-689.61 -363.04)"/>
</svg>
