<svg id="Слой_1" data-name="Слой 1" xmlns="http://www.w3.org/2000/svg" width="469.16" height="360.89" viewBox="0 0 469.16 360.89">
  <defs>
    <style>
      .cls-1 {
        fill: none;
      }

      .cls-2 {
        fill: #fff;
        stroke: #fff;
        stroke-miterlimit: 10;
      }
    </style>
  </defs>
  <ellipse class="cls-1" cx="234.58" cy="180.45" rx="331.75" ry="255.19"/>
  <path class="cls-2" d="M1045.94,450q0,93.5,0,187a5,5,0,0,0,4.77,5.15h41.94c4.65,0,8.42,4.07,8.42,9.08v16.51c0,5-3.77,9.08-8.42,9.08H997.41a5,5,0,0,0-4.77,5.15v14.5a5,5,0,0,0,4.77,5.15h121.86a5,5,0,0,0,4.77-5.15V450a5,5,0,0,0-4.77-5.15h-13.44a5,5,0,0,0-4.77,5.15V608.25c0,5-3.78,9.08-8.42,9.08h-15.3c-4.65,0-8.42-4.06-8.42-9.08V450a5,5,0,0,0-4.77-5.15h-13.44A5,5,0,0,0,1045.94,450Z" transform="translate(-689.61 -363.04)"/>
  <path class="cls-2" d="M724.34,696.45V390.53a5,5,0,0,1,4.77-5.15h13.45a5,5,0,0,1,4.77,5.15V522.91c0,4.36,4.92,6.55,7.77,3.46,41.31-44.85,84.9-91.68,126.21-136.52a13.53,13.53,0,0,1,10-4.47h228a5,5,0,0,1,4.77,5.15V405a5,5,0,0,1-4.77,5.15H1024c-4.64,0-8.42,4.06-8.42,9.08V637a5,5,0,0,1-4.77,5.15H997.41a5,5,0,0,1-4.77-5.15V419.26c0-5-3.77-9.08-8.42-9.08H904.58A17.05,17.05,0,0,0,892,415.8c-36.87,40-76,82-112.89,122.07a9.6,9.6,0,0,0,0,12.85L904.94,685.58a15.9,15.9,0,0,1,4.14,10.8v.07a5,5,0,0,1-4.77,5.15H890.86a13.63,13.63,0,0,1-10-4.45c-41.3-44.32-84.47-90.62-125.76-134.94-2.87-3.08-7.79-.87-7.79,3.49V696.45a5,5,0,0,1-4.77,5.15H729.11A5,5,0,0,1,724.34,696.45Z" transform="translate(-689.61 -363.04)"/>
  <path class="cls-2" d="M957.56,444.85H924.13a13.6,13.6,0,0,0-10,4.46l-83.93,90.54a5.45,5.45,0,0,0,0,7.28l10.65,11.49a4.55,4.55,0,0,0,6.75,0l10.65-11.5a8,8,0,0,1,11.91,0l64,69a19.92,19.92,0,0,1,5.2,13.53v66.8a5,5,0,0,0,4.77,5.15h13.44a5,5,0,0,0,4.77-5.15V450A5,5,0,0,0,957.56,444.85Zm-20,127.46a2.72,2.72,0,0,1-4.67,2.08l-44-47.43a7.51,7.51,0,0,1,0-10.06l44-47.43a2.72,2.72,0,0,1,4.67,2.08Z" transform="translate(-689.61 -363.04)"/>
</svg>
