<svg id="Слой_1" data-name="Слой 1" xmlns="http://www.w3.org/2000/svg" width="469.16" height="360.89" viewBox="0 0 469.16 360.89">
  <defs>
    <style>
      .cls-1 {
        fill: none;
      }

      .cls-2 {
        fill: #fff;
        stroke: #fff;
        stroke-miterlimit: 10;
      }
    </style>
  </defs>
  <ellipse class="cls-1" cx="234.58" cy="180.45" rx="331.75" ry="255.19"/>
  <path class="cls-2" d="M1044.76,450V637a5,5,0,0,0,4.73,5.15H1091c4.6,0,8.34,4.07,8.34,9.08v16.5c0,5-3.74,9.08-8.34,9.08H996.71a5,5,0,0,0-4.73,5.15V696.4a5,5,0,0,0,4.73,5.15H1117.4a5,5,0,0,0,4.72-5.15V450a5,5,0,0,0-4.72-5.15h-13.32a5,5,0,0,0-4.72,5.15v158.2c0,5-3.74,9.08-8.34,9.08h-15.16c-4.59,0-8.33-4.07-8.33-9.08V450a5,5,0,0,0-4.73-5.15h-13.31A5,5,0,0,0,1044.76,450Z" transform="translate(-689.61 -363.04)"/>
  <path class="cls-2" d="M726.26,696.4V390.57a5,5,0,0,1,4.73-5.14H744.3a5,5,0,0,1,4.73,5.15V522.92c0,4.35,4.87,6.55,7.69,3.46,40.92-44.84,84.09-91.65,125-136.48a13.32,13.32,0,0,1,9.85-4.47H1117.4a5,5,0,0,1,4.72,5.15v14.49a5,5,0,0,1-4.72,5.15h-94.32c-4.6,0-8.33,4.06-8.33,9.08V637a5,5,0,0,1-4.73,5.15H996.71A5,5,0,0,1,992,637V419.3c0-5-3.73-9.08-8.33-9.08H904.77a16.81,16.81,0,0,0-12.42,5.62c-36.51,40-75.29,82-111.81,122a9.68,9.68,0,0,0,0,12.85c40.9,44.28,83.65,90.54,124.54,134.82a16,16,0,0,1,4.1,10.79v.07a5,5,0,0,1-4.72,5.15H891.18a13.46,13.46,0,0,1-9.89-4.45c-40.89-44.3-83.65-90.59-124.55-134.9-2.84-3.08-7.71-.87-7.71,3.49V696.4a5,5,0,0,1-4.73,5.15H731A5,5,0,0,1,726.26,696.4Z" transform="translate(-689.61 -363.04)"/>
  <path class="cls-2" d="M957.24,444.88H924.13a13.37,13.37,0,0,0-9.87,4.46l-83.12,90.51a5.48,5.48,0,0,0,0,7.28l10.55,11.48a4.45,4.45,0,0,0,6.68,0l10.56-11.49a7.86,7.86,0,0,1,11.79,0l63.34,69a20,20,0,0,1,5.15,13.53V696.4a5,5,0,0,0,4.73,5.15h13.31A5,5,0,0,0,962,696.4V450A5,5,0,0,0,957.24,444.88ZM937.39,572.3a2.69,2.69,0,0,1-4.62,2.08L889.23,527a7.57,7.57,0,0,1,0-10.06l43.54-47.42a2.69,2.69,0,0,1,4.62,2.08Z" transform="translate(-689.61 -363.04)"/>
</svg>
