<svg id="Слой_1" data-name="Слой 1" xmlns="http://www.w3.org/2000/svg" width="469.16" height="360.89" viewBox="0 0 469.16 360.89">
  <defs>
    <style>
      .cls-1 {
        fill: none;
      }

      .cls-2 {
        fill: #fff;
        stroke: #fff;
        stroke-miterlimit: 10;
      }
    </style>
  </defs>
  <ellipse class="cls-1" cx="234.58" cy="180.45" rx="331.75" ry="255.19"/>
  <path class="cls-2" d="M1043.43,450.05V636.93a4.93,4.93,0,0,0,4.68,5.14h41.07c4.55,0,8.25,4.07,8.25,9.08v16.5c0,5-3.7,9.07-8.25,9.07H995.91a4.94,4.94,0,0,0-4.68,5.15v14.49a4.93,4.93,0,0,0,4.68,5.14h119.36a4.93,4.93,0,0,0,4.67-5.14V450.05a4.93,4.93,0,0,0-4.67-5.14H1102.1a4.93,4.93,0,0,0-4.67,5.14V608.21c0,5-3.7,9.08-8.25,9.08h-15c-4.55,0-8.24-4.07-8.24-9.08V450.05a4.93,4.93,0,0,0-4.68-5.14h-13.16A4.93,4.93,0,0,0,1043.43,450.05Z" transform="translate(-689.61 -363.04)"/>
  <path class="cls-2" d="M728.45,696.36V390.62a4.93,4.93,0,0,1,4.67-5.14h13.17a4.93,4.93,0,0,1,4.67,5.14v132.3c0,4.36,4.82,6.55,7.61,3.46,40.46-44.82,83.16-91.62,123.62-136.44a13.13,13.13,0,0,1,9.75-4.46h223.33a4.93,4.93,0,0,1,4.67,5.14v14.49a4.94,4.94,0,0,1-4.67,5.15H1022c-4.55,0-8.24,4.06-8.24,9.07V636.92a4.94,4.94,0,0,1-4.68,5.15H995.91a4.93,4.93,0,0,1-4.68-5.14V419.33c0-5-3.69-9.07-8.24-9.07H905a16.55,16.55,0,0,0-12.28,5.62c-36.11,40-74.46,82-110.57,122a9.74,9.74,0,0,0,0,12.83C822.61,595,864.89,641.23,905.33,685.5a16.06,16.06,0,0,1,4.06,10.79v.07a4.93,4.93,0,0,1-4.68,5.14H891.54a13.24,13.24,0,0,1-9.77-4.44L758.59,562.2c-2.81-3.08-7.63-.88-7.63,3.49V696.36a4.93,4.93,0,0,1-4.67,5.14H733.12A4.93,4.93,0,0,1,728.45,696.36Z" transform="translate(-689.61 -363.04)"/>
  <path class="cls-2" d="M956.88,444.91H924.13a13.2,13.2,0,0,0-9.76,4.45q-41.11,45.25-82.21,90.49a5.54,5.54,0,0,0,0,7.28q5.22,5.73,10.43,11.48a4.39,4.39,0,0,0,6.61,0l10.44-11.49a7.72,7.72,0,0,1,11.66,0l62.65,69A20.12,20.12,0,0,1,939,629.6v66.76a4.92,4.92,0,0,0,4.67,5.14h13.17a4.93,4.93,0,0,0,4.67-5.14V450.05A4.93,4.93,0,0,0,956.88,444.91ZM937.24,572.29c0,2.61-2.89,3.93-4.57,2.08L889.61,527a7.64,7.64,0,0,1,0-10.06l43.06-47.4c1.68-1.85,4.57-.53,4.57,2.08Z" transform="translate(-689.61 -363.04)"/>
</svg>
