<svg id="Слой_1" data-name="Слой 1" xmlns="http://www.w3.org/2000/svg" width="469.16" height="360.89" viewBox="0 0 469.16 360.89">
  <defs>
    <style>
      .cls-1 {
        fill: none;
      }

      .cls-2 {
        fill: #fff;
        stroke: #fff;
        stroke-miterlimit: 10;
      }
    </style>
  </defs>
  <ellipse class="cls-1" cx="234.58" cy="180.45" rx="331.75" ry="255.19"/>
  <path class="cls-2" d="M1041.91,450.08V636.9a4.91,4.91,0,0,0,4.62,5.14h40.55c4.49,0,8.14,4.07,8.14,9.08v16.49c0,5-3.65,9.08-8.14,9.08H995a4.9,4.9,0,0,0-4.61,5.14v14.49a4.91,4.91,0,0,0,4.61,5.14h117.84a4.91,4.91,0,0,0,4.61-5.14V450.08a4.9,4.9,0,0,0-4.61-5.14h-13a4.91,4.91,0,0,0-4.61,5.14V608.19c0,5-3.65,9.08-8.14,9.08h-14.8c-4.49,0-8.14-4.07-8.14-9.08V450.08a4.91,4.91,0,0,0-4.62-5.14h-13A4.91,4.91,0,0,0,1041.91,450.08Z" transform="translate(-689.61 -363.04)"/>
  <path class="cls-2" d="M730.94,696.32V390.66a4.91,4.91,0,0,1,4.62-5.14h13a4.91,4.91,0,0,1,4.62,5.14V522.93c0,4.35,4.76,6.54,7.51,3.46,40-44.81,82.1-91.6,122.05-136.41a12.91,12.91,0,0,1,9.62-4.46h220.48a4.9,4.9,0,0,1,4.61,5.14v14.49a4.9,4.9,0,0,1-4.61,5.14h-92.08c-4.5,0-8.15,4.07-8.15,9.08V636.9A4.9,4.9,0,0,1,1008,642H995a4.91,4.91,0,0,1-4.61-5.14V419.37c0-5-3.65-9.08-8.14-9.08h-77a16.28,16.28,0,0,0-12.13,5.63c-35.65,40-73.51,82-109.16,122a9.83,9.83,0,0,0,0,12.83C823.9,595,865.64,641.2,905.57,685.46a16.19,16.19,0,0,1,4,10.78v.08a4.9,4.9,0,0,1-4.62,5.14H892a13,13,0,0,1-9.65-4.44L760.7,562.19c-2.77-3.08-7.53-.87-7.53,3.49V696.32a4.91,4.91,0,0,1-4.62,5.14h-13A4.91,4.91,0,0,1,730.94,696.32Z" transform="translate(-689.61 -363.04)"/>
  <path class="cls-2" d="M956.46,444.94H924.13a13,13,0,0,0-9.64,4.45l-81.15,90.46a5.58,5.58,0,0,0,0,7.28q5.16,5.73,10.3,11.47a4.29,4.29,0,0,0,6.53,0l10.3-11.49a7.57,7.57,0,0,1,11.51,0l61.85,68.94a20.31,20.31,0,0,1,5,13.53v66.74a4.9,4.9,0,0,0,4.61,5.14h13a4.91,4.91,0,0,0,4.61-5.14V450.08A4.91,4.91,0,0,0,956.46,444.94ZM937.08,572.28c0,2.61-2.86,3.93-4.51,2.09L890.05,527a7.69,7.69,0,0,1,0-10.05l42.52-47.39c1.65-1.84,4.51-.53,4.51,2.08Z" transform="translate(-689.61 -363.04)"/>
</svg>
