<svg id="Слой_1" data-name="Слой 1" xmlns="http://www.w3.org/2000/svg" width="469.16" height="360.89" viewBox="0 0 469.16 360.89">
  <defs>
    <style>
      .cls-1 {
        fill: none;
      }

      .cls-2 {
        fill: #fff;
        stroke: #fff;
        stroke-miterlimit: 10;
      }
    </style>
  </defs>
  <ellipse class="cls-1" cx="234.58" cy="180.45" rx="331.75" ry="255.19"/>
  <path class="cls-2" d="M1040.17,450.1V636.87c0,2.84,2,5.15,4.55,5.15h39.94c4.43,0,8,4.06,8,9.07v16.49c0,5-3.6,9.07-8,9.07H993.94c-2.5,0-4.54,2.3-4.54,5.14v14.49c0,2.83,2,5.14,4.54,5.14H1110c2.5,0,4.54-2.31,4.54-5.14V450.1c0-2.83-2-5.14-4.54-5.14h-12.81c-2.51,0-4.54,2.31-4.54,5.14V608.18c0,5-3.6,9.07-8,9.07h-14.57c-4.43,0-8-4.06-8-9.07V450.1c0-2.83-2-5.14-4.55-5.14h-12.8C1042.21,445,1040.17,447.27,1040.17,450.1Z" transform="translate(-689.61 -363.04)"/>
  <path class="cls-2" d="M733.8,696.28V390.7c0-2.83,2-5.14,4.55-5.14h12.8c2.51,0,4.55,2.31,4.55,5.14V522.94c0,4.35,4.69,6.54,7.4,3.45C802.46,481.59,844,434.82,883.34,390a12.67,12.67,0,0,1,9.48-4.46H1110c2.5,0,4.54,2.31,4.54,5.14v14.49c0,2.84-2,5.14-4.54,5.14h-90.72c-4.43,0-8,4.06-8,9.07V636.87c0,2.84-2,5.15-4.55,5.15H993.94c-2.5,0-4.54-2.31-4.54-5.15V419.4c0-5-3.59-9.07-8-9.07H905.51a15.93,15.93,0,0,0-12,5.62c-35.12,40-72.42,81.95-107.54,121.93a9.93,9.93,0,0,0,0,12.83l119.8,134.71a16.34,16.34,0,0,1,3.94,10.78v.08c0,2.84-2,5.14-4.54,5.14H892.44a12.73,12.73,0,0,1-9.51-4.44c-39.34-44.27-80.47-90.52-119.81-134.79-2.73-3.08-7.42-.88-7.42,3.49v130.6c0,2.83-2,5.14-4.55,5.14h-12.8C735.84,701.42,733.8,699.11,733.8,696.28Z" transform="translate(-689.61 -363.04)"/>
  <path class="cls-2" d="M956,445H924.13a12.7,12.7,0,0,0-9.49,4.45l-80,90.44a5.64,5.64,0,0,0,0,7.27l10.14,11.48a4.2,4.2,0,0,0,6.43,0l10.16-11.49a7.39,7.39,0,0,1,11.34,0L933.68,616a20.43,20.43,0,0,1,5,13.52v66.72c0,2.83,2,5.14,4.54,5.14H956c2.51,0,4.55-2.31,4.55-5.15V450.11C960.53,447.27,958.49,445,956,445ZM936.89,572.28c0,2.61-2.82,3.92-4.45,2.08L890.56,527a7.79,7.79,0,0,1,0-10.05l41.88-47.38c1.63-1.84,4.45-.53,4.45,2.08Z" transform="translate(-689.61 -363.04)"/>
</svg>
