<svg id="Слой_1" data-name="Слой 1" xmlns="http://www.w3.org/2000/svg" width="469.16" height="360.89" viewBox="0 0 469.16 360.89">
  <defs>
    <style>
      .cls-1 {
        fill: none;
      }

      .cls-2 {
        fill: #fff;
        stroke: #fff;
        stroke-miterlimit: 10;
      }
    </style>
  </defs>
  <ellipse class="cls-1" cx="234.58" cy="180.45" rx="331.75" ry="255.19"/>
  <path class="cls-2" d="M1038.17,450.13V636.85c0,2.83,2,5.14,4.47,5.14h39.26c4.35,0,7.88,4.07,7.88,9.07v16.49c0,5-3.53,9.07-7.88,9.07H992.74c-2.46,0-4.46,2.3-4.46,5.14v14.48c0,2.83,2,5.14,4.46,5.14h114.09c2.47,0,4.47-2.31,4.47-5.14V450.13c0-2.83-2-5.14-4.47-5.14h-12.58c-2.47,0-4.47,2.31-4.47,5.14v158c0,5-3.53,9.07-7.88,9.07h-14.33c-4.35,0-7.88-4.06-7.88-9.07v-158c0-2.83-2-5.14-4.47-5.14h-12.58C1040.17,445,1038.17,447.3,1038.17,450.13Z" transform="translate(-689.61 -363.04)"/>
  <path class="cls-2" d="M737.09,696.24V390.74c0-2.83,2-5.14,4.46-5.14h12.59c2.46,0,4.46,2.31,4.46,5.14v132.2c0,4.35,4.61,6.54,7.28,3.45,38.68-44.78,79.49-91.54,118.17-136.33a12.34,12.34,0,0,1,9.31-4.46h213.47c2.47,0,4.47,2.3,4.47,5.14v14.48c0,2.84-2,5.14-4.47,5.14h-89.15c-4.36,0-7.88,4.06-7.88,9.07V636.85c0,2.83-2,5.14-4.47,5.14H992.74c-2.46,0-4.46-2.31-4.46-5.14V419.43c0-5-3.53-9.07-7.88-9.07H905.83A15.54,15.54,0,0,0,894.09,416c-34.52,40-71.17,81.93-105.69,121.9a10.08,10.08,0,0,0,0,12.83c38.66,44.23,79.08,90.44,117.73,134.67A16.52,16.52,0,0,1,910,696.16v.08c0,2.84-2,5.14-4.47,5.14H893a12.43,12.43,0,0,1-9.34-4.44C845,652.68,804.56,606.44,765.9,562.18c-2.69-3.07-7.3-.87-7.3,3.49V696.24c0,2.83-2,5.14-4.46,5.14H741.55C739.09,701.38,737.09,699.07,737.09,696.24Z" transform="translate(-689.61 -363.04)"/>
  <path class="cls-2" d="M955.43,445h-31.3a12.37,12.37,0,0,0-9.33,4.45l-78.58,90.41a5.72,5.72,0,0,0,0,7.27l10,11.47a4.07,4.07,0,0,0,6.32,0l10-11.49a7.18,7.18,0,0,1,11.14,0L933.52,616a20.67,20.67,0,0,1,4.86,13.51v66.71c0,2.83,2,5.14,4.47,5.14h12.58c2.47,0,4.47-2.31,4.47-5.14V450.13C959.9,447.3,957.9,445,955.43,445ZM936.67,572.27c0,2.61-2.77,3.92-4.37,2.08L891.14,527a7.87,7.87,0,0,1,0-10l41.16-47.37c1.6-1.85,4.37-.53,4.37,2.08Z" transform="translate(-689.61 -363.04)"/>
</svg>
