<svg id="Слой_1" data-name="Слой 1" xmlns="http://www.w3.org/2000/svg" width="469.16" height="360.89" viewBox="0 0 469.16 360.89">
  <defs>
    <style>
      .cls-1 {
        fill: none;
      }

      .cls-2 {
        fill: #fff;
        stroke: #fff;
        stroke-miterlimit: 10;
      }
    </style>
  </defs>
  <ellipse class="cls-1" cx="234.58" cy="180.45" rx="331.75" ry="255.19"/>
  <path class="cls-2" d="M1035.89,450.15V636.83c0,2.83,2,5.14,4.37,5.14h38.48c4.26,0,7.72,4.06,7.72,9.06v16.49c0,5-3.46,9.07-7.72,9.07H991.37c-2.41,0-4.38,2.3-4.38,5.14V696.2c0,2.84,2,5.14,4.38,5.14h111.8c2.41,0,4.38-2.31,4.38-5.14V450.15c0-2.83-2-5.14-4.38-5.14h-12.33c-2.42,0-4.38,2.31-4.38,5.14v158c0,5-3.46,9.06-7.72,9.06h-14c-4.26,0-7.73-4.06-7.73-9.06v-158c0-2.83-2-5.14-4.37-5.14h-12.34C1037.85,445,1035.89,447.32,1035.89,450.15Z" transform="translate(-689.61 -363.04)"/>
  <path class="cls-2" d="M740.84,696.2V390.78c0-2.84,2-5.14,4.38-5.14h12.33c2.41,0,4.38,2.3,4.38,5.14V522.94c0,4.36,4.51,6.54,7.13,3.46C807,481.62,847,434.87,884.85,390.1a12,12,0,0,1,9.13-4.46h209.19c2.41,0,4.38,2.3,4.38,5.14v14.48c0,2.83-2,5.13-4.38,5.13H1015.8c-4.26,0-7.72,4.06-7.72,9.07V636.83c0,2.83-2,5.14-4.38,5.14H991.37c-2.42,0-4.38-2.31-4.38-5.14V419.46c0-5-3.46-9.07-7.72-9.07H906.2A15.09,15.09,0,0,0,894.7,416C860.87,456,825,497.92,791.12,537.88a10.23,10.23,0,0,0,0,12.83L906.53,685.35a16.69,16.69,0,0,1,3.79,10.78v.07c0,2.85-2,5.14-4.37,5.14H893.61a12.1,12.1,0,0,1-9.16-4.44L769.07,562.18c-2.63-3.08-7.14-.87-7.14,3.49V696.2c0,2.84-2,5.14-4.38,5.14H745.22C742.8,701.34,740.84,699,740.84,696.2Z" transform="translate(-689.61 -363.04)"/>
  <path class="cls-2" d="M954.81,445H924.14a12,12,0,0,0-9.15,4.45l-77,90.4a5.78,5.78,0,0,0,0,7.26q4.88,5.75,9.77,11.47a3.93,3.93,0,0,0,6.19,0l9.77-11.48a7,7,0,0,1,10.93,0L933.33,616a20.94,20.94,0,0,1,4.77,13.51V696.2c0,2.84,2,5.14,4.37,5.14h12.34c2.41,0,4.37-2.31,4.37-5.14V450.15C959.18,447.32,957.22,445,954.81,445ZM936.42,572.26c0,2.61-2.71,3.93-4.28,2.08L891.8,527a8,8,0,0,1,0-10l40.34-47.35c1.57-1.85,4.28-.53,4.28,2.08Z" transform="translate(-689.61 -363.04)"/>
</svg>
