<svg id="Слой_1" data-name="Слой 1" xmlns="http://www.w3.org/2000/svg" width="469.16" height="360.89" viewBox="0 0 469.16 360.89">
  <defs>
    <style>
      .cls-1 {
        fill: none;
      }

      .cls-2 {
        fill: #fff;
        stroke: #fff;
        stroke-miterlimit: 10;
      }
    </style>
  </defs>
  <ellipse class="cls-1" cx="234.58" cy="180.45" rx="331.75" ry="255.19"/>
  <path class="cls-2" d="M1033.28,450.17V636.81c0,2.83,1.92,5.14,4.28,5.14h37.57c4.17,0,7.55,4.06,7.55,9.06v16.48c0,5-3.38,9.07-7.55,9.07H989.8c-2.35,0-4.27,2.3-4.27,5.14v14.47c0,2.84,1.92,5.14,4.27,5.14H1099c2.35,0,4.27-2.31,4.27-5.14v-246c0-2.83-1.91-5.14-4.27-5.14h-12c-2.35,0-4.27,2.31-4.27,5.14v158c0,5-3.38,9.07-7.55,9.07h-13.71c-4.16,0-7.54-4.06-7.54-9.07v-158c0-2.83-1.92-5.14-4.28-5.14h-12C1035.2,445,1033.28,447.34,1033.28,450.17Z" transform="translate(-689.61 -363.04)"/>
  <path class="cls-2" d="M745.11,696.17V390.81c0-2.83,1.92-5.14,4.28-5.14h12c2.36,0,4.28,2.31,4.28,5.14V523c0,4.35,4.41,6.54,7,3.45,37-44.76,76.08-91.51,113.1-136.27a11.63,11.63,0,0,1,8.92-4.46H1099c2.35,0,4.27,2.3,4.27,5.14v14.47c0,2.84-1.92,5.14-4.27,5.14h-85.33c-4.17,0-7.55,4.06-7.55,9.07V636.81c0,2.83-1.91,5.14-4.27,5.14H989.8c-2.36,0-4.27-2.31-4.27-5.14V419.49c0-5-3.38-9.07-7.55-9.07H906.62A14.64,14.64,0,0,0,895.38,416c-33,39.95-68.12,81.89-101.16,121.84a10.41,10.41,0,0,0,0,12.82c37,44.22,75.68,90.41,112.68,134.62a17,17,0,0,1,3.71,10.78v.07c0,2.84-1.92,5.14-4.28,5.14h-12a11.7,11.7,0,0,1-8.94-4.44c-37-44.24-75.69-90.46-112.69-134.7-2.57-3.07-7-.87-7,3.49V696.17c0,2.83-1.92,5.14-4.28,5.14h-12C747,701.31,745.11,699,745.11,696.17Z" transform="translate(-689.61 -363.04)"/>
  <path class="cls-2" d="M954.09,445h-30a11.68,11.68,0,0,0-8.94,4.45L840,539.86a5.89,5.89,0,0,0,0,7.26l9.54,11.47a3.79,3.79,0,0,0,6,0l9.55-11.48a6.69,6.69,0,0,1,10.67,0L933.11,616a21.21,21.21,0,0,1,4.66,13.52v66.67c0,2.83,1.92,5.14,4.28,5.14h12c2.36,0,4.28-2.31,4.28-5.14v-246C958.37,447.34,956.45,445,954.09,445Zm-18,127.23c0,2.6-2.64,3.92-4.18,2.07L892.55,527a8.17,8.17,0,0,1,0-10L932,469.6c1.54-1.84,4.18-.53,4.18,2.08Z" transform="translate(-689.61 -363.04)"/>
</svg>
