<svg id="Слой_1" data-name="Слой 1" xmlns="http://www.w3.org/2000/svg" width="469.16" height="360.89" viewBox="0 0 469.16 360.89">
  <defs>
    <style>
      .cls-1 {
        fill: none;
      }

      .cls-2 {
        fill: #fff;
        stroke: #fff;
        stroke-miterlimit: 10;
      }
    </style>
  </defs>
  <ellipse class="cls-1" cx="234.58" cy="180.45" rx="331.75" ry="255.19"/>
  <path class="cls-2" d="M1030.34,450.19v186.6c0,2.83,1.86,5.14,4.16,5.14h36.56c4,0,7.34,4.06,7.34,9.06v16.48c0,5-3.29,9.06-7.34,9.06H988c-2.29,0-4.16,2.31-4.16,5.14v14.47c0,2.84,1.87,5.14,4.16,5.14h106.25c2.29,0,4.16-2.31,4.16-5.14V450.19c0-2.84-1.87-5.14-4.16-5.14h-11.72c-2.3,0-4.16,2.3-4.16,5.14V608.12c0,5-3.29,9.06-7.34,9.06h-13.34c-4,0-7.34-4.06-7.34-9.06V450.19c0-2.84-1.87-5.14-4.16-5.14H1034.5C1032.2,445.05,1030.34,447.35,1030.34,450.19Z" transform="translate(-689.61 -363.04)"/>
  <path class="cls-2" d="M750,696.14V390.84c0-2.83,1.86-5.14,4.16-5.14h11.72c2.29,0,4.16,2.3,4.16,5.14V523c0,4.35,4.29,6.54,6.77,3.45,36-44.75,74-91.49,110-136.24a11.17,11.17,0,0,1,8.67-4.46h198.8c2.29,0,4.16,2.3,4.16,5.14v14.47c0,2.83-1.87,5.13-4.16,5.13h-83c-4,0-7.34,4.06-7.34,9.07V636.79c0,2.83-1.86,5.14-4.16,5.14H988c-2.3,0-4.16-2.31-4.16-5.14V419.51c0-5-3.29-9.07-7.34-9.07H907.09a14.11,14.11,0,0,0-10.93,5.62C864,456,829.88,497.94,797.73,537.88a10.65,10.65,0,0,0,0,12.82c36,44.21,73.64,90.39,109.64,134.6A17.22,17.22,0,0,1,911,696.07v.07c0,2.84-1.86,5.14-4.16,5.14H895.13a11.28,11.28,0,0,1-8.7-4.44c-36-44.23-73.65-90.44-109.65-134.67-2.5-3.07-6.79-.87-6.79,3.49V696.14c0,2.84-1.87,5.14-4.16,5.14H754.11C751.81,701.28,750,699,750,696.14Z" transform="translate(-689.61 -363.04)"/>
  <path class="cls-2" d="M953.29,445.05H924.14a11.25,11.25,0,0,0-8.69,4.44q-36.6,45.19-73.18,90.37a6,6,0,0,0,0,7.26q4.63,5.73,9.28,11.47a3.64,3.64,0,0,0,5.89,0q4.63-5.75,9.29-11.48a6.4,6.4,0,0,1,10.38,0L932.87,616a21.56,21.56,0,0,1,4.54,13.51v66.66c0,2.84,1.86,5.14,4.16,5.14h11.72c2.29,0,4.16-2.31,4.16-5.14V450.19C957.45,447.36,955.58,445.05,953.29,445.05Zm-17.48,127.2c0,2.61-2.57,3.92-4.07,2.08L893.41,527a8.34,8.34,0,0,1,0-10l38.33-47.34c1.5-1.84,4.07-.52,4.07,2.08Z" transform="translate(-689.61 -363.04)"/>
</svg>
