<svg id="Слой_1" data-name="Слой 1" xmlns="http://www.w3.org/2000/svg" width="469.16" height="360.89" viewBox="0 0 469.16 360.89">
  <defs>
    <style>
      .cls-1 {
        fill: none;
      }

      .cls-2 {
        fill: #fff;
        stroke: #fff;
        stroke-miterlimit: 10;
      }
    </style>
  </defs>
  <ellipse class="cls-1" cx="234.58" cy="180.45" rx="331.75" ry="255.19"/>
  <path class="cls-2" d="M1027,450.2V636.78c0,2.83,1.81,5.13,4,5.13h35.42c3.93,0,7.12,4.07,7.12,9.07v16.47c0,5-3.19,9.07-7.12,9.07H986c-2.22,0-4,2.3-4,5.13v14.47c0,2.83,1.81,5.14,4,5.14H1089c2.22,0,4-2.31,4-5.14V450.2c0-2.83-1.81-5.14-4-5.14h-11.36c-2.22,0-4,2.31-4,5.14V608.11c0,5-3.19,9.06-7.12,9.06h-12.92c-3.93,0-7.11-4.06-7.11-9.06V450.2c0-2.83-1.81-5.14-4-5.14h-11.36C1028.83,445.06,1027,447.37,1027,450.2Z" transform="translate(-689.61 -363.04)"/>
  <path class="cls-2" d="M755.39,696.12V390.86c0-2.83,1.8-5.14,4-5.14h11.35c2.22,0,4,2.31,4,5.14V523c0,4.35,4.16,6.53,6.56,3.45,34.9-44.75,71.72-91.48,106.61-136.23a10.78,10.78,0,0,1,8.41-4.46H1089c2.22,0,4,2.3,4,5.14v14.47c0,2.83-1.81,5.14-4,5.14h-80.44c-3.92,0-7.11,4-7.11,9.06V636.78c0,2.83-1.8,5.13-4,5.13H986c-2.23,0-4-2.3-4-5.13V419.53c0-5-3.19-9.06-7.11-9.06H907.63A13.5,13.5,0,0,0,897,416.08c-31.15,39.94-64.22,81.86-95.36,121.81a10.9,10.9,0,0,0,0,12.81c34.88,44.2,71.34,90.38,106.22,134.57a17.66,17.66,0,0,1,3.5,10.78v.07c0,2.84-1.81,5.14-4,5.14H896a10.84,10.84,0,0,1-8.44-4.44L781.38,562.17c-2.42-3.08-6.58-.87-6.58,3.48V696.12c0,2.83-1.81,5.14-4,5.14H759.42C757.19,701.26,755.39,699,755.39,696.12Z" transform="translate(-689.61 -363.04)"/>
  <path class="cls-2" d="M952.38,445.06H924.14a10.77,10.77,0,0,0-8.42,4.45l-70.89,90.35a6.17,6.17,0,0,0,0,7.26l9,11.46a3.45,3.45,0,0,0,5.7,0l9-11.47c2.78-3.53,7.28-3.54,10.06,0l54,68.85A22,22,0,0,1,937,629.47v66.65c0,2.83,1.81,5.14,4,5.14h11.36c2.22,0,4-2.31,4-5.14V450.2C956.41,447.37,954.6,445.06,952.38,445.06ZM935.45,572.25c0,2.6-2.5,3.92-3.94,2.08L894.37,527a8.56,8.56,0,0,1,0-10l37.14-47.33c1.44-1.85,3.94-.53,3.94,2.08Z" transform="translate(-689.61 -363.04)"/>
</svg>
