<svg id="Слой_1" data-name="Слой 1" xmlns="http://www.w3.org/2000/svg" width="469.16" height="360.89" viewBox="0 0 469.16 360.89">
  <defs>
    <style>
      .cls-1 {
        fill: none;
      }

      .cls-2 {
        fill: #fff;
        stroke: #fff;
        stroke-miterlimit: 10;
      }
    </style>
  </defs>
  <ellipse class="cls-1" cx="234.58" cy="180.45" rx="331.75" ry="255.19"/>
  <path class="cls-2" d="M1023.33,450.21V636.77c0,2.83,1.74,5.13,3.88,5.13h34.15c3.78,0,6.86,4.06,6.86,9.06v16.48c0,5-3.07,9.06-6.86,9.06H983.81c-2.14,0-3.88,2.3-3.88,5.13V696.1c0,2.84,1.74,5.14,3.88,5.14h99.24c2.14,0,3.88-2.31,3.88-5.14V450.21c0-2.83-1.74-5.13-3.88-5.13h-11c-2.14,0-3.88,2.3-3.88,5.13V608.1c0,5-3.08,9.06-6.86,9.06H1048.9c-3.78,0-6.86-4-6.86-9.06V450.21c0-2.83-1.74-5.13-3.88-5.13h-11C1025.07,445.08,1023.33,447.38,1023.33,450.21Z" transform="translate(-689.61 -363.04)"/>
  <path class="cls-2" d="M761.45,696.1V390.88c0-2.83,1.74-5.14,3.89-5.14h10.94c2.15,0,3.89,2.31,3.89,5.14V523c0,4.35,4,6.53,6.33,3.45,33.64-44.75,69.14-91.47,102.77-136.21a10.29,10.29,0,0,1,8.11-4.46h185.67c2.14,0,3.88,2.3,3.88,5.14v14.47c0,2.83-1.74,5.13-3.88,5.13H1005.5c-3.78,0-6.85,4.06-6.85,9.06V636.77c0,2.83-1.75,5.13-3.89,5.13h-11c-2.14,0-3.88-2.3-3.88-5.13V419.54c0-5-3.07-9.06-6.86-9.06H908.22c-3.83,0-7.5,2-10.21,5.62C868,456,836.11,498,806.08,537.89a11.23,11.23,0,0,0,0,12.81c33.63,44.2,68.78,90.36,102.4,134.56A18,18,0,0,1,911.88,696v.07c0,2.84-1.74,5.14-3.88,5.14h-11a10.33,10.33,0,0,1-8.13-4.44L786.51,562.16c-2.33-3.07-6.34-.87-6.34,3.49V696.1c0,2.83-1.74,5.14-3.89,5.14H765.34C763.19,701.24,761.45,698.93,761.45,696.1Z" transform="translate(-689.61 -363.04)"/>
  <path class="cls-2" d="M951.36,445.08H924.14a10.31,10.31,0,0,0-8.12,4.44l-68.34,90.34a6.37,6.37,0,0,0,0,7.26l8.67,11.46a3.26,3.26,0,0,0,5.49,0q4.33-5.73,8.68-11.47c2.68-3.54,7-3.54,9.7,0L932.3,616a22.58,22.58,0,0,1,4.23,13.51V696.1c0,2.83,1.74,5.14,3.89,5.14h10.94c2.15,0,3.89-2.31,3.89-5.14V450.21C955.25,447.38,953.51,445.08,951.36,445.08ZM935,572.24c0,2.61-2.4,3.92-3.8,2.08q-17.9-23.66-35.8-47.32a8.82,8.82,0,0,1,0-10l35.8-47.32c1.4-1.85,3.8-.53,3.8,2.07Z" transform="translate(-689.61 -363.04)"/>
</svg>
