<svg id="Слой_1" data-name="Слой 1" xmlns="http://www.w3.org/2000/svg" width="469.16" height="360.89" viewBox="0 0 469.16 360.89">
  <defs>
    <style>
      .cls-1 {
        fill: none;
      }

      .cls-2 {
        fill: #fff;
        stroke: #fff;
        stroke-miterlimit: 10;
      }
    </style>
  </defs>
  <ellipse class="cls-1" cx="234.58" cy="180.45" rx="331.75" ry="255.19"/>
  <path class="cls-2" d="M1019.23,450.22V636.76c0,2.83,1.67,5.13,3.73,5.13h32.73c3.63,0,6.58,4.06,6.58,9.06v16.47c0,5-3,9.07-6.57,9.07H981.35c-2.05,0-3.72,2.3-3.72,5.13v14.47c0,2.83,1.67,5.13,3.72,5.13h95.14c2,0,3.72-2.3,3.72-5.13V450.22c0-2.83-1.67-5.13-3.72-5.13H1066c-2,0-3.72,2.3-3.72,5.13V608.1c0,5-3,9.06-6.57,9.06h-12c-3.63,0-6.57-4.06-6.57-9.06V450.22c0-2.83-1.67-5.13-3.73-5.13H1023C1020.9,445.09,1019.23,447.39,1019.23,450.22Z" transform="translate(-689.61 -363.04)"/>
  <path class="cls-2" d="M768.17,696.09c0-100.43,0-204.78,0-305.2,0-2.83,1.66-5.13,3.72-5.13h10.49c2.06,0,3.73,2.3,3.73,5.13V523c0,4.35,3.84,6.53,6.06,3.45,32.26-44.74,66.29-91.46,98.54-136.2a9.72,9.72,0,0,1,7.77-4.45h178c2,0,3.72,2.3,3.72,5.13v14.47c0,2.83-1.67,5.13-3.72,5.13h-74.35c-3.62,0-6.57,4.06-6.57,9.06V636.76c0,2.83-1.67,5.13-3.72,5.13h-10.5c-2.05,0-3.72-2.3-3.72-5.13V419.55c0-5-2.94-9.06-6.57-9.06H908.88c-3.67,0-7.19,2-9.79,5.62C870.31,456,839.74,498,811,537.89a11.61,11.61,0,0,0,0,12.81l98.17,134.54A18.56,18.56,0,0,1,912.39,696v.08c0,2.84-1.67,5.13-3.72,5.13h-10.5a9.77,9.77,0,0,1-7.79-4.43c-32.24-44.22-65.94-90.41-98.18-134.63-2.24-3.07-6.08-.87-6.08,3.49V696.09c0,2.83-1.67,5.13-3.73,5.13H771.9C769.84,701.22,768.17,698.92,768.17,696.09Z" transform="translate(-689.61 -363.04)"/>
  <path class="cls-2" d="M950.24,445.09h-26.1a9.75,9.75,0,0,0-7.78,4.44l-65.52,90.33a6.6,6.6,0,0,0,0,7.26l8.31,11.46a3.06,3.06,0,0,0,5.27,0l8.32-11.47c2.56-3.54,6.73-3.54,9.3,0L932,616a23.21,23.21,0,0,1,4,13.5v66.64c0,2.83,1.67,5.13,3.73,5.13h10.49c2.06,0,3.73-2.3,3.73-5.13V450.22C954,447.39,952.3,445.09,950.24,445.09ZM934.59,572.24c0,2.61-2.3,3.92-3.64,2.08L896.63,527a9.11,9.11,0,0,1,0-10L931,469.64c1.34-1.84,3.64-.53,3.64,2.08Z" transform="translate(-689.61 -363.04)"/>
</svg>
