<svg id="Слой_1" data-name="Слой 1" xmlns="http://www.w3.org/2000/svg" width="469.16" height="360.89" viewBox="0 0 469.16 360.89">
  <defs>
    <style>
      .cls-1 {
        fill: none;
      }

      .cls-2 {
        fill: #fff;
        stroke: #fff;
        stroke-miterlimit: 10;
      }
    </style>
  </defs>
  <ellipse class="cls-1" cx="234.58" cy="180.45" rx="331.75" ry="255.19"/>
  <path class="cls-2" d="M1013.11,450.22V636.75c0,2.83,1.57,5.14,3.49,5.14h30.63c3.39,0,6.15,4.06,6.15,9.06v16.47c0,5-2.76,9.06-6.15,9.06H977.67c-1.92,0-3.48,2.3-3.48,5.13v14.47c0,2.83,1.56,5.13,3.48,5.13h89c1.92,0,3.48-2.3,3.48-5.13V450.22c0-2.83-1.56-5.13-3.48-5.13h-9.82c-1.92,0-3.48,2.3-3.48,5.13V608.09c0,5-2.76,9.06-6.15,9.06h-11.18c-3.39,0-6.15-4-6.15-9.06V450.22c0-2.82-1.56-5.13-3.48-5.13h-9.82C1014.68,445.09,1013.11,447.39,1013.11,450.22Z" transform="translate(-689.61 -363.04)"/>
  <path class="cls-2" d="M778.22,696.08V390.9c0-2.83,1.56-5.13,3.49-5.13h9.81c1.93,0,3.49,2.3,3.49,5.13V523c0,4.35,3.59,6.53,5.68,3.45,30.17-44.74,62-91.45,92.18-136.19,1.93-2.85,4.54-4.45,7.27-4.45h166.54c1.92,0,3.48,2.3,3.48,5.13v14.47c0,2.83-1.56,5.13-3.48,5.13H997.12c-3.39,0-6.14,4.06-6.14,9.06V636.75c0,2.83-1.57,5.14-3.49,5.14h-9.82c-1.92,0-3.48-2.31-3.48-5.14V419.56c0-5-2.76-9.06-6.15-9.06H909.87c-3.44,0-6.73,2-9.16,5.61-26.93,39.94-55.53,81.84-82.46,121.78a12.3,12.3,0,0,0,0,12.81c30.16,44.19,61.69,90.35,91.85,134.53a19.54,19.54,0,0,1,3,10.78v.07c0,2.84-1.56,5.13-3.48,5.13h-9.82c-2.74,0-5.36-1.59-7.3-4.43-30.16-44.22-61.69-90.41-91.85-134.62-2.1-3.07-5.69-.87-5.69,3.49V696.08c0,2.83-1.56,5.13-3.49,5.13h-9.81C779.78,701.21,778.22,698.91,778.22,696.08Z" transform="translate(-689.61 -363.04)"/>
  <path class="cls-2" d="M948.57,445.09H924.15c-2.73,0-5.35,1.6-7.29,4.44l-61.3,90.33a7,7,0,0,0,0,7.26l7.78,11.46a2.78,2.78,0,0,0,4.93,0l7.78-11.47c2.4-3.54,6.3-3.54,8.7,0l46.72,68.83a24.4,24.4,0,0,1,3.79,13.5v66.64c0,2.83,1.56,5.13,3.49,5.13h9.81c1.93,0,3.49-2.3,3.49-5.13V450.22C952.05,447.4,950.49,445.09,948.57,445.09ZM933.92,572.24c0,2.6-2.15,3.92-3.4,2.08L898.41,527a9.64,9.64,0,0,1,0-10l32.11-47.31c1.25-1.85,3.4-.53,3.4,2.07Z" transform="translate(-689.61 -363.04)"/>
</svg>
