<svg id="Слой_1" data-name="Слой 1" xmlns="http://www.w3.org/2000/svg" width="469.16" height="360.89" viewBox="0 0 469.16 360.89">
  <defs>
    <style>
      .cls-1 {
        fill: none;
      }

      .cls-2 {
        fill: #fff;
        stroke: #fff;
        stroke-miterlimit: 10;
      }
    </style>
  </defs>
  <ellipse class="cls-1" cx="234.58" cy="180.45" rx="331.75" ry="255.19"/>
  <path class="cls-2" d="M1002.51,450.23V636.75c0,2.83,1.38,5.14,3.07,5.14h27c3,0,5.42,4.06,5.42,9.05v16.47c0,5-2.43,9.06-5.42,9.06H971.29c-1.69,0-3.06,2.3-3.06,5.14v14.46c0,2.84,1.37,5.14,3.06,5.14h78.4c1.69,0,3.07-2.31,3.07-5.14V450.23c0-2.83-1.38-5.14-3.07-5.14H1041c-1.69,0-3.07,2.31-3.07,5.14V608.09c0,5-2.43,9.06-5.42,9.06h-9.84c-3,0-5.42-4.06-5.42-9.06V450.23c0-2.83-1.37-5.14-3.06-5.14h-8.65C1003.88,445.09,1002.51,447.4,1002.51,450.23Z" transform="translate(-689.61 -363.04)"/>
  <path class="cls-2" d="M795.63,696.07V390.9c0-2.83,1.38-5.13,3.07-5.13h8.65c1.69,0,3.07,2.3,3.07,5.13V523c0,4.35,3.16,6.53,5,3.45C842,481.67,870,435,896.61,390.22c1.69-2.85,4-4.45,6.4-4.45h146.68c1.69,0,3.07,2.3,3.07,5.13v14.47c0,2.83-1.38,5.13-3.07,5.13H988.43c-3,0-5.42,4.06-5.42,9.06V636.75c0,2.83-1.37,5.14-3.07,5.14h-8.65c-1.69,0-3.06-2.31-3.06-5.14V419.56c0-5-2.43-9.06-5.42-9.06H911.58c-3,0-5.93,2-8.07,5.62-23.72,39.93-48.9,81.83-72.62,121.77a13.72,13.72,0,0,0,0,12.81c26.56,44.19,54.33,90.35,80.9,134.53A21.53,21.53,0,0,1,914.47,696v.07c0,2.84-1.38,5.14-3.07,5.14h-8.65c-2.41,0-4.72-1.6-6.42-4.44-26.57-44.21-54.34-90.4-80.9-134.61-1.85-3.07-5-.87-5,3.49V696.07c0,2.83-1.38,5.14-3.07,5.14H798.7C797,701.21,795.63,698.9,795.63,696.07Z" transform="translate(-689.61 -363.04)"/>
  <path class="cls-2" d="M945.66,445.09H924.15c-2.4,0-4.71,1.6-6.41,4.44l-54,90.33a7.77,7.77,0,0,0,0,7.26q3.42,5.73,6.85,11.46c1.2,2,3.14,2,4.34,0l6.85-11.47c2.12-3.54,5.55-3.54,7.66,0l41.15,68.83a26.89,26.89,0,0,1,3.34,13.5v66.63c0,2.83,1.38,5.14,3.07,5.14h8.65c1.69,0,3.07-2.31,3.07-5.14V450.23C948.73,447.4,947.35,445.09,945.66,445.09Zm-12.9,127.15c0,2.6-1.9,3.92-3,2.08Q915.63,550.65,901.48,527a10.8,10.8,0,0,1,0-10q14.14-23.66,28.28-47.31c1.1-1.85,3-.53,3,2.07Z" transform="translate(-689.61 -363.04)"/>
</svg>
