<svg id="Слой_1" data-name="Слой 1" xmlns="http://www.w3.org/2000/svg" width="469.16" height="360.89" viewBox="0 0 469.16 360.89">
  <defs>
    <style>
      .cls-1 {
        fill: none;
      }

      .cls-2 {
        fill: #fff;
        stroke: #fff;
        stroke-miterlimit: 10;
      }
    </style>
  </defs>
  <ellipse class="cls-1" cx="234.58" cy="180.45" rx="331.75" ry="255.19"/>
  <path class="cls-2" d="M985.8,450.23V636.75c0,2.83,1.08,5.14,2.41,5.14h21.22c2.35,0,4.26,4.06,4.26,9.06v16.46c0,5-1.91,9.07-4.26,9.07H961.24c-1.33,0-2.41,2.3-2.41,5.13v14.47c0,2.83,1.08,5.13,2.41,5.13h61.67c1.33,0,2.41-2.31,2.41-5.13V450.23c0-2.83-1.08-5.14-2.41-5.14h-6.8c-1.33,0-2.42,2.31-2.42,5.14V608.09c0,5-1.91,9.06-4.26,9.06h-7.74c-2.35,0-4.26-4-4.26-9.06V450.23c0-2.83-1.08-5.14-2.41-5.14h-6.81C986.88,445.09,985.8,447.4,985.8,450.23Z" transform="translate(-689.61 -363.04)"/>
  <path class="cls-2" d="M823.06,696.08V390.9c0-2.83,1.08-5.13,2.42-5.13h6.8c1.33,0,2.41,2.3,2.41,5.13V523c0,4.35,2.49,6.54,3.93,3.45,20.91-44.74,43-91.45,63.87-136.19,1.34-2.85,3.15-4.45,5-4.45h115.38c1.33,0,2.41,2.3,2.41,5.13v14.47c0,2.83-1.08,5.13-2.41,5.13H974.72c-2.35,0-4.26,4.06-4.26,9.06V636.75c0,2.83-1.08,5.14-2.41,5.14h-6.81c-1.33,0-2.41-2.31-2.41-5.14V419.56c0-5-1.91-9.06-4.26-9.06h-40.3c-2.38,0-4.67,2-6.35,5.62C889.27,456.05,869.45,498,850.8,537.89a17.1,17.1,0,0,0,0,12.81l63.64,134.53A26.24,26.24,0,0,1,916.54,696v.08c0,2.84-1.08,5.13-2.41,5.13h-6.81c-1.89,0-3.71-1.6-5.05-4.43-20.89-44.22-42.74-90.41-63.64-134.62-1.45-3.07-3.94-.87-3.94,3.49V696.08c0,2.83-1.08,5.13-2.41,5.13h-6.8C824.14,701.21,823.06,698.91,823.06,696.08Z" transform="translate(-689.61 -363.04)"/>
  <path class="cls-2" d="M941.08,445.09H924.16c-1.89,0-3.71,1.6-5,4.45q-21.24,45.16-42.47,90.32a9.6,9.6,0,0,0,0,7.26L882,558.58c1,2,2.48,2,3.42,0q2.68-5.73,5.39-11.47c1.66-3.54,4.36-3.54,6,0q16.17,34.41,32.36,68.83a32.72,32.72,0,0,1,2.63,13.5v66.64c0,2.83,1.08,5.13,2.42,5.13h6.8c1.33,0,2.41-2.31,2.41-5.13V450.23C943.49,447.4,942.41,445.09,941.08,445.09ZM930.93,572.24c0,2.6-1.49,3.92-2.35,2.08Q917.45,550.65,906.33,527a13.32,13.32,0,0,1,0-10q11.11-23.66,22.25-47.31c.86-1.85,2.35-.53,2.35,2.08Z" transform="translate(-689.61 -363.04)"/>
</svg>
