<svg id="Слой_1" data-name="Слой 1" xmlns="http://www.w3.org/2000/svg" width="469.16" height="360.89" viewBox="0 0 469.16 360.89">
  <defs>
    <style>
      .cls-1 {
        fill: none;
      }

      .cls-2 {
        fill: #fff;
        stroke: #fff;
        stroke-miterlimit: 10;
      }
    </style>
  </defs>
  <ellipse class="cls-1" cx="234.58" cy="180.45" rx="331.75" ry="255.19"/>
  <path class="cls-2" d="M961.07,450.23V636.75c0,2.83.64,5.14,1.44,5.14h12.7c1.41,0,2.55,4.06,2.55,9.05v16.47c0,5-1.14,9.06-2.55,9.06H946.37c-.8,0-1.45,2.3-1.45,5.14v14.46c0,2.84.65,5.14,1.45,5.14h36.91c.79,0,1.44-2.31,1.44-5.14V450.23c0-2.83-.64-5.14-1.44-5.14h-4.07c-.8,0-1.45,2.31-1.45,5.14V608.09c0,5-1.14,9.06-2.55,9.06h-4.63c-1.41,0-2.55-4.06-2.55-9.06V450.23c0-2.83-.65-5.14-1.45-5.14h-4.07C961.71,445.09,961.07,447.4,961.07,450.23Z" transform="translate(-689.61 -363.04)"/>
  <path class="cls-2" d="M863.66,696.07V390.9c0-2.83.65-5.13,1.45-5.13h4.07c.8,0,1.44,2.3,1.44,5.13V523c0,4.35,1.49,6.53,2.36,3.45,12.51-44.74,25.71-91.45,38.23-136.19.79-2.85,1.88-4.45,3-4.45h69.06c.79,0,1.44,2.3,1.44,5.13v14.47c0,2.83-.65,5.13-1.44,5.13H954.44c-1.41,0-2.55,4.06-2.55,9.06V636.75c0,2.83-.65,5.14-1.45,5.14h-4.07c-.8,0-1.45-2.31-1.45-5.14V419.56c0-5-1.14-9.06-2.54-9.06H918.25c-1.42,0-2.79,2-3.8,5.62-11.16,39.93-23,81.83-34.19,121.77a27.86,27.86,0,0,0,0,12.81l38.09,134.53A42,42,0,0,1,919.61,696v.07c0,2.84-.64,5.14-1.44,5.14H914.1c-1.14,0-2.22-1.6-3-4.44-12.5-44.21-25.58-90.4-38.09-134.61-.87-3.07-2.36-.87-2.36,3.49V696.07c0,2.83-.64,5.14-1.44,5.14h-4.07C864.31,701.21,863.66,698.9,863.66,696.07Z" transform="translate(-689.61 -363.04)"/>
  <path class="cls-2" d="M934.3,445.09H924.17c-1.13,0-2.21,1.6-3,4.44q-12.71,45.18-25.42,90.33a15.9,15.9,0,0,0,0,7.26q1.62,5.73,3.23,11.46c.56,2,1.48,2,2,0q1.62-5.73,3.23-11.47c1-3.54,2.61-3.54,3.61,0q9.67,34.41,19.37,68.83a52.37,52.37,0,0,1,1.57,13.5v66.63c0,2.83.65,5.14,1.45,5.14h4.07c.8,0,1.44-2.31,1.44-5.14V450.23C935.74,447.4,935.1,445.09,934.3,445.09Zm-6.07,127.15c0,2.6-.9,3.92-1.41,2.08L913.5,527a21.83,21.83,0,0,1,0-10l13.32-47.31c.51-1.85,1.41-.53,1.41,2.07Z" transform="translate(-689.61 -363.04)"/>
</svg>
