<svg id="Слой_1" data-name="Слой 1" xmlns="http://www.w3.org/2000/svg" width="469.16" height="360.89" viewBox="0 0 469.16 360.89">
  <defs>
    <style>
      .cls-1 {
        fill: none;
      }

      .cls-2 {
        fill: #fff;
        stroke: #fff;
        stroke-miterlimit: 10;
      }
    </style>
  </defs>
  <ellipse class="cls-1" cx="234.58" cy="180.45" rx="331.75" ry="255.19"/>
  <path class="cls-2" d="M922.35,558.58c-.08-3.82-.15-7.64-.23-11.46,0-2,0-5.26,0-7.26q.93-45.17,1.85-90.33a31.69,31.69,0,0,1,.22-4.44h.74c.06,0,.1,2.31.1,5.14V696.07c0,2.83,0,5.14-.1,5.14h-.3c-.06,0-.1-2.31-.1-5.14V629.44c0-5.06,0-9.92-.12-13.5L923,547.11c-.07-3.54-.19-3.54-.26,0l-.24,11.47C922.46,560.58,922.39,560.58,922.35,558.58Z" transform="translate(-689.61 -363.04)"/>
  <path class="cls-2" d="M926.88,450.23V636.75c0,2.83,0,5.14.11,5.14h.92c.11,0,.19,4.06.19,9.05v16.47c0,5-.08,9.06-.19,9.06h-2.1c-.06,0-.11,2.3-.11,5.14v14.46c0,2.84,0,5.14.11,5.14h2.69c.06,0,.11-2.31.11-5.14V450.23c0-2.83-.05-5.14-.11-5.14h-.3c-.05,0-.1,2.31-.1,5.14V608.09c0,5-.08,9.06-.19,9.06h-.34c-.1,0-.18-4.06-.18-9.06V450.23c0-2.83,0-5.14-.11-5.14H927C926.93,445.09,926.88,447.4,926.88,450.23Z" transform="translate(-689.61 -363.04)"/>
  <path class="cls-2" d="M919.78,696.07V390.9c0-2.83.05-5.13.11-5.13h.29c.06,0,.11,2.3.11,5.13V523c0,4.35.11,6.53.17,3.45.91-44.74,1.87-91.45,2.79-136.19a28.28,28.28,0,0,1,.22-4.45h5c.06,0,.11,2.3.11,5.13v14.47c0,2.83-.05,5.13-.11,5.13h-2.1c-.1,0-.19,4.06-.19,9.06V636.75c0,2.83-.05,5.14-.1,5.14h-.3c-.06,0-.11-2.31-.11-5.14V419.56c0-5-.08-9.06-.18-9.06h-1.76a40.9,40.9,0,0,0-.28,5.62c-.81,39.93-1.68,81.83-2.49,121.77-.07,3.54-.07,9.28,0,12.81.91,44.19,1.86,90.35,2.78,134.53.06,2.84.09,6.75.09,10.77v.07c0,2.84-.05,5.14-.11,5.14h-.29a28.2,28.2,0,0,1-.22-4.44c-.92-44.21-1.87-90.4-2.78-134.61-.06-3.07-.17-.87-.17,3.49V696.07c0,2.83,0,5.14-.11,5.14h-.3S919.78,698.9,919.78,696.07Z" transform="translate(-689.61 -363.04)"/>
  <path class="cls-2" d="M923.41,527q.5,23.65,1,47.31c0,1.85.11.53.11-2.07V471.73c0-2.61-.07-3.93-.11-2.08q-.48,23.66-1,47.31C923.36,519.73,923.36,524.23,923.41,527Z" transform="translate(-689.61 -363.04)"/>
</svg>
