<svg id="Слой_1" data-name="Слой 1" xmlns="http://www.w3.org/2000/svg" width="469.16" height="360.89" viewBox="0 0 469.16 360.89">
  <defs>
    <style>
      .cls-1 {
        fill: none;
      }

      .cls-2 {
        fill: #fff;
        stroke: #fff;
        stroke-miterlimit: 10;
      }
    </style>
  </defs>
  <ellipse class="cls-1" cx="234.58" cy="180.45" rx="331.75" ry="255.19"/>
  <path class="cls-2" d="M954.16,636.76V419.45c0-5,1.24-9,2.75-9H970.7c.85,0,1.55-2.27,1.55-5.07V390.9c0-2.8-.7-5.08-1.55-5.08h-40c-.86,0-1.55,2.28-1.55,5.08v14.48c0,2.8.69,5.07,1.55,5.07h13.19c1.51,0,2.74,4,2.74,9V636.76c0,2.8.69,5.07,1.54,5.07h4.42C953.47,641.83,954.16,639.56,954.16,636.76Z" transform="translate(-689.61 -363.04)"/>
  <path class="cls-2" d="M876.14,644V443c0-31.53,7.81-57.15,17.42-57.15H917c.88,0,1.59,2.28,1.59,5.08v14.48c0,2.79-.71,5.07-1.59,5.07h-23.5c-5.45,0-9.87,14.52-9.87,32.38V644.15c0,17.86,4.42,32.38,9.87,32.38h61.35c5.44,0,9.87-14.52,9.87-32.38V450.27c0-2.83.69-5.13,1.55-5.13h4.41c.85,0,1.55,2.3,1.55,5.13,0,64.39,0,130.7,0,193.74,0,31.53-7.8,57.15-17.41,57.15H893.56C884,701.16,876.14,675.54,876.14,644Z" transform="translate(-689.61 -363.04)"/>
  <path class="cls-2" d="M894.22,636.76V450.22c0-2.8.69-5.08,1.55-5.08h4.41c.85,0,1.55,2.28,1.55,5.08V636.76c0,2.8-.7,5.07-1.55,5.07h-4.41C894.91,641.83,894.22,639.56,894.22,636.76Z" transform="translate(-689.61 -363.04)"/>
  <path class="cls-2" d="M936.56,446.77q-12.19,40-24.37,79.93c-.18.59-.49.17-.49-.67V499.72A38.21,38.21,0,0,1,913,489.09q6-19.77,12.05-39.54c.86-2.82,2-4.41,3.24-4.41h8C936.61,445.14,936.74,446.17,936.56,446.77Z" transform="translate(-689.61 -363.04)"/>
  <path class="cls-2" d="M913,597.89q6,19.77,12.05,39.54c.86,2.82,2,4.4,3.24,4.4h8c.26,0,.39-1,.21-1.62q-12.19-40-24.37-79.93c-.18-.6-.49-.17-.49.67v26.31A38.26,38.26,0,0,0,913,597.89Z" transform="translate(-689.61 -363.04)"/>
</svg>
