<svg id="Слой_1" data-name="Слой 1" xmlns="http://www.w3.org/2000/svg" width="469.16" height="360.89" viewBox="0 0 469.16 360.89">
  <defs>
    <style>
      .cls-1 {
        fill: none;
      }

      .cls-2 {
        fill: #fff;
        stroke: #fff;
        stroke-miterlimit: 10;
      }
    </style>
  </defs>
  <ellipse class="cls-1" cx="234.58" cy="180.45" rx="331.75" ry="255.19"/>
  <path class="cls-2" d="M987.48,636.76V419.45c0-5,2.59-9,5.79-9h29.12c1.8,0,3.27-2.27,3.27-5.07V390.9c0-2.8-1.47-5.08-3.27-5.08H938c-1.8,0-3.27,2.28-3.27,5.08v14.48c0,2.8,1.47,5.07,3.27,5.07h27.85c3.19,0,5.79,4,5.79,9V636.76c0,2.8,1.46,5.07,3.27,5.07h9.31C986,641.83,987.48,639.56,987.48,636.76Z" transform="translate(-689.61 -363.04)"/>
  <path class="cls-2" d="M822.73,644V443c0-31.53,16.49-57.15,36.78-57.15h49.55c1.84,0,3.34,2.28,3.34,5.08v14.48c0,2.79-1.5,5.07-3.34,5.07H859.42c-11.5,0-20.84,14.52-20.84,32.38V644.15c0,17.86,9.34,32.38,20.84,32.38H989c11.49,0,20.84-14.52,20.84-32.38V450.27c0-2.83,1.46-5.13,3.26-5.13h9.32c1.8,0,3.27,2.3,3.27,5.13,0,64.39,0,130.7,0,193.74,0,31.53-16.48,57.15-36.77,57.15H859.51C839.21,701.16,822.73,675.54,822.73,644Z" transform="translate(-689.61 -363.04)"/>
  <path class="cls-2" d="M860.9,636.76q0-93.28,0-186.54c0-2.8,1.46-5.08,3.26-5.08h9.32c1.8,0,3.27,2.28,3.27,5.08V636.76c0,2.8-1.47,5.07-3.27,5.07h-9.32C862.37,641.83,860.9,639.56,860.9,636.76Z" transform="translate(-689.61 -363.04)"/>
  <path class="cls-2" d="M950.3,446.77,898.86,526.7c-.38.59-1.05.17-1.05-.67V499.72a19.91,19.91,0,0,1,2.84-10.63l25.44-39.54c1.81-2.82,4.28-4.41,6.84-4.41h16.93C950.41,445.14,950.68,446.17,950.3,446.77Z" transform="translate(-689.61 -363.04)"/>
  <path class="cls-2" d="M900.65,597.89l25.44,39.54c1.81,2.82,4.28,4.4,6.84,4.4h16.93c.55,0,.82-1,.44-1.62l-51.44-79.93c-.38-.6-1.05-.17-1.05.67v26.31A19.93,19.93,0,0,0,900.65,597.89Z" transform="translate(-689.61 -363.04)"/>
</svg>
