<svg id="Слой_1" data-name="Слой 1" xmlns="http://www.w3.org/2000/svg" width="469.16" height="360.89" viewBox="0 0 469.16 360.89">
  <defs>
    <style>
      .cls-1 {
        fill: none;
      }

      .cls-2 {
        fill: #fff;
        stroke: #fff;
        stroke-miterlimit: 10;
      }
    </style>
  </defs>
  <ellipse class="cls-1" cx="234.58" cy="180.45" rx="331.75" ry="255.19"/>
  <path class="cls-2" d="M1012.23,636.76V419.45c0-5,3.62-9,8.06-9h40.51a4.83,4.83,0,0,0,4.55-5.07V390.9a4.84,4.84,0,0,0-4.55-5.08H943.38a4.84,4.84,0,0,0-4.54,5.08v14.48a4.83,4.83,0,0,0,4.54,5.07h38.75c4.44,0,8.06,4,8.06,9,0,71.78,0,145.53,0,217.31a4.84,4.84,0,0,0,4.55,5.08h13A4.83,4.83,0,0,0,1012.23,636.76Z" transform="translate(-689.61 -363.04)"/>
  <path class="cls-2" d="M783,644V443c0-31.53,22.94-57.15,51.17-57.15h68.92a4.88,4.88,0,0,1,4.65,5.08v14.48a4.88,4.88,0,0,1-4.65,5.07h-69c-16,0-29,14.52-29,32.38V644.15c0,17.86,13,32.38,29,32.38H1014.3c16,0,29-14.52,29-32.38V450.27a4.86,4.86,0,0,1,4.55-5.12h13a4.85,4.85,0,0,1,4.54,5.12V644c0,31.53-22.93,57.15-51.16,57.15h-180C806,701.16,783,675.54,783,644Z" transform="translate(-689.61 -363.04)"/>
  <path class="cls-2" d="M836.15,636.76V450.22a4.83,4.83,0,0,1,4.54-5.07h13a4.84,4.84,0,0,1,4.54,5.07V636.76a4.84,4.84,0,0,1-4.55,5.08h-13A4.84,4.84,0,0,1,836.15,636.76Z" transform="translate(-689.61 -363.04)"/>
  <path class="cls-2" d="M960.51,446.77,889,526.7a.85.85,0,0,1-1.46-.67V499.72a15.94,15.94,0,0,1,4-10.63q17.7-19.77,35.4-39.54a12.76,12.76,0,0,1,9.51-4.4h23.56A1,1,0,0,1,960.51,446.77Z" transform="translate(-689.61 -363.04)"/>
  <path class="cls-2" d="M891.44,597.89l35.39,39.54a12.81,12.81,0,0,0,9.52,4.41h23.56a1,1,0,0,0,.6-1.63L889,560.28a.85.85,0,0,0-1.46.67v26.31A15.94,15.94,0,0,0,891.44,597.89Z" transform="translate(-689.61 -363.04)"/>
</svg>
