<svg id="Слой_1" data-name="Слой 1" xmlns="http://www.w3.org/2000/svg" width="469.16" height="360.89" viewBox="0 0 469.16 360.89">
  <defs>
    <style>
      .cls-1 {
        fill: none;
      }

      .cls-2 {
        fill: #fff;
        stroke: #fff;
        stroke-miterlimit: 10;
      }
    </style>
  </defs>
  <ellipse class="cls-1" cx="234.58" cy="180.45" rx="331.75" ry="255.19"/>
  <path class="cls-2" d="M1021.72,636.76V419.45a9,9,0,0,1,8.92-9h44.87a5.06,5.06,0,0,0,5-5.07V390.9a5.07,5.07,0,0,0-5-5.08H945.45a5.06,5.06,0,0,0-5,5.08v14.48a5.06,5.06,0,0,0,5,5.07h42.91a9,9,0,0,1,8.93,9V636.76a5.06,5.06,0,0,0,5,5.07h14.36A5.06,5.06,0,0,0,1021.72,636.76Z" transform="translate(-689.61 -363.04)"/>
  <path class="cls-2" d="M767.84,644V443c0-31.53,25.4-57.15,56.68-57.15h76.35A5.12,5.12,0,0,1,906,390.9v14.48a5.12,5.12,0,0,1-5.15,5.07H824.38a32.27,32.27,0,0,0-32.11,32.38c0,65.79,0,135.52,0,201.32a32.28,32.28,0,0,0,32.12,32.38H1024a32.27,32.27,0,0,0,32.11-32.38V450.27a5.09,5.09,0,0,1,5-5.13h14.36a5.09,5.09,0,0,1,5,5.13V644c0,31.53-25.41,57.15-56.68,57.15H824.51C793.24,701.16,767.84,675.54,767.84,644Z" transform="translate(-689.61 -363.04)"/>
  <path class="cls-2" d="M826.67,636.76V450.22a5.06,5.06,0,0,1,5-5.08h14.36a5.06,5.06,0,0,1,5,5.08V636.76a5,5,0,0,1-5,5.07H831.7A5,5,0,0,1,826.67,636.76Z" transform="translate(-689.61 -363.04)"/>
  <path class="cls-2" d="M964.42,446.77q-39.64,40-79.27,79.93a1,1,0,0,1-1.61-.67V499.72a15.06,15.06,0,0,1,4.37-10.63l39.21-39.54a14.84,14.84,0,0,1,10.54-4.41h26.09A1,1,0,0,1,964.42,446.77Z" transform="translate(-689.61 -363.04)"/>
  <path class="cls-2" d="M887.91,597.89l39.21,39.54a14.83,14.83,0,0,0,10.54,4.4h26.09a1,1,0,0,0,.67-1.62l-79.27-79.93a.94.94,0,0,0-1.61.67v26.31A15.08,15.08,0,0,0,887.91,597.89Z" transform="translate(-689.61 -363.04)"/>
</svg>
