<svg id="Слой_1" data-name="Слой 1" xmlns="http://www.w3.org/2000/svg" width="469.16" height="360.89" viewBox="0 0 469.16 360.89">
  <defs>
    <style>
      .cls-1 {
        fill: none;
      }

      .cls-2 {
        fill: #fff;
        stroke: #fff;
        stroke-miterlimit: 10;
      }
    </style>
  </defs>
  <ellipse class="cls-1" cx="234.58" cy="180.45" rx="331.75" ry="255.19"/>
  <path class="cls-2" d="M1022.54,636.76V419.45a9,9,0,0,1,9-9h45.25a5.07,5.07,0,0,0,5.07-5.07V390.9a5.09,5.09,0,0,0-5.07-5.08H945.63a5.09,5.09,0,0,0-5.08,5.08v14.48a5.08,5.08,0,0,0,5.08,5.07H988.9a9,9,0,0,1,9,9V636.76a5.07,5.07,0,0,0,5.07,5.07h14.48A5.08,5.08,0,0,0,1022.54,636.76Z" transform="translate(-689.61 -363.04)"/>
  <path class="cls-2" d="M766.52,644V443a57.19,57.19,0,0,1,57.16-57.15h77a5.14,5.14,0,0,1,5.19,5.08v14.48a5.14,5.14,0,0,1-5.19,5.07H823.54a32.41,32.41,0,0,0-32.39,32.38V644.15a32.41,32.41,0,0,0,32.39,32.38h201.31a32.4,32.4,0,0,0,32.38-32.38V450.27a5.11,5.11,0,0,1,5.08-5.13h14.48a5.11,5.11,0,0,1,5.07,5.13V644a57.19,57.19,0,0,1-57.15,57.15h-201A57.19,57.19,0,0,1,766.52,644Z" transform="translate(-689.61 -363.04)"/>
  <path class="cls-2" d="M825.85,636.76V450.22a5.08,5.08,0,0,1,5.07-5.08H845.4a5.09,5.09,0,0,1,5.08,5.08V636.76a5.08,5.08,0,0,1-5.08,5.07H830.92A5.07,5.07,0,0,1,825.85,636.76Z" transform="translate(-689.61 -363.04)"/>
  <path class="cls-2" d="M964.76,446.77,884.82,526.7a1,1,0,0,1-1.62-.67V499.72a15,15,0,0,1,4.4-10.63l39.54-39.54a15.05,15.05,0,0,1,10.63-4.41h26.32A1,1,0,0,1,964.76,446.77Z" transform="translate(-689.61 -363.04)"/>
  <path class="cls-2" d="M887.6,597.89l39.54,39.54a15,15,0,0,0,10.63,4.4h26.32a1,1,0,0,0,.67-1.62l-79.94-79.93a1,1,0,0,0-1.62.67v26.31A15,15,0,0,0,887.6,597.89Z" transform="translate(-689.61 -363.04)"/>
</svg>
