<svg id="general" xmlns="http://www.w3.org/2000/svg" width="1440.296" height="1032.5" viewBox="0 0 17437 12500">
  <defs>
    <style>
      .cls-1 {
        fill: #944a71;
        fill-rule: evenodd;
      }
    </style>
  </defs>
  <path id="описание_англиский" data-name="описание англиский" class="cls-1" d="M3147.13,698.3l120.82-455.031L3389.6,698.3h129.95L3667.35,89.65H3543.21L3449.8,514.788,3343.51,89.65H3197.37L3085.69,507.73,2993.93,89.65h-125.8L3013.45,698.3h133.68Zm763.52-77.222q-41.115,0-67.89-29.062t-28.43-80.959h292.7v-11.21q0-124.96-55.85-188.489t-153.4-63.522q-87.615,0-144.9,62.069-57.3,62.072-57.3,171.674,0,104.216,55.02,165.655t158.39,61.446q144.885,0,191.81-131.195l-116.25-19.514q-18.27,63.114-73.9,63.107h0Zm-93.83-181.431v-2.907q0-44.838,24.7-72.24t62.9-27.4q35.7,0,60.41,26.363,24.69,26.37,26.36,76.185H3816.82ZM4318.77,698.3V89.65H4202.1V698.3h116.67Zm436.14-416.212q-47.55-34.253-128.5-34.252-98.805,0-156.1,60.616t-57.3,169.806q0,107.952,57.3,169.183,57.285,61.245,154.44,61.239,167.73,0,203.86-159.842L4714.02,528.9q-8.31,46.084-29.69,65.183t-54.6,19.1q-44.01,0-70.37-32.176T4533,469.534q0-70.577,25.95-100.264t69.12-29.685q32.385,0,53.15,17.437,20.745,17.438,26.98,51.482l114.59-20.759Q4802.45,316.342,4754.91,282.083Zm157.77,318.439q28.425,52.525,83.66,80.336,55.215,27.81,115.83,27.817,97.56,0,162.34-66.013,64.755-66.014,64.76-166.485,0-98.4-63.93-163.371t-164-64.975q-64.77,0-117.49,28.439-52.74,28.443-81.17,82.828t-28.44,112.1Q4884.24,548.009,4912.68,600.522Zm122.48-222.741q30.915-34.875,77.01-34.875,44.835,0,75.98,34.875t31.14,99.642q0,66.012-31.14,100.887t-75.98,34.875q-46.08,0-77.01-34.875t-30.93-100.057Q5004.23,412.658,5035.16,377.781ZM5422.31,698.3h116.66V484.065q0-63.93,9.35-91.13,9.33-27.187,30.51-41.518t48.58-14.323q22.83,0,35.5,8.926T5682,373.629q6.435,18.683,6.44,83.035V698.3H5805.1V486.556q0-61.857,9.76-90.923t30.93-43.8q21.18-14.731,45.67-14.738,30.3,0,46.29,19.1t15.99,90.508V698.3H6070.4V415.977q0-69.75-17.44-102.133a116.01,116.01,0,0,0-50.02-49.2q-32.61-16.815-77.43-16.815-76.41,0-134.11,69.334-39.45-69.33-124.14-69.334-80.13,0-137.83,69.334v-60.2H5422.31V698.3Zm945.78-77.222q-41.115,0-67.89-29.062t-28.44-80.959h292.7v-11.21q0-124.96-55.84-188.489t-153.41-63.522q-87.6,0-144.89,62.069t-57.3,171.674q0,104.216,55.01,165.655t158.39,61.446q144.9,0,191.82-131.195l-116.25-19.514q-18.285,63.114-73.9,63.107h0Zm-93.84-181.431v-2.907q0-44.838,24.71-72.24,24.69-27.4,62.9-27.4,35.7,0,60.41,26.363,24.69,26.37,26.36,76.185H6274.25Zm744-182.677V101.274l-117.08,68.089v87.6h-53.55v93.414h53.55V542.605q0,78.058,10.18,107.115t38.4,44.008q28.23,14.948,65.18,14.947,51.9,0,92.59-17.853l-9.97-90.508q-30.72,11.21-46.91,11.21-11.625,0-19.72-6.02a26.478,26.478,0,0,1-10.38-14.946q-2.295-8.923-2.29-62.484V350.379h80.13V256.965h-80.13Zm162.13,343.557q28.44,52.525,83.66,80.336t115.83,27.817q97.56,0,162.34-66.013t64.77-166.485q0-98.4-63.94-163.371t-164-64.975q-64.755,0-117.49,28.439T7180.38,359.1q-28.44,54.394-28.44,112.1Q7151.94,548.009,7180.38,600.522Zm122.48-222.741q30.93-34.875,77.01-34.875,44.85,0,75.98,34.875t31.14,99.642q0,66.012-31.14,100.887t-75.98,34.875q-46.08,0-77.01-34.875t-30.93-100.057Q7271.93,412.658,7302.86,377.781ZM8059.94,698.3V514.788l99.22-102.133L8326.9,698.3h159.01L8244.27,326.714,8473.87,89.65H8308.21L8059.94,359.928V89.65H7937.46V698.3h122.48ZM8855,89.65H8724.64L8487.57,698.3h129.95l50.24-138.668h244.12L8964.61,698.3h133.27ZM8705.95,457.494l82.62-225.855,83.45,225.855H8705.95Zm717.02,240.8V192.2h180.18V89.65H9119.47V192.2h181.02V698.3h122.48Zm542.22,0V443.378L10189,89.65h-142L9906.65,330.036,9763.83,89.65H9620.18l222.95,352.9V698.3h122.06Zm623.21,0V633.528q27.3,36.538,63.9,55.841t73.9,19.306q77.25,0,130.8-61.239t53.5-174.58q0-108.769-52.5-166.9t-132.6-58.124q-73.95,0-128.3,61.031V89.65h-116.7V698.3h108Zm35.9-329.025c18.7-21.447,41.8-32.176,69.5-32.176q42.75,0,70.4,33.006,27.6,33.006,27.6,108.983,0,71.413-27.2,104-27.15,32.6-66.6,32.592-44.4,0-73.1-36.536-28.65-36.528-28.6-111.266Q10596.3,401.453,10624.3,369.27Zm561.9,251.8q-41.1,0-67.9-29.062-26.7-29.056-28.4-80.959h292.7v-11.21q0-124.96-55.8-188.489-55.95-63.522-153.4-63.522-87.6,0-144.9,62.069t-57.3,171.674q0,104.216,55,165.655,54.9,61.449,158.4,61.446,144.9,0,191.8-131.195l-116.3-19.514q-18.3,63.114-73.9,63.107h0Zm-93.8-181.431v-2.907q0-44.838,24.7-72.24c16.5-18.268,37.4-27.4,62.9-27.4q35.7,0,60.4,26.363,24.75,26.37,26.4,76.185h-174.4Zm500.7-90.3c11.6-8.161,28-12.247,49-12.247q45.6,0,62.3,13.908c11,9.276,16.6,25.261,16.6,47.953V411q-31.65,12.454-113,27.816-61.35,12.046-93.2,27.817c-21.1,10.522-37.7,25.4-49.6,44.631s-17.8,41.31-17.8,66.221q0,56.885,39,94.037t107.1,37.158q76.35,0,137-58.955,1.35,2.91,6,20.759c3.2,11.9,6.3,21.174,9.4,27.816h114.6q-15.45-31.546-20.8-59.162-5.4-27.606-5.4-85.318l1.7-137.008q0-75.558-15.8-104-15.75-28.432-54-46.707-38.1-18.265-116.6-18.268-85.95,0-129.4,30.515-43.35,30.516-61.2,94.453l105.5,19.513C11571.9,371.832,11581.5,357.508,11593.1,349.341Zm127.9,160.05q0,45.675-5.4,61.031a70.289,70.289,0,0,1-18.1,27.609c-8.4,8.167-18.8,14.881-31.1,20.136a95.835,95.835,0,0,1-38,7.888q-28.2,0-46.5-17.853t-18.3-42.347q0-24.91,23.3-41.1,14.1-9.963,63.1-20.343,48.9-10.372,71-17.853v22.835Zm628.6,188.9V256.965h-117.5V443.378q0,95.079-8.6,119.363-8.4,24.288-32.1,40.479t-53.6,16.192q-26.1,0-43.2-12.455a63.4,63.4,0,0,1-23.4-33.214q-6.45-20.756-6.5-113.343V256.965h-116.6V536.792c0,41.245,5.2,73.629,15.8,97.151q15.75,35.293,51,55.011t79.7,19.721a176.754,176.754,0,0,0,82.7-20.551,170.1,170.1,0,0,0,63.5-56.257V698.3h108.8Zm242.8-441.33V101.274l-117,68.089v87.6h-53.6v93.414h53.6V542.605c0,52.039,3.3,87.744,10.1,107.115s19.6,34.044,38.4,44.008q28.35,14.948,65.2,14.947,51.9,0,92.6-17.853l-10-90.508c-20.5,7.473-36.1,11.21-46.9,11.21-7.7,0-14.3-2-19.7-6.02a26.417,26.417,0,0,1-10.4-14.946q-2.25-8.923-2.3-62.484V350.379h80.2V256.965h-80.2Zm273.2,442.161q-10.35,37.365-29.9,61.238c-13,15.913-33,23.872-60.2,23.872a274.275,274.275,0,0,1-49.4-4.982l10,90.924a329.844,329.844,0,0,0,66.4,6.642q42,0,72.7-10.794a122.7,122.7,0,0,0,51.7-34.252c13.9-15.64,27.6-40.064,40.9-73.278l183.5-501.531h-120.9l-102.9,313.872L12822,256.965h-124.1Zm708.3-158.182,29.5-308.474V89.65h-125.8V232.47l29.9,308.474h66.4Zm25.3,157.351V581.631H13483V698.3h116.2ZM312.3,2629.9l120.817-455.03L554.762,2629.9H684.713l147.8-608.64H708.378L614.963,2446.4,508.677,2021.26H362.535L250.852,2439.34,159.1,2021.26H33.3L178.611,2629.9H312.3Zm763.512-77.22q-41.1,0-67.88-29.06t-28.44-80.96h292.7v-11.21q0-124.965-55.84-188.49t-153.41-63.52q-87.6,0-144.9,62.07t-57.294,171.67q0,104.22,55.011,165.66t158.39,61.44q144.885,0,191.81-131.19l-116.25-19.52q-18.27,63.12-73.9,63.11h0Zm-93.829-181.43v-2.91q0-44.835,24.7-72.24t62.9-27.4q35.7,0,60.41,26.37t26.37,76.18H981.981Zm618.2,425.97h116.67v-221.7q33.21,35.7,62.48,50.23t65.81,14.53q77.22,0,131.4-61.24t54.18-172.09q0-107.94-53.56-167.73t-131.19-59.78q-43.185,0-79.3,20.76t-57.71,53.97v-65.6H1600.18v608.65Zm143.86-493.02q28.02-33.015,70.37-33.01,41.94,0,69.55,33.63t27.6,102.97q0,74.31-26.77,106.9-26.79,32.595-67.47,32.59-42.765,0-72.03-35.7-29.28-35.7-29.27-109.61Q1716.02,2337.2,1744.04,2304.2Zm490.53,189.53q0-112.11,9.76-147.39t26.78-48.99q17.01-13.71,41.52-13.7,25.74,0,54.38,19.1l36.54-101.31q-37.365-21.99-76.39-22-29.07,0-51.07,13.91t-50.24,58.33v-63.11H2117.91V2629.9h116.66V2493.73Zm220.67,38.4q28.44,52.53,83.66,80.34t115.83,27.81q97.56,0,162.34-66.01t64.77-166.48q0-98.4-63.94-163.38-63.945-64.965-164-64.97-64.77,0-117.49,28.44-52.74,28.44-81.17,82.83T2426.8,2402.8Q2426.8,2479.615,2455.24,2532.13Zm122.48-222.74q30.915-34.875,77.01-34.88,44.85,0,75.98,34.88t31.14,99.64q0,66.015-31.14,100.89t-75.98,34.87q-46.08,0-77.01-34.87t-30.93-100.06Q2546.79,2344.265,2577.72,2309.39Zm621.73,320.51,175.2-441.33H3254.67l-83.87,225.44a388.594,388.594,0,0,0-12.04,37.37l-12.87,37.36-23.67-74.73-83.45-225.44H2916.3l177.69,441.33h105.46Zm363.28-500.7V2021.26H3446.06V2129.2h116.67Zm0,500.7V2188.57H3446.06V2629.9h116.67Zm523.54-608.64H3970.02v219.21q-53.565-61.035-127.88-61.03-80.55,0-133.27,58.12-52.725,58.14-52.73,170.23,0,110.01,53.98,171.25,53.955,61.245,130.36,61.24,37.365,0,74.11-18.89t63.73-56.25v64.76h107.95V2021.26Zm-282.95,280.03q28.035-32.58,69.55-32.59,42.75,0,70.37,33.01,27.6,33,27.61,109.81,0,68.1-28.44,101.93t-68.71,33.83q-44.43,0-71.41-34.25-27-34.245-26.99-113.55Q3775.3,2333.885,3803.32,2301.29Zm579.8,251.39q-41.1,0-67.88-29.06t-28.44-80.96h292.7v-11.21q0-124.965-55.84-188.49t-153.41-63.52q-87.6,0-144.9,62.07t-57.29,171.67q0,104.22,55.01,165.66t158.39,61.44q144.885,0,191.81-131.19l-116.25-19.52q-18.27,63.12-73.9,63.11h0Zm-93.83-181.43v-2.91q0-44.835,24.7-72.24t62.9-27.4q35.7,0,60.41,26.37,24.69,26.37,26.36,76.18H4289.29Zm744-182.68V2032.88l-117.08,68.09v87.6h-53.56v93.42h53.56v192.22q0,78.06,10.17,107.12t38.4,44.01q28.23,14.94,65.19,14.94,51.885,0,92.58-17.85l-9.96-90.51q-30.735,11.22-46.92,11.21-11.625,0-19.72-6.02a26.484,26.484,0,0,1-10.38-14.94q-2.28-8.925-2.28-62.49V2281.99h80.13v-93.42h-80.13Zm159.84-167.31V2629.9H5309.8V2409.03q0-55.635,10.58-84.07t33.63-42.35q23.055-13.905,51.69-13.91,25.74,0,42.77,11a55.455,55.455,0,0,1,23.25,29.69q6.225,18.675,6.22,87.6V2629.9h116.67V2371.25q0-59.37-6.02-87.39a144.463,144.463,0,0,0-22.01-51.49q-15.975-23.445-48.36-38.19-32.385-14.73-73.07-14.74-78.48,0-135.35,65.18V2021.26H5193.13Zm701.65,531.42q-41.1,0-67.88-29.06t-28.44-80.96h292.7v-11.21q0-124.965-55.84-188.49t-153.41-63.52q-87.6,0-144.89,62.07t-57.3,171.67q0,104.22,55.01,165.66t158.39,61.44q144.9,0,191.82-131.19l-116.25-19.52q-18.285,63.12-73.91,63.11h0Zm-93.83-181.43v-2.91q0-44.835,24.71-72.24,24.69-27.39,62.9-27.4,35.7,0,60.4,26.37t26.37,76.18H5800.95Zm724.49,258.65v-64.76q27.405,36.54,63.94,55.84t73.9,19.3q77.22,0,130.78-61.24t53.56-174.58q0-108.765-52.52-166.9-52.53-58.11-132.65-58.12-73.9,0-128.29,61.03V2021.26H6417.49V2629.9h107.95Zm35.91-329.02q28.035-32.175,69.54-32.18,42.765,0,70.38,33.01,27.6,33,27.61,108.98,0,71.415-27.2,104t-66.63,32.59q-44.43,0-73.08-36.53-28.635-36.525-28.64-111.27Q6533.33,2333.06,6561.35,2300.88Zm561.95,251.8q-41.115,0-67.89-29.06t-28.44-80.96h292.71v-11.21q0-124.965-55.85-188.49t-153.41-63.52q-87.6,0-144.89,62.07t-57.3,171.67q0,104.22,55.01,165.66t158.39,61.44q144.9,0,191.82-131.19l-116.25-19.52q-18.285,63.12-73.9,63.11h0Zm-93.83-181.43v-2.91q0-44.835,24.7-72.24t62.9-27.4q35.7,0,60.41,26.37,24.69,26.37,26.36,76.18H7029.47Zm412.68,232.29q52.725,36.75,142.82,36.74,99.645,0,150.09-43.8t50.44-104.41q0-57.705-37.57-87.61-37.575-29.88-129.33-51.06-67.26-15.36-93.83-25.54-26.565-10.155-26.57-28.85,0-36.525,79.3-36.54,68.91,0,83.04,53.56l110.02-20.34q-16.2-57.705-60.41-86.98t-134.31-29.27q-95.49,0-140.95,39.03t-45.47,95.9q0,63.945,52.73,99.64,37.365,25.335,178.53,56.88,29.055,5.82,38.4,14.74a29.009,29.009,0,0,1,9.34,21.8q0,23.655-22.41,36.12-22.425,12.45-61.04,12.45-78.885,0-94.24-69.75l-117.5,17.86Q7389.43,2566.8,7442.15,2603.54Zm567.97-414.97V2032.88l-117.08,68.09v87.6h-53.56v93.42h53.56v192.22q0,78.06,10.17,107.12t38.4,44.01q28.23,14.94,65.19,14.94,51.885,0,92.58-17.85l-9.96-90.51q-30.735,11.22-46.92,11.21-11.625,0-19.72-6.02a26.484,26.484,0,0,1-10.38-14.94q-2.28-8.925-2.28-62.49V2281.99h80.13v-93.42h-80.13Zm424.31,414.97q52.725,36.75,142.82,36.74,99.645,0,150.09-43.8t50.44-104.41q0-57.705-37.57-87.61-37.59-29.88-129.33-51.06-67.26-15.36-93.83-25.54-26.58-10.155-26.57-28.85,0-36.525,79.3-36.54,68.91,0,83.03,53.56l110.02-20.34q-16.185-57.705-60.4-86.98t-134.31-29.27q-95.5,0-140.96,39.03t-45.46,95.9q0,63.945,52.73,99.64,37.365,25.335,178.52,56.88,29.07,5.82,38.41,14.74a29.009,29.009,0,0,1,9.34,21.8q0,23.655-22.42,36.12-22.425,12.45-61.03,12.45-78.885,0-94.25-69.75l-117.49,17.86Q8381.7,2566.8,8434.43,2603.54Zm626.92-50.86q-41.1,0-67.88-29.06t-28.44-80.96h292.7v-11.21q0-124.965-55.84-188.49t-153.41-63.52q-87.615,0-144.9,62.07-57.3,62.07-57.29,171.67,0,104.22,55.01,165.66t158.39,61.44q144.885,0,191.81-131.19l-116.25-19.52q-18.27,63.12-73.9,63.11h0Zm-93.83-181.43v-2.91q0-44.835,24.7-72.24t62.9-27.4q35.7,0,60.41,26.37,24.69,26.37,26.36,76.18H8967.52Zm496.97,122.48q0-112.11,9.75-147.39t26.78-48.99q17.025-13.71,41.52-13.7,25.74,0,54.39,19.1l36.53-101.31q-37.365-21.99-76.39-22-29.07,0-51.07,13.91t-50.23,58.33v-63.11H9347.82V2629.9h116.67V2493.73Zm445.48,136.17,175.23-441.33H9965.19l-83.87,225.44a391.406,391.406,0,0,0-12.04,37.37l-12.87,37.36-23.66-74.73-83.45-225.44H9626.82l177.7,441.33h105.45Zm363.33-500.7V2021.26h-116.7V2129.2h116.7Zm0,500.7V2188.57h-116.7V2629.9h116.7Zm436.1-416.21q-47.55-34.245-128.5-34.25-98.85,0-156.1,60.61-57.3,60.63-57.3,169.81,0,107.955,57.3,169.18,57.3,61.245,154.4,61.24,167.85,0,203.9-159.84l-114.6-19.93q-8.25,46.095-29.7,65.18-21.3,19.11-54.6,19.1-43.95,0-70.4-32.17-26.25-32.175-26.3-111.48,0-70.575,25.9-100.26,25.95-29.685,69.2-29.69c21.5,0,39.3,5.82,53.1,17.44s22.8,28.79,27,51.48l114.6-20.76Q10756.9,2247.95,10709.4,2213.69Zm337.7,338.99q-41.1,0-67.8-29.06-26.85-29.055-28.5-80.96h292.7v-11.21q0-124.965-55.8-188.49t-153.4-63.52q-87.6,0-144.9,62.07t-57.3,171.67q0,104.22,55,165.66,55.05,61.44,158.4,61.44,144.9,0,191.8-131.19l-116.3-19.52q-18.15,63.12-73.9,63.11h0Zm-93.8-181.43v-2.91q0-44.835,24.7-72.24c16.5-18.26,37.4-27.4,62.9-27.4,23.8,0,44,8.79,60.4,26.37q24.75,26.37,26.4,76.18h-174.4Zm412.7,232.29c35.1,24.5,82.8,36.74,142.8,36.74q99.75,0,150.1-43.8,50.4-43.8,50.5-104.41,0-57.705-37.6-87.61-37.65-29.88-129.3-51.06-67.35-15.36-93.9-25.54c-17.7-6.77-26.5-16.4-26.5-28.85q0-36.525,79.3-36.54,68.85,0,83,53.56l110-20.34q-16.2-57.705-60.4-86.98-44.25-29.265-134.3-29.27-95.55,0-141,39.03t-45.4,95.9q0,63.945,52.7,99.64,37.35,25.335,178.5,56.88,29.1,5.82,38.4,14.74a28.815,28.815,0,0,1,9.4,21.8c0,15.77-7.5,27.81-22.4,36.12-15,8.3-35.3,12.45-61.1,12.45q-78.9,0-94.2-69.75l-117.5,17.86Q11313.3,2566.8,11366,2603.54Zm584.2-297.47v-117.5h-116.3v117.5h116.3Zm0,323.83V2513.24h-116.3V2629.9h116.3ZM205.182,3595.71v-478.7L326,3595.71H443.91l120.817-478.7v478.7H678.9V2987.06H494.146L385.37,3401.82,274.932,2987.06H91.008v608.65H205.182Zm710.37-348.96q17.438-12.24,48.991-12.24,45.666,0,62.277,13.9,16.605,13.92,16.61,47.96v12.04q-31.56,12.45-112.932,27.81-61.449,12.045-93.207,27.82t-49.614,44.63q-17.856,28.86-17.852,66.22,0,56.9,39.026,94.04t107.116,37.16q76.386,0,137.013-58.96,1.245,2.91,6.02,20.76,4.755,17.85,9.34,27.82h114.59q-15.375-31.545-20.76-59.16-5.4-27.615-5.4-85.32l1.66-137.01q0-75.555-15.78-104t-53.97-46.71q-38.205-18.27-116.664-18.27-85.941,0-129.328,30.52t-61.238,94.45l105.455,19.51Q898.115,3259,915.552,3246.75ZM1043.43,3406.8q0,45.675-5.4,61.03a70.793,70.793,0,0,1-18.06,27.61,101.73,101.73,0,0,1-31.139,20.14,95.846,95.846,0,0,1-37.989,7.89q-28.239,0-46.5-17.86-18.274-17.835-18.268-42.34,0-24.915,23.25-41.11,14.111-9.96,63.107-20.34t71-17.85v22.83Zm630.24-84.69q0-51.075-6.44-78.68a134.1,134.1,0,0,0-22.42-49.4q-15.99-21.8-47.95-35.29-31.98-13.485-71-13.5-87.6,0-145.31,74.73v-65.59H1272.19v441.33h116.67v-199.7q0-73.89,8.92-101.3a82.294,82.294,0,0,1,33.22-43.8,93.931,93.931,0,0,1,53.76-16.4q24.075,0,41.1,11.41,17.025,11.43,24.08,32.18t7.06,92.17v225.44h116.67v-273.6Zm235.4-227.1V2987.06H1792.41v107.95h116.66Zm0,500.7V3154.38H1792.41v441.33h116.66Zm436.15-416.21q-47.55-34.26-128.5-34.26-98.82,0-156.11,60.62t-57.29,169.81q0,107.94,57.29,169.18t154.45,61.24q167.73,0,203.85-159.85l-114.59-19.92q-8.31,46.08-29.68,65.18-21.39,19.1-54.6,19.1-44.01,0-70.37-32.18t-26.36-111.47q0-70.575,25.94-100.27,25.95-29.67,69.13-29.68,32.385,0,53.14,17.43,20.76,17.445,26.99,51.49l114.59-20.76Q2392.745,3213.745,2345.22,3179.5Zm555.3,416.21V3154.38h-117.5v186.41q0,95.085-8.51,119.36-8.505,24.3-32.17,40.48-23.67,16.2-53.56,16.19-26.16,0-43.18-12.45a63.163,63.163,0,0,1-23.46-33.21q-6.435-20.76-6.43-113.35V3154.38H2499.04V3434.2q0,61.875,15.78,97.16,15.765,35.28,51.06,55.01,35.295,19.71,79.72,19.72a176.5,176.5,0,0,0,82.62-20.55q39.435-20.55,63.52-56.26v66.43h108.78Zm232.08-136.18q0-112.095,9.76-147.39,9.75-35.28,26.78-48.99t41.52-13.7q25.74,0,54.39,19.1l36.53-101.3q-37.365-22.005-76.39-22.01-29.07,0-51.07,13.91t-50.24,58.33v-63.1H3015.94v441.33H3132.6V3459.53Zm400.65,58.96q-41.1,0-67.88-29.07t-28.44-80.96h292.7v-11.21q0-124.95-55.84-188.48t-153.41-63.53q-87.6,0-144.9,62.07t-57.29,171.68q0,104.205,55.01,165.65t158.39,61.45q144.885,0,191.81-131.2l-116.25-19.51q-18.27,63.1-73.9,63.11h0Zm-93.83-181.44v-2.9q0-44.835,24.7-72.24t62.9-27.4q35.7,0,60.41,26.36t26.36,76.18H3439.42Zm381.96,258.66h56.88q-0.825,35.7-15.57,55.63t-50.44,31.97l22.83,48.57q37.38-13.7,61.66-37.15t33.21-52.32q8.925-28.86,8.93-79.92v-83.45h-117.5v116.67Zm599.11,0V3366.12h80.96q103.365,0,140.74-12.46t64.77-36.95a166.009,166.009,0,0,0,42.35-59.58q14.94-35.07,14.94-83.24,0-72.24-35.29-118.12t-87.18-59.57q-34.05-9.135-146.15-9.14H4298.42v608.65h122.07Zm59.78-506.1q66.42,0,88.43,4.57,29.475,5.82,49.2,26.98,19.725,21.18,19.72,54.39,0,27.4-14.11,47.75-14.13,20.34-38.41,29.68t-97.36,9.34h-67.25V3089.61h59.78Zm565.47,428.88q-41.1,0-67.88-29.07t-28.44-80.96h292.7v-11.21q0-124.95-55.84-188.48t-153.41-63.53q-87.6,0-144.89,62.07t-57.3,171.68q0,104.205,55.01,165.65t158.39,61.45q144.9,0,191.82-131.2l-116.25-19.51q-18.285,63.1-73.91,63.11h0Zm-93.83-181.44v-2.9q0-44.835,24.71-72.24,24.69-27.4,62.9-27.4,35.7,0,60.4,26.36t26.37,76.18H4951.91Zm789.26-349.99H5624.92v219.21q-53.565-61.02-127.88-61.03-80.55,0-133.27,58.13t-52.73,170.22q0,110.025,53.98,171.26,53.955,61.245,130.36,61.24,37.365,0,74.11-18.89t63.73-56.26v64.77h107.95V2987.06ZM5458.22,3267.1q28.035-32.595,69.55-32.59,42.75,0,70.37,33,27.6,33.015,27.61,109.82,0,68.085-28.44,101.92t-68.71,33.84q-44.43,0-71.42-34.25t-26.98-113.55Q5430.2,3299.7,5458.22,3267.1Zm515.03-172.09V2987.06H5856.59v107.95h116.66Zm0,500.7V3154.38H5856.59v441.33h116.66ZM6409.4,3179.5q-47.55-34.26-128.5-34.26-98.82,0-156.11,60.62t-57.29,169.81q0,107.94,57.29,169.18t154.45,61.24q167.73,0,203.85-159.85l-114.59-19.92q-8.31,46.08-29.68,65.18-21.39,19.1-54.6,19.1-44.01,0-70.37-32.18t-26.37-111.47q0-70.575,25.95-100.27,25.95-29.67,69.13-29.68,32.385,0,53.14,17.43,20.76,17.445,26.99,51.49l114.59-20.76Q6456.925,3213.745,6409.4,3179.5Zm555.3,416.21V3154.38H6847.2v186.41q0,95.085-8.51,119.36-8.5,24.3-32.17,40.48-23.67,16.2-53.56,16.19-26.16,0-43.18-12.45a63.163,63.163,0,0,1-23.46-33.21q-6.435-20.76-6.43-113.35V3154.38H6563.22V3434.2q0,61.875,15.78,97.16t51.06,55.01q35.295,19.71,79.72,19.72a176.5,176.5,0,0,0,82.62-20.55q39.435-20.55,63.52-56.26v66.43H6964.7Zm232.08-136.18q0-112.095,9.76-147.39,9.75-35.28,26.78-48.99,17.01-13.7,41.52-13.7,25.725,0,54.38,19.1l36.54-101.3q-37.365-22.005-76.39-22.01-29.07,0-51.07,13.91t-50.24,58.33v-63.1H7080.12v441.33h116.66V3459.53Zm400.65,58.96q-41.1,0-67.88-29.07t-28.44-80.96h292.7v-11.21q0-124.95-55.84-188.48t-153.41-63.53q-87.615,0-144.9,62.07t-57.29,171.68q0,104.205,55.01,165.65t158.39,61.45q144.885,0,191.81-131.2l-116.25-19.51q-18.27,63.1-73.9,63.11h0Zm-93.83-181.44v-2.9q0-44.835,24.7-72.24t62.9-27.4q35.7,0,60.41,26.36,24.69,26.37,26.36,76.18H7503.6Zm381.96,258.66h56.88q-0.84,35.7-15.57,55.63t-50.44,31.97l22.83,48.57q37.365-13.7,61.66-37.15t33.21-52.32q8.925-28.86,8.93-79.92v-83.45h-117.5v116.67Zm939.55,0V3492.74H8484.67V3327.92h306.4V3224.96h-306.4V3089.61H8813.9V2987.06H8362.6v608.65h462.51Zm215.89,0.83q-10.38,37.365-29.89,61.24t-60.2,23.87a274.022,274.022,0,0,1-49.41-4.98l9.97,90.92a330.356,330.356,0,0,0,66.43,6.64q41.925,0,72.65-10.79a122.69,122.69,0,0,0,51.69-34.25q20.97-23.46,40.9-73.28l183.51-501.53H9205.83l-102.96,313.87-105.46-313.87H8873.27Zm541.81-78.05q-41.1,0-67.88-29.07t-28.44-80.96h292.7v-11.21q0-124.95-55.84-188.48t-153.41-63.53q-87.6,0-144.9,62.07t-57.29,171.68q0,104.205,55.01,165.65t158.39,61.45q144.885,0,191.81-131.2l-116.25-19.51q-18.27,63.1-73.9,63.11h0Zm-93.83-181.44v-2.9q0-44.835,24.7-72.24t62.9-27.4q35.7,0,60.41,26.36t26.37,76.18H9488.98Zm501.95,258.66V2987.06H9874.27v608.65h116.66Zm234.97-348.96c11.6-8.16,28-12.24,49-12.24,30.5,0,51.2,4.63,62.3,13.9s16.6,25.27,16.6,47.96v12.04q-31.5,12.45-112.9,27.81-61.5,12.045-93.2,27.82-31.8,15.78-49.7,44.63-17.85,28.86-17.8,66.22,0,56.9,39,94.04t107.1,37.16q76.5,0,137-58.96c0.9,1.94,2.9,8.86,6.1,20.76a180.03,180.03,0,0,0,9.3,27.82h114.6c-10.2-21.03-17.2-40.75-20.8-59.16s-5.4-46.85-5.4-85.32l1.7-137.01q0-75.555-15.8-104-15.75-28.44-53.9-46.71-38.25-18.27-116.7-18.27-85.95,0-129.3,30.52-43.5,30.51-61.3,94.45l105.5,19.51C10204.7,3269.24,10214.3,3254.92,10225.9,3246.75Zm127.9,160.05q0,45.675-5.4,61.03a70.236,70.236,0,0,1-18.1,27.61c-8.4,8.17-18.8,14.88-31.1,20.14a95.855,95.855,0,0,1-38,7.89q-28.2,0-46.5-17.86-18.3-17.835-18.3-42.34,0-24.915,23.3-41.11,14.1-9.96,63.1-20.34c32.7-6.91,56.3-12.87,71-17.85v22.83Zm257,162.54q52.65,36.75,142.8,36.75,99.6,0,150.1-43.8,50.4-43.8,50.4-104.42,0-57.7-37.5-87.6-37.65-29.895-129.4-51.07-67.2-15.36-93.8-25.53c-17.7-6.78-26.6-16.4-26.6-28.86,0-24.35,26.5-36.53,79.3-36.53q69,0,83.1,53.56l110-20.35q-16.2-57.7-60.4-86.98-44.25-29.265-134.3-29.27-95.55,0-141,39.03t-45.4,95.91q0,63.93,52.7,99.64,37.35,25.32,178.5,56.88,29.1,5.82,38.4,14.73a28.831,28.831,0,0,1,9.4,21.8q0,23.67-22.5,36.12-22.35,12.465-61,12.46-78.9,0-94.2-69.75l-117.5,17.85Q10558.1,3532.61,10610.8,3569.34Zm444.6-582.28v608.65h116.7V3374.83q0-55.62,10.6-84.07,10.65-28.425,33.6-42.35,23.1-13.9,51.7-13.9c17.2,0,31.4,3.67,42.8,11a55.286,55.286,0,0,1,23.2,29.68q6.3,18.69,6.3,87.6v232.92h116.6V3337.05q0-59.355-6-87.39a143.41,143.41,0,0,0-22-51.48q-16.05-23.46-48.4-38.2-32.4-14.73-73-14.74-78.6,0-135.4,65.19V2987.06h-116.7Zm937.9,531.43q-41.1,0-67.8-29.07-26.85-29.055-28.5-80.96h292.7v-11.21q0-124.95-55.8-188.48-55.95-63.525-153.4-63.53-87.6,0-144.9,62.07t-57.3,171.68q0,104.205,55,165.65,55.05,61.455,158.4,61.45,144.9,0,191.8-131.2l-116.3-19.51q-18.15,63.1-73.9,63.11h0Zm-93.8-181.44v-2.9q0-44.835,24.7-72.24c16.5-18.27,37.4-27.4,62.9-27.4q35.7,0,60.4,26.36,24.75,26.37,26.4,76.18h-174.4Zm466.3,258.66,90-137.01,89.3,137.01h143.7l-163.2-232.08,149.5-209.25h-136.6l-82.7,121.64-78-121.64h-142l152,214.23-159.1,227.1h137.1Zm514.4-441.33V2998.69l-117.1,68.09v87.6h-53.6v93.41h53.6v192.23q0,78.06,10.1,107.11,10.2,29.07,38.5,44.01,28.2,14.94,65.1,14.95,51.9,0,92.6-17.86l-9.9-90.5c-20.5,7.47-36.2,11.21-47,11.21-7.7,0-14.3-2.01-19.7-6.02a26.9,26.9,0,0,1-10.4-14.95q-2.25-8.925-2.2-62.48v-177.7h80.1v-93.41h-80.1Zm342.1,364.11c-27.4,0-50.1-9.69-67.9-29.07q-26.85-29.055-28.5-80.96h292.7v-11.21q0-124.95-55.8-188.48t-153.4-63.53q-87.6,0-144.9,62.07t-57.3,171.68q0,104.205,55,165.65,55.05,61.455,158.4,61.45,144.9,0,191.8-131.2l-116.2-19.51q-18.3,63.1-73.9,63.11h0Zm-93.9-181.44v-2.9c0-29.89,8.3-53.97,24.7-72.24q24.75-27.4,62.9-27.4c23.8,0,44,8.79,60.4,26.36q24.75,26.37,26.4,76.18h-174.4Zm786-14.94q0-51.075-6.5-78.68a133.42,133.42,0,0,0-22.4-49.4q-15.9-21.8-47.9-35.29c-21.4-8.99-45-13.5-71-13.5q-87.6,0-145.4,74.73v-65.59h-108.3v441.33h116.7v-199.7c0-49.26,2.9-83.04,8.9-101.3q8.85-27.4,33.2-43.8a93.964,93.964,0,0,1,53.8-16.4q24,0,41.1,11.41,16.95,11.43,24,32.18t7.1,92.17v225.44h116.7v-273.6Zm146.1,247.23q52.8,36.75,142.8,36.75,99.75,0,150.1-43.8,50.4-43.8,50.5-104.42,0-57.7-37.6-87.6-37.65-29.895-129.3-51.07-67.35-15.36-93.9-25.53c-17.7-6.78-26.5-16.4-26.5-28.86q0-36.525,79.3-36.53,68.85,0,83,53.56l110-20.35q-16.2-57.7-60.4-86.98-44.25-29.265-134.3-29.27-95.55,0-141,39.03t-45.4,95.91q0,63.93,52.7,99.64,37.35,25.32,178.5,56.88,29.1,5.82,38.4,14.73a28.831,28.831,0,0,1,9.4,21.8c0,15.78-7.5,27.82-22.4,36.12-15,8.31-35.3,12.46-61.1,12.46q-78.9,0-94.2-69.75l-117.5,17.85Q14007.8,3532.61,14060.5,3569.34Zm562.2-474.33V2987.06H14506v107.95h116.7Zm0,500.7V3154.38H14506v441.33h116.7Zm121-97.78q28.35,52.53,83.6,80.34,55.35,27.81,115.9,27.82,97.5,0,162.3-66.02,64.8-66,64.8-166.48,0-98.4-64-163.37-63.9-64.98-164-64.98-64.65,0-117.4,28.44-52.8,28.44-81.2,82.83-28.5,54.39-28.5,112.1Q14715.2,3445.425,14743.7,3497.93Zm122.5-222.74q30.9-34.875,77-34.87,44.85,0,76,34.87,31.05,34.875,31.1,99.64,0,66.015-31.1,100.89-31.2,34.875-76,34.88-46.05,0-77-34.88-31.05-34.875-31-100.05Q14835.2,3310.075,14866.2,3275.19Zm796.1,46.92q0-51.075-6.5-78.68a133.42,133.42,0,0,0-22.4-49.4q-15.9-21.8-47.9-35.29c-21.4-8.99-45-13.5-71-13.5q-87.6,0-145.4,74.73v-65.59h-108.3v441.33h116.7v-199.7c0-49.26,2.9-83.04,8.9-101.3q8.85-27.4,33.2-43.8a93.964,93.964,0,0,1,53.8-16.4q24,0,41.1,11.41,16.95,11.43,24,32.18t7.1,92.17v225.44h116.7v-273.6Zm146.1,247.23q52.8,36.75,142.8,36.75,99.75,0,150.1-43.8,50.4-43.8,50.5-104.42,0-57.7-37.6-87.6-37.65-29.895-129.3-51.07-67.35-15.36-93.9-25.53c-17.7-6.78-26.5-16.4-26.5-28.86q0-36.525,79.3-36.53,68.85,0,83,53.56l110-20.35q-16.2-57.7-60.4-86.98-44.25-29.265-134.3-29.27-95.55,0-141,39.03t-45.4,95.91q0,63.93,52.7,99.64,37.35,25.32,178.5,56.88,29.1,5.82,38.4,14.73a28.831,28.831,0,0,1,9.4,21.8c0,15.78-7.5,27.82-22.4,36.12-15,8.31-35.3,12.46-61.1,12.46q-78.9,0-94.2-69.75l-117.5,17.85Q15755.7,3532.61,15808.4,3569.34Zm562.2,26.37V3479.04h-116.7v116.67h116.7ZM312.3,4561.51l120.817-455.03,121.647,455.03H684.713l147.8-608.64H708.378L614.963,4378,508.677,3952.87H362.535L250.852,4370.95,159.1,3952.87H33.3l145.313,608.64H312.3Zm763.512-77.22q-41.1,0-67.88-29.06t-28.44-80.96h292.7v-11.21q0-124.965-55.84-188.49t-153.41-63.52q-87.6,0-144.9,62.07t-57.294,171.67q0,104.22,55.011,165.66t158.39,61.44q144.885,0,191.81-131.19l-116.25-19.52q-18.27,63.12-73.9,63.11h0Zm-93.829-181.43v-2.91q0-44.835,24.7-72.24t62.9-27.4q35.7,0,60.41,26.36t26.37,76.19H981.981Zm610.729,301.83q0,58.95,46.71,97.15,46.695,38.19,158.8,38.2,75.135,0,121.44-20.97,46.29-20.97,67.05-65.39t20.76-137.42V4120.18H1897.86v62.28q-52.725-71.4-134.51-71.41-78.9,0-132.45,58.12-53.55,58.14-53.55,169.39,0,98.82,50.23,160.88t130.78,62.07q80.13,0,132.86-71.41v64.77q0,41.925-9.13,60.61t-30.93,26.99q-21.81,8.295-57.92,8.3-30.315,0-46.71-8.71-16.41-8.73-20.55-35.29l-133.27-16.2v14.12Zm131.82-372.2q27.18-32.175,68.71-32.18,43.59,0,71.62,33.01t28.02,101.09q0,66.435-29.48,99.64-29.475,33.225-72.65,33.22-39.03,0-66.22-32.39t-27.2-102.96Q1697.33,4264.66,1724.53,4232.49Zm797.35,329.02V4120.18h-117.5v186.41q0,95.085-8.51,119.37t-32.18,40.48q-23.655,16.185-53.55,16.19-26.16,0-43.18-12.46a63.109,63.109,0,0,1-23.46-33.21q-6.45-20.76-6.44-113.34V4120.18H2120.4v279.83q0,61.86,15.78,97.15t51.06,55.01q35.3,19.71,79.72,19.72a176.5,176.5,0,0,0,82.62-20.55q39.435-20.55,63.52-56.26v66.43h108.78Zm235.82-348.95q17.43-12.24,48.99-12.25,45.66,0,62.28,13.91,16.59,13.9,16.6,47.95v12.04q-31.56,12.45-112.93,27.82-61.44,12.045-93.2,27.81-31.77,15.8-49.62,44.64-17.85,28.86-17.85,66.22,0,56.88,39.03,94.03,39.015,37.17,107.11,37.16,76.395,0,137.01-58.95,1.245,2.91,6.02,20.75,4.77,17.865,9.34,27.82h114.59q-15.36-31.545-20.76-59.16t-5.39-85.32l1.66-137.01q0-75.555-15.78-104-15.78-28.425-53.97-46.7t-116.67-18.27q-85.935,0-129.33,30.51t-61.24,94.46l105.46,19.51Q2740.255,4224.81,2757.7,4212.56Zm127.87,160.05q0,45.675-5.39,61.03a71,71,0,0,1-18.07,27.61,101.53,101.53,0,0,1-31.13,20.13,95.879,95.879,0,0,1-37.99,7.89q-28.245,0-46.5-17.85-18.285-17.85-18.27-42.35,0-24.915,23.25-41.1,14.115-9.96,63.11-20.34,48.975-10.38,70.99-17.86v22.84Zm341.28,52.72q0-112.095,9.76-147.38t26.77-48.99q17.025-13.71,41.52-13.7,25.74,0,54.39,19.09l36.54-101.3q-37.365-22.005-76.4-22-29.055,0-51.06,13.91t-50.24,58.33v-63.11H3110.18v441.33h116.67V4425.33Zm334.63-212.77q17.445-12.24,48.99-12.25,45.675,0,62.28,13.91t16.61,47.95v12.04q-31.56,12.45-112.93,27.82-61.455,12.045-93.21,27.81-31.755,15.8-49.61,44.64-17.865,28.86-17.86,66.22,0,56.88,39.03,94.03,39.015,37.17,107.12,37.16,76.38,0,137.01-58.95,1.245,2.91,6.02,20.75,4.755,17.865,9.34,27.82h114.59q-15.375-31.545-20.76-59.16t-5.4-85.32l1.66-137.01q0-75.555-15.78-104-15.78-28.425-53.97-46.7-38.205-18.27-116.66-18.27-85.95,0-129.33,30.51t-61.24,94.46l105.45,19.51Q3544.05,4224.81,3561.48,4212.56Zm127.88,160.05q0,45.675-5.4,61.03a70.865,70.865,0,0,1-18.06,27.61,101.7,101.7,0,0,1-31.14,20.13,95.843,95.843,0,0,1-37.99,7.89q-28.23,0-46.5-17.85T3532,4429.07q0-24.915,23.25-41.1,14.115-9.96,63.11-20.34t71-17.86v22.84Zm630.24-84.7q0-51.06-6.44-78.67a134.071,134.071,0,0,0-22.42-49.41q-15.99-21.8-47.95-35.29-31.98-13.485-71-13.49-87.6,0-145.31,74.73v-65.6H3918.12v441.33h116.67v-199.7q0-73.89,8.92-101.3a82.331,82.331,0,0,1,33.22-43.8,94.005,94.005,0,0,1,53.76-16.4q24.075,0,41.1,11.42t24.08,32.17q7.065,20.775,7.06,92.17v225.44H4319.6v-273.6Zm241.22-167.73V3964.49l-117.08,68.09v87.6h-53.56v93.42h53.56v192.22q0,78.06,10.17,107.12t38.4,44q28.23,14.955,65.18,14.95,51.9,0,92.59-17.85l-9.97-90.51q-30.72,11.205-46.91,11.21-11.625,0-19.72-6.02a26.473,26.473,0,0,1-10.38-14.95q-2.28-8.91-2.28-62.48V4213.6h80.13v-93.42h-80.13Zm342.1,364.11q-41.1,0-67.88-29.06t-28.44-80.96h292.7v-11.21q0-124.965-55.84-188.49t-153.41-63.52q-87.6,0-144.9,62.07t-57.29,171.67q0,104.22,55.01,165.66t158.39,61.44q144.9,0,191.81-131.19l-116.25-19.52q-18.27,63.12-73.9,63.11h0Zm-93.83-181.43v-2.91q0-44.835,24.71-72.24,24.69-27.405,62.89-27.4,35.715,0,60.41,26.36t26.37,76.19H4809.09Zm566.72,181.43q-41.1,0-67.88-29.06t-28.44-80.96h292.7v-11.21q0-124.965-55.84-188.49t-153.41-63.52q-87.6,0-144.9,62.07-57.285,62.07-57.29,171.67,0,104.22,55.01,165.66t158.39,61.44q144.885,0,191.81-131.19l-116.25-19.52q-18.27,63.12-73.9,63.11h0Zm-93.83-181.43v-2.91q0-44.835,24.7-72.24t62.9-27.4q35.7,0,60.41,26.36t26.36,76.19H5281.98Zm620.69-349.99v608.64h116.67V4340.64q0-55.635,10.58-84.07t33.63-42.35q23.04-13.905,51.69-13.91,25.74,0,42.77,11a55.455,55.455,0,0,1,23.25,29.69q6.225,18.675,6.22,87.6v232.91h116.67V4302.86q0-59.37-6.02-87.4a144.492,144.492,0,0,0-22.01-51.48q-15.975-23.445-48.36-38.19t-73.08-14.74q-78.465,0-135.34,65.18V3952.87H5902.67Zm636.88,107.94V3952.87H6422.89v107.94h116.66Zm0,500.7V4120.18H6422.89v441.33h116.66Zm108.78,43.18q0,58.95,46.71,97.15t158.8,38.2q75.15,0,121.44-20.97t67.05-65.39q20.76-44.43,20.76-137.42V4120.18h-109.6v62.28q-52.74-71.4-134.52-71.41-78.885,0-132.44,58.12-53.565,58.14-53.56,169.39,0,98.82,50.24,160.88,50.22,62.07,130.78,62.07,80.115,0,132.85-71.41v64.77q0,41.925-9.13,60.61t-30.93,26.99q-21.795,8.295-57.92,8.3-30.315,0-46.71-8.71-16.395-8.73-20.55-35.29l-133.27-16.2v14.12Zm131.82-372.2q27.18-32.175,68.71-32.18,43.59,0,71.62,33.01t28.02,101.09q0,66.435-29.47,99.64-29.49,33.225-72.66,33.22-39.03,0-66.22-32.39t-27.19-102.96Q6752.96,4264.66,6780.15,4232.49Zm397.53-279.62v608.64h116.67V4340.64q0-55.635,10.59-84.07t33.62-42.35q23.055-13.905,51.69-13.91,25.74,0,42.77,11a55.409,55.409,0,0,1,23.25,29.69q6.225,18.675,6.22,87.6v232.91h116.67V4302.86q0-59.37-6.02-87.4a144.652,144.652,0,0,0-22-51.48q-15.99-23.445-48.37-38.19t-73.07-14.74q-78.48,0-135.35,65.18V3952.87H7177.68Zm1161.26,775.96V4120.18H8230.99v65.6q-48.99-74.73-132.44-74.73-80.13,0-134.1,59.37t-53.98,165.65q0,107.535,51.9,171.68t129.12,64.14q40.26,0,74.11-17.44a174.578,174.578,0,0,0,57.09-46.5v220.88h116.25Zm-143.03-286.06q-30.1,36.12-71.21,36.12-39.855,0-67.05-31.76t-27.19-104.83q0-73.485,28.02-106.91,28.035-33.405,70.38-33.42,41.925,0,69.54,33.01t27.61,100.26Q8226.01,4406.655,8195.91,4442.77Zm656.6,118.74V4120.18H8735.02v186.41q0,95.085-8.52,119.37t-32.17,40.48q-23.67,16.185-53.56,16.19-26.16,0-43.18-12.46a63.163,63.163,0,0,1-23.46-33.21q-6.435-20.76-6.43-113.34V4120.18H8451.03v279.83q0,61.86,15.78,97.15t51.07,55.01q35.28,19.71,79.71,19.72a176.468,176.468,0,0,0,82.62-20.55q39.435-20.55,63.52-56.26v66.43h108.78Zm235.82-348.95q17.445-12.24,48.99-12.25,45.675,0,62.28,13.91t16.61,47.95v12.04q-31.56,12.45-112.93,27.82-61.455,12.045-93.21,27.81-31.755,15.8-49.61,44.64-17.865,28.86-17.86,66.22,0,56.88,39.03,94.03,39.015,37.17,107.12,37.16,76.38,0,137.01-58.95,1.245,2.91,6.02,20.75,4.755,17.865,9.34,27.82h114.59q-15.375-31.545-20.76-59.16-5.4-27.6-5.4-85.32l1.66-137.01q0-75.555-15.78-104-15.78-28.425-53.97-46.7t-116.66-18.27q-85.95,0-129.33,30.51t-61.24,94.46l105.45,19.51Q9070.9,4224.81,9088.33,4212.56Zm127.88,160.05q0,45.675-5.4,61.03a70.865,70.865,0,0,1-18.06,27.61,101.7,101.7,0,0,1-31.14,20.13,95.843,95.843,0,0,1-37.99,7.89q-28.23,0-46.5-17.85t-18.27-42.35q0-24.915,23.25-41.1,14.115-9.96,63.11-20.34t71-17.86v22.84Zm346.26,188.9V3952.87H9445.8v608.64h116.67Zm236.23-500.7V3952.87H9682.04v107.94H9798.7Zm0,500.7V4120.18H9682.04v441.33H9798.7Zm242.1-441.33V3964.49l-117.13,68.09v87.6h-53.56v93.42h53.56v192.22q0,78.06,10.17,107.12t38.41,44q28.23,14.955,65.15,14.95,51.9,0,92.6-17.85l-9.9-90.51c-20.5,7.47-36.2,11.21-47,11.21-7.7,0-14.3-2-19.7-6.02a26.9,26.9,0,0,1-10.4-14.95q-2.25-8.91-2.2-62.48V4213.6h80.1v-93.42h-80.1Zm273.1,442.16c-6.9,24.91-16.8,45.32-29.9,61.24-13,15.91-33,23.87-60.2,23.87a274.442,274.442,0,0,1-49.4-4.98l10,90.92a329.412,329.412,0,0,0,66.4,6.65q42,0,72.7-10.8a122.723,122.723,0,0,0,51.7-34.25q21-23.46,40.9-73.28l183.5-501.53h-120.8l-103,313.87-105.5-313.87h-124.1Zm624.1-27.19q52.65,36.735,142.8,36.74,99.6,0,150.1-43.8,50.4-43.8,50.4-104.42,0-57.69-37.6-87.6-37.5-29.895-129.3-51.06-67.2-15.36-93.8-25.54c-17.7-6.78-26.6-16.4-26.6-28.85q0-36.54,79.3-36.54,68.85,0,83,53.56l110.1-20.34q-16.2-57.705-60.5-86.98-44.1-29.28-134.3-29.27-95.4,0-140.9,39.02-45.45,39.03-45.5,95.91,0,63.945,52.8,99.64,37.35,25.335,178.5,56.88c19.3,3.88,32.2,8.79,38.4,14.74a29.065,29.065,0,0,1,9.3,21.8c0,15.77-7.4,27.81-22.4,36.12-14.9,8.3-35.3,12.45-61,12.45q-78.9,0-94.3-69.75l-117.5,17.85Q10885.2,4498.41,10938,4535.15Zm626.9-50.86c-27.4,0-50.1-9.69-67.9-29.06-17.9-19.37-27.3-46.36-28.5-80.96h292.7v-11.21q0-124.965-55.8-188.49t-153.4-63.52q-87.6,0-144.9,62.07t-57.3,171.67q0,104.22,55,165.66,55.05,61.44,158.4,61.44,144.9,0,191.8-131.19l-116.2-19.52q-18.3,63.12-73.9,63.11h0Zm-93.9-181.43v-2.91c0-29.89,8.3-53.97,24.7-72.24q24.75-27.405,62.9-27.4,35.7,0,60.5,26.36,24.6,26.37,26.3,76.19H11471Zm497,122.47q0-112.095,9.8-147.38,9.75-35.28,26.7-48.99c11.4-9.14,25.2-13.7,41.6-13.7,17.1,0,35.3,6.37,54.4,19.09l36.5-101.3q-37.35-22.005-76.4-22-29.1,0-51.1,13.91c-14.6,9.27-31.4,28.71-50.2,58.33v-63.11h-108v441.33H11968V4425.33Zm445.5,136.18,175.2-441.33h-120l-83.9,225.44a385.461,385.461,0,0,0-12,37.37l-12.9,37.36-23.6-74.73-83.5-225.44h-122.5l177.7,441.33h105.5Zm363.3-500.7V3952.87h-116.7v107.94h116.7Zm0,500.7V4120.18h-116.7v441.33h116.7Zm436.1-416.21q-47.55-34.26-128.5-34.25-98.85,0-156.1,60.61-57.3,60.63-57.3,169.81,0,107.955,57.3,169.18,57.3,61.245,154.5,61.24,167.7,0,203.8-159.84l-114.6-19.93q-8.25,46.08-29.7,65.18-21.3,19.11-54.6,19.1c-29.3,0-52.8-10.72-70.3-32.18q-26.4-32.16-26.4-111.47,0-70.575,26-100.26,25.95-29.685,69.1-29.69,32.4,0,53.1,17.44,20.85,17.43,27,51.48l114.6-20.76Q13260.4,4179.56,13212.9,4145.3Zm337.8,338.99c-27.4,0-50.1-9.69-67.9-29.06q-26.85-29.055-28.5-80.96H13747v-11.21q0-124.965-55.8-188.49t-153.4-63.52q-87.6,0-144.9,62.07t-57.3,171.67q0,104.22,55,165.66,55.05,61.44,158.4,61.44,144.9,0,191.8-131.19l-116.2-19.52q-18.3,63.12-73.9,63.11h0Zm-93.9-181.43v-2.91c0-29.89,8.3-53.97,24.7-72.24q24.75-27.405,62.9-27.4c23.8,0,44,8.79,60.4,26.36q24.75,26.37,26.4,76.19h-174.4Zm412.7,232.29q52.8,36.735,142.8,36.74,99.75,0,150.1-43.8,50.55-43.8,50.5-104.42,0-57.69-37.6-87.6-37.5-29.895-129.3-51.06c-44.9-10.24-76.1-18.75-93.9-25.54-17.7-6.78-26.5-16.4-26.5-28.85q0-36.54,79.3-36.54,68.85,0,83,53.56l110-20.34q-16.2-57.705-60.4-86.98-44.25-29.28-134.3-29.27-95.55,0-140.9,39.02-45.45,39.03-45.5,95.91,0,63.945,52.7,99.64,37.35,25.335,178.6,56.88,28.95,5.82,38.4,14.74a29.065,29.065,0,0,1,9.3,21.8c0,15.77-7.5,27.81-22.4,36.12-15,8.3-35.3,12.45-61.1,12.45-52.5,0-84-23.25-94.2-69.75l-117.5,17.85Q13816.8,4498.41,13869.5,4535.15Zm562.2,26.36V4444.85H14315v116.66h116.7ZM374.99,5527.32V5272.4l223.781-353.73H456.78L316.45,5159.06,173.629,4918.67H29.977l222.951,352.9v255.75H374.99Zm285.435-97.78q28.434,52.53,83.658,80.34t115.835,27.82q97.56,0,162.332-66.02t64.77-166.48q0-98.4-63.94-163.37t-163.992-64.98q-64.768,0-117.5,28.44t-81.167,82.83q-28.443,54.39-28.44,112.1Q631.985,5377.02,660.425,5429.54ZM782.9,5206.8q30.924-34.875,77.015-34.87,44.84,0,75.978,34.87t31.138,99.64q0,66.015-31.138,100.89t-75.978,34.87q-46.084,0-77.015-34.87t-30.931-100.06Q751.972,5241.675,782.9,5206.8Zm794.447,320.52V5085.99h-117.5V5272.4q0,95.07-8.51,119.36t-32.18,40.48q-23.655,16.2-53.55,16.19-26.16,0-43.18-12.45a63.134,63.134,0,0,1-23.46-33.22q-6.45-20.745-6.44-113.34V5085.99H1175.87v279.82q0,61.875,15.78,97.15,15.765,35.295,51.06,55.01,35.28,19.725,79.72,19.73,43.17,0,82.62-20.56,39.435-20.55,63.52-56.25v66.43h108.78Zm552.18,0,75.15-283.15,75.56,283.15h112.1l141.16-441.33H2418.91l-84.28,288.96-73.07-288.96H2148.63l-75.98,288.96-82.2-288.96H1876.27l139.5,441.33h113.76Zm582.5-500.7V4918.67H2595.36v107.95h116.67Zm0,500.7V5085.99H2595.36v441.33h116.67Zm236.23,0V4918.67H2831.6v608.65h116.66Zm236.24,0V4918.67H3067.84v608.65H3184.5Zm759.78-608.65H3828.03v219.21q-53.565-61.035-127.88-61.03-80.55,0-133.27,58.13t-52.73,170.22q0,110.025,53.97,171.26t130.37,61.24q37.365,0,74.11-18.9t63.73-56.25v64.77h107.95V4918.67Zm-282.95,280.04q28.035-32.6,69.54-32.6,42.765,0,70.38,33.01t27.61,109.81q0,68.1-28.44,101.93t-68.72,33.84q-44.43,0-71.41-34.26-26.985-34.245-26.98-113.55Q3633.31,5231.3,3661.33,5198.71Zm579.8,251.38q-41.1,0-67.88-29.06t-28.44-80.96h292.7v-11.21q0-124.965-55.84-188.49-55.845-63.51-153.41-63.52-87.615,0-144.9,62.07-57.3,62.07-57.29,171.67,0,104.22,55.01,165.66t158.39,61.45q144.885,0,191.81-131.2l-116.25-19.51q-18.27,63.105-73.9,63.1h0Zm-93.83-181.43v-2.9q0-44.85,24.7-72.24,24.7-27.405,62.9-27.41,35.7,0,60.41,26.37,24.69,26.37,26.36,76.18H4147.3Zm334.63-90.92h64.35v349.58h116.67V5177.74h87.6v-91.75h-87.6v-30.73q0-34.035,11-45.87t36.33-11.84a235.6,235.6,0,0,1,53.97,6.65l14.95-80.55a311.794,311.794,0,0,0-96.74-15.36q-49.41,0-80.75,17.44t-43.39,44.63q-12.045,27.2-12.04,82.41v33.22h-64.35v91.75Zm450.47-151.12V4918.67H4815.74v107.95H4932.4Zm0,500.7V5085.99H4815.74v441.33H4932.4Zm520.22-273.6q0-51.075-6.44-78.68a134.057,134.057,0,0,0-22.42-49.41q-15.99-21.795-47.95-35.29-31.98-13.485-71-13.49-87.6,0-145.31,74.73v-65.59H5051.14v441.33h116.67v-199.7q0-73.9,8.92-101.31a82.368,82.368,0,0,1,33.22-43.8,94.005,94.005,0,0,1,53.76-16.4q24.075,0,41.1,11.42t24.09,32.18q7.05,20.76,7.05,92.17v225.44h116.67v-273.6Zm235.4-227.1V4918.67H5571.36v107.95h116.66Zm0,500.7V5085.99H5571.36v441.33h116.66Zm242.05-441.33v-155.7l-117.08,68.09v87.61h-53.56v93.41h53.56v192.23q0,78.045,10.17,107.11t38.41,44.01q28.23,14.94,65.18,14.95,51.9,0,92.59-17.86l-9.97-90.51q-30.72,11.22-46.91,11.21-11.64,0-19.72-6.02a26.4,26.4,0,0,1-10.38-14.94q-2.295-8.925-2.29-62.49V5179.4h80.13v-93.41h-80.13Zm342.11,364.1q-41.1,0-67.88-29.06t-28.44-80.96h292.7v-11.21q0-124.965-55.84-188.49-55.845-63.51-153.41-63.52-87.615,0-144.9,62.07t-57.29,171.67q0,104.22,55.01,165.66t158.39,61.45q144.885,0,191.81-131.2l-116.25-19.51q-18.27,63.105-73.9,63.1h0Zm-93.83-181.43v-2.9q0-44.85,24.7-72.24,24.705-27.405,62.9-27.41,35.7,0,60.41,26.37,24.69,26.37,26.36,76.18H6178.35Zm501.95,258.66V4918.67H6563.63v608.65H6680.3Zm232.08,0.83q-10.38,37.365-29.89,61.23-19.515,23.88-60.2,23.88a273.191,273.191,0,0,1-49.41-4.99l9.97,90.93a330.356,330.356,0,0,0,66.43,6.64q41.925,0,72.65-10.79a122.617,122.617,0,0,0,51.69-34.26q20.97-23.46,40.9-73.27l183.51-501.53H7077.21l-102.96,313.87-105.46-313.87H6744.65Zm545.96-350.41h64.36v349.58h116.66V5177.74h87.6v-91.75h-87.6v-30.73q0-34.035,11-45.87t36.33-11.84a235.754,235.754,0,0,1,53.98,6.65l14.94-80.55a311.778,311.778,0,0,0-96.73-15.36q-49.425,0-80.76,17.44t-43.38,44.63q-12.045,27.2-12.04,82.41v33.22h-64.36v91.75Zm450.47-151.12V4918.67H7792.15v107.95h116.66Zm0,500.7V5085.99H7792.15v441.33h116.66Zm520.22-273.6q0-51.075-6.43-78.68a134.38,134.38,0,0,0-22.42-49.41q-15.99-21.795-47.96-35.29t-70.99-13.49q-87.615,0-145.32,74.73v-65.59H8027.55v441.33h116.67v-199.7q0-73.9,8.92-101.31a82.417,82.417,0,0,1,33.22-43.8,94.005,94.005,0,0,1,53.76-16.4q24.075,0,41.11,11.42,17.01,11.43,24.08,32.18,7.05,20.76,7.06,92.17v225.44h116.66v-273.6Zm522.71-335.05H8835.49v219.21q-53.565-61.035-127.88-61.03-80.55,0-133.27,58.13t-52.72,170.22q0,110.025,53.97,171.26t130.36,61.24q37.365,0,74.11-18.9t63.73-56.25v64.77h107.95V4918.67ZM8668.8,5198.71q28.02-32.6,69.54-32.6,42.75,0,70.37,33.01,27.6,33,27.61,109.81,0,68.1-28.44,101.93t-68.71,33.84q-44.43,0-71.41-34.26-27-34.245-26.99-113.55Q8640.77,5231.3,8668.8,5198.71ZM119.24,6466.76q52.722,36.735,142.822,36.74,99.642,0,150.087-43.8t50.444-104.42q0-57.7-37.574-87.6t-129.328-51.07q-67.258-15.345-93.83-25.53-26.575-10.17-26.572-28.85,0-36.54,79.3-36.54,68.913,0,83.036,53.56l110.022-20.35q-16.191-57.69-60.408-86.97t-134.31-29.27q-95.5,0-140.953,39.02t-45.462,95.91q0,63.93,52.727,99.64,37.367,25.32,178.527,56.88,29.056,5.82,38.4,14.74a29,29,0,0,1,9.341,21.79q0,23.67-22.419,36.12t-61.031,12.46q-78.888,0-94.246-69.75l-117.5,17.85Q66.513,6430.02,119.24,6466.76Zm446.94-71.41q28.433,52.515,83.658,80.33t115.835,27.82q97.56,0,162.334-66.01T992.775,6271q0-98.4-63.937-163.37t-164-64.97q-64.767,0-117.495,28.43-52.731,28.455-81.167,82.83-28.443,54.4-28.44,112.1Q537.74,6342.835,566.18,6395.35ZM688.657,6172.6q30.924-34.86,77.016-34.87,44.84,0,75.977,34.87t31.139,99.65q0,66.015-31.139,100.88t-75.977,34.88q-46.086,0-77.016-34.88t-30.931-100.05Q657.726,6207.485,688.657,6172.6Zm387.153,320.52h116.67V6278.89q0-63.93,9.34-91.13t30.51-41.52q21.18-14.325,48.58-14.32,22.83,0,35.5,8.92,12.66,8.94,19.09,27.61,6.435,18.69,6.44,83.04v241.63H1458.6V6281.38q0-61.86,9.76-90.92t30.93-43.8q21.18-14.745,45.67-14.74,30.3,0,46.29,19.1t15.99,90.5v251.6H1723.9V6210.8q0-69.75-17.43-102.13a116.091,116.091,0,0,0-50.03-49.2q-32.6-16.815-77.43-16.81-76.4,0-134.11,69.33-39.435-69.33-124.13-69.33-80.145,0-137.84,69.33v-60.2H1075.81v441.33Zm945.78-77.22q-41.115,0-67.88-29.06-26.79-29.07-28.44-80.96h292.7v-11.21q0-124.965-55.85-188.49t-153.4-63.52q-87.615,0-144.9,62.06t-57.3,171.68q0,104.22,55.02,165.65,55.005,61.455,158.39,61.45,144.885,0,191.81-131.2l-116.25-19.51q-18.27,63.12-73.9,63.11h0Zm-93.83-181.43v-2.91q0-44.835,24.7-72.24t62.9-27.4q35.7,0,60.41,26.36,24.69,26.37,26.36,76.19H1927.76Zm507.76-182.68V5896.1l-117.08,68.09v87.6h-53.56v93.41h53.56v192.23q0,78.06,10.17,107.11,10.17,29.07,38.4,44.01,28.23,14.955,65.19,14.95,51.885,0,92.58-17.85l-9.96-90.51q-30.735,11.2-46.92,11.21-11.625,0-19.72-6.02a26.473,26.473,0,0,1-10.38-14.95q-2.28-8.925-2.28-62.48V6145.2h80.13v-93.41h-80.13Zm159.84-167.32v608.65h116.67V6272.25q0-55.635,10.58-84.08,10.59-28.425,33.63-42.34,23.055-13.9,51.69-13.91,25.74,0,42.77,11a55.423,55.423,0,0,1,23.25,29.68q6.225,18.69,6.22,87.61v232.91h116.67V6234.47q0-59.37-6.02-87.4a144.652,144.652,0,0,0-22-51.48q-15.99-23.445-48.37-38.2-32.385-14.73-73.07-14.73-78.48,0-135.35,65.18V5884.47H2595.36Zm636.89,107.95V5884.47H3115.58v107.95h116.67Zm0,500.7V6051.79H3115.58v441.33h116.67Zm520.21-273.6q0-51.06-6.43-78.68a134.26,134.26,0,0,0-22.42-49.4q-15.99-21.795-47.95-35.29-31.98-13.485-71-13.49-87.6,0-145.31,74.73v-65.6H3350.99v441.33h116.66v-199.7q0-73.89,8.93-101.3a82.325,82.325,0,0,1,33.21-43.8,94.014,94.014,0,0,1,53.77-16.4q24.075,0,41.1,11.42t24.08,32.17q7.05,20.76,7.06,92.17v225.44h116.66v-273.6Zm107.95,316.78q0,58.95,46.71,97.15t158.8,38.19q75.15,0,121.44-20.96t67.05-65.39q20.76-44.43,20.76-137.42V6051.79h-109.6v62.28q-52.74-71.415-134.52-71.41-78.885,0-132.44,58.12t-53.56,169.39q0,98.82,50.24,160.88,50.22,62.07,130.78,62.07,80.115,0,132.85-71.41v64.77q0,41.925-9.13,60.61t-30.93,26.99q-21.795,8.3-57.92,8.3-30.315,0-46.71-8.72t-20.55-35.29l-133.27-16.19v14.12Zm131.82-372.21q27.18-32.16,68.71-32.17,43.59,0,71.62,33,28.02,33.015,28.02,101.1,0,66.435-29.47,99.64-29.49,33.225-72.66,33.21-39.03,0-66.22-32.38t-27.19-102.96Q3965.04,6196.27,3992.23,6164.09Zm662,302.67q52.725,36.735,142.82,36.74,99.645,0,150.09-43.8t50.44-104.42q0-57.7-37.57-87.6t-129.33-51.07q-67.26-15.345-93.83-25.53-26.58-10.17-26.57-28.85,0-36.54,79.3-36.54,68.91,0,83.03,53.56l110.03-20.35q-16.2-57.69-60.41-86.97t-134.31-29.27q-95.505,0-140.95,39.02-45.465,39.03-45.47,95.91,0,63.93,52.73,99.64,37.365,25.32,178.53,56.88,29.055,5.82,38.4,14.74a28.988,28.988,0,0,1,9.34,21.79q0,23.67-22.42,36.12t-61.03,12.46q-78.885,0-94.24-69.75l-117.5,17.85Q4601.51,6430.02,4654.23,6466.76Zm844.47,26.36V6051.79H5381.21V6238.2q0,95.085-8.51,119.36-8.52,24.3-32.18,40.48-23.67,16.2-53.56,16.2-26.16,0-43.18-12.46a63.092,63.092,0,0,1-23.45-33.21q-6.45-20.76-6.44-113.35V6051.79H5097.23v279.83q0,61.86,15.77,97.15t51.07,55.01q35.28,19.71,79.71,19.72a176.438,176.438,0,0,0,82.62-20.55q39.45-20.55,63.53-56.26v66.43H5498.7Zm237.07-500.7V5884.47H5619.11v107.95h116.66Zm0,500.7V6051.79H5619.11v441.33h116.66Zm242.05-441.33V5896.1l-117.08,68.09v87.6h-53.56v93.41h53.56v192.23q0,78.06,10.17,107.11,10.17,29.07,38.4,44.01,28.23,14.955,65.19,14.95,51.885,0,92.58-17.85l-9.96-90.51q-30.735,11.2-46.92,11.21-11.625,0-19.72-6.02a26.473,26.473,0,0,1-10.38-14.95q-2.28-8.925-2.28-62.48V6145.2h80.13v-93.41h-80.13Zm276.09,92.38q17.445-12.255,48.99-12.25,45.675,0,62.28,13.91t16.61,47.95v12.04q-31.56,12.45-112.93,27.82-61.455,12.045-93.21,27.81-31.755,15.78-49.61,44.63t-17.86,66.22q0,56.895,39.03,94.04,39.015,37.17,107.12,37.16,76.38,0,137.01-58.96,1.245,2.91,6.02,20.76,4.755,17.865,9.34,27.82h114.59q-15.375-31.545-20.76-59.16t-5.4-85.32l1.66-137.01q0-75.555-15.78-104t-53.97-46.71q-38.205-18.255-116.66-18.26-85.95,0-129.33,30.51-43.4,30.51-61.24,94.45l105.45,19.52Q6236.48,6156.42,6253.91,6144.17Zm127.88,160.05q0,45.675-5.4,61.03a70.832,70.832,0,0,1-18.06,27.6,101.539,101.539,0,0,1-31.14,20.14,95.843,95.843,0,0,1-37.99,7.89q-28.23,0-46.5-17.85t-18.27-42.35q0-24.915,23.25-41.1,14.115-9.975,63.11-20.35t71-17.85v22.84Zm332.55,188.9v-64.77q27.4,36.54,63.94,55.84t73.9,19.31q77.235,0,130.78-61.24,53.565-61.23,53.56-174.58,0-108.765-52.52-166.9t-132.65-58.12q-73.905,0-128.29,61.03V5884.47H6606.4v608.65h107.94Zm35.92-329.03q28.02-32.16,69.54-32.17,42.75,0,70.37,33,27.615,33.015,27.61,108.99,0,71.415-27.19,104t-66.64,32.59q-44.43,0-73.07-36.54t-28.65-111.26Q6722.23,6196.28,6750.26,6164.09Zm497.17,329.03V5884.47H7130.77v608.65h116.66Zm301.01-77.22q-41.1,0-67.88-29.06t-28.44-80.96h292.7v-11.21q0-124.965-55.85-188.49t-153.4-63.52q-87.615,0-144.9,62.06t-57.3,171.68q0,104.22,55.02,165.65,55.005,61.455,158.39,61.45,144.885,0,191.81-131.2l-116.25-19.51q-18.27,63.12-73.9,63.11h0Zm-93.83-181.43v-2.91q0-44.835,24.7-72.24t62.9-27.4q35.7,0,60.41,26.36,24.69,26.37,26.36,76.19H7454.61Zm570.87-90.93h64.35v349.58h116.66V6143.54h87.61v-91.75h-87.61v-30.72q0-34.05,11.01-45.88,10.995-11.835,36.33-11.83a236.26,236.26,0,0,1,53.97,6.64l14.94-80.54a311.494,311.494,0,0,0-96.73-15.37q-49.41,0-80.75,17.44-31.365,17.445-43.39,44.63-12.045,27.195-12.04,82.42v33.21h-64.35v91.75Zm335.25,251.81q28.44,52.515,83.66,80.33t115.84,27.82q97.56,0,162.33-66.01T8787.33,6271q0-98.4-63.94-163.37t-163.99-64.97q-64.77,0-117.5,28.43-52.725,28.455-81.17,82.83-28.44,54.4-28.44,112.1Q8332.29,6342.835,8360.73,6395.35Zm122.48-222.75q30.93-34.86,77.02-34.87,44.835,0,75.97,34.87t31.14,99.65q0,66.015-31.14,100.88t-75.97,34.88q-46.095,0-77.02-34.88t-30.93-100.05Q8452.28,6207.485,8483.21,6172.6Zm507.14,184.34q0-112.095,9.76-147.38t26.78-48.99q17.01-13.71,41.51-13.71,25.74,0,54.39,19.1l36.54-101.3q-37.365-22.005-76.39-22-29.07,0-51.07,13.9-22.02,13.92-50.24,58.34v-63.11H8873.69v441.33h116.66V6356.94Zm567.96,137.01q-10.38,37.365-29.89,61.24t-60.2,23.87a274.022,274.022,0,0,1-49.41-4.98l9.97,90.92a329.633,329.633,0,0,0,66.43,6.64q41.925,0,72.65-10.79a122.69,122.69,0,0,0,51.69-34.25q20.97-23.46,40.9-73.28l183.51-501.53H9723.14l-102.96,313.87-105.46-313.87H9390.58Zm361.83-98.6q28.44,52.515,83.66,80.33,55.2,27.81,115.8,27.82,97.65,0,162.4-66.01,64.65-66.015,64.7-166.49,0-98.4-63.9-163.37t-164-64.97q-64.8,0-117.5,28.43-52.71,28.455-81.16,82.83-28.44,54.4-28.44,112.1Q9891.7,6342.835,9920.14,6395.35Zm122.46-222.75q30.9-34.86,77-34.87c29.9,0,55.3,11.63,76,34.87q31.2,34.875,31.2,99.65,0,66.015-31.2,100.88c-20.7,23.25-46.1,34.88-76,34.88q-46.05,0-77-34.88-30.9-34.875-30.9-100.05Q10011.7,6207.485,10042.6,6172.6Zm794.5,320.52V6051.79h-117.5V6238.2q0,95.085-8.5,119.36-8.55,24.3-32.2,40.48-23.7,16.2-53.6,16.2-26.1,0-43.2-12.46a63.39,63.39,0,0,1-23.4-33.21q-6.45-20.76-6.4-113.35V6051.79h-116.7v279.83c0,41.24,5.2,73.63,15.8,97.15q15.75,35.3,51,55.01c23.6,13.14,50.1,19.72,79.7,19.72a176.753,176.753,0,0,0,82.7-20.55,170.082,170.082,0,0,0,63.5-56.26v66.43h108.8Zm232-136.18q0-112.095,9.8-147.38,9.75-35.3,26.8-48.99c11.3-9.14,25.2-13.71,41.5-13.71q25.8,0,54.4,19.1l36.5-101.3q-37.35-22.005-76.4-22c-19.3,0-36.4,4.63-51,13.9q-22.05,13.92-50.3,58.34v-63.11h-107.9v441.33h116.6V6356.94Zm246.7,109.82q52.65,36.735,142.8,36.74,99.6,0,150.1-43.8,50.4-43.8,50.4-104.42,0-57.7-37.6-87.6-37.5-29.9-129.3-51.07-67.2-15.345-93.8-25.53c-17.7-6.78-26.6-16.4-26.6-28.85q0-36.54,79.3-36.54,69,0,83,53.56l110.1-20.35q-16.2-57.69-60.4-86.97-44.25-29.28-134.4-29.27-95.4,0-140.9,39.02-45.45,39.03-45.5,95.91,0,63.93,52.8,99.64,37.35,25.32,178.5,56.88,29.1,5.82,38.4,14.74a29.059,29.059,0,0,1,9.3,21.79c0,15.78-7.4,27.82-22.4,36.12-14.9,8.31-35.3,12.46-61,12.46q-78.9,0-94.3-69.75l-117.5,17.85Q11263,6430.02,11315.8,6466.76Zm626.9-50.86q-41.1,0-67.9-29.06c-17.9-19.38-27.3-46.36-28.4-80.96h292.7v-11.21q0-124.965-55.9-188.49-55.8-63.525-153.4-63.52-87.6,0-144.9,62.06t-57.3,171.68q0,104.22,55,165.65,55.05,61.455,158.4,61.45,144.9,0,191.8-131.2l-116.2-19.51q-18.3,63.12-73.9,63.11h0Zm-93.8-181.43v-2.91q0-44.835,24.7-72.24,24.6-27.4,62.9-27.4,35.7,0,60.4,26.36,24.6,26.37,26.3,76.19h-174.3Zm501.9,258.65V5884.47h-116.7v608.65h116.7Zm68.9-349.58h64.4v349.58h116.6V6143.54h87.6v-91.75h-87.6v-30.72c0-22.7,3.7-37.99,11-45.88,7.4-7.89,19.5-11.83,36.4-11.83a235.811,235.811,0,0,1,53.9,6.64l15-80.54a311.681,311.681,0,0,0-96.7-15.37q-49.5,0-80.8,17.44-31.35,17.445-43.4,44.63-12,27.195-12,82.42v33.21h-64.4v91.75Zm686.7-151.12V5884.47h-116.6v107.95h116.6Zm0,500.7V6051.79h-116.6v441.33h116.6Zm520.2-273.6q0-51.06-6.4-78.68a135.04,135.04,0,0,0-22.4-49.4q-16.05-21.795-48-35.29c-21.3-8.99-44.9-13.49-71-13.49q-87.6,0-145.3,74.73v-65.6h-108.3v441.33h116.6v-199.7q0-73.89,9-101.3,8.85-27.4,33.2-43.8a93.955,93.955,0,0,1,53.7-16.4q24.15,0,41.1,11.42c11.4,7.61,19.4,18.33,24.1,32.17s7.1,44.57,7.1,92.17v225.44h116.6v-273.6Zm356.5,175.83q28.35,52.515,83.6,80.33a254.514,254.514,0,0,0,115.9,27.82q97.5,0,162.3-66.01t64.8-166.49q0-98.4-64-163.37-63.9-64.965-164-64.97-64.65,0-117.5,28.43-52.65,28.455-81.1,82.83-28.5,54.4-28.5,112.1Q13954.6,6342.835,13983.1,6395.35Zm122.5-222.75c20.6-23.24,46.2-34.87,77-34.87q44.85,0,75.9,34.87,31.2,34.875,31.2,99.65,0,66.015-31.2,100.88-31.05,34.875-75.9,34.88c-30.8,0-56.4-11.63-77-34.88q-31.05-34.875-31-100.05Q14074.6,6207.485,14105.6,6172.6Zm794.4,320.52V6051.79h-117.5V6238.2q0,95.085-8.5,119.36-8.55,24.3-32.2,40.48-23.7,16.2-53.5,16.2-26.25,0-43.2-12.46a63.014,63.014,0,0,1-23.5-33.21q-6.45-20.76-6.4-113.35V6051.79h-116.7v279.83q0,61.86,15.8,97.15,15.75,35.3,51.1,55.01,35.25,19.71,79.7,19.72,43.2,0,82.6-20.55,39.45-20.55,63.5-56.26v66.43H14900Zm232.1-136.18q0-112.095,9.7-147.38c6.5-23.53,15.5-39.86,26.8-48.99,11.4-9.14,25.2-13.71,41.5-13.71q25.8,0,54.4,19.1l36.6-101.3c-25-14.67-50.4-22-76.4-22q-29.1,0-51.1,13.9-22.05,13.92-50.2,58.34v-63.11h-108v441.33h116.7V6356.94ZM208.5,7458.92V6850.28H91.839v608.64H208.5Zm234.99-348.95q17.438-12.24,48.991-12.25,45.667,0,62.277,13.91t16.607,47.95v12.04q-31.557,12.465-112.928,27.82-61.45,12.045-93.208,27.82t-49.613,44.63q-17.856,28.86-17.853,66.22,0,56.88,39.027,94.03,39.02,37.17,107.116,37.16,76.386,0,137.008-58.95,1.247,2.91,6.02,20.76t9.342,27.81H710.869q-15.365-31.545-20.759-59.16t-5.4-85.32l1.661-137q0-75.57-15.777-104.01t-53.973-46.7q-38.2-18.27-116.665-18.27-85.943,0-129.328,30.51t-61.239,94.46l105.455,19.51Q426.057,7122.22,443.494,7109.97Zm127.875,160.05q0,45.675-5.4,61.03a70.865,70.865,0,0,1-18.06,27.61,101.645,101.645,0,0,1-31.139,20.14,95.833,95.833,0,0,1-37.988,7.88q-28.239,0-46.5-17.85t-18.268-42.35q0-24.9,23.25-41.1,14.109-9.96,63.107-20.34t71-17.86v22.84Zm341.277,52.73q0-112.095,9.756-147.39,9.75-35.28,26.779-48.99t41.518-13.7q25.742,0,54.391,19.1l36.53-101.31q-37.365-21.99-76.39-22-29.066,0-51.067,13.91t-50.236,58.33v-63.11H795.981v441.33H912.646V7322.75ZM1121.06,7502.1q0,58.95,46.71,97.15t158.81,38.2q75.135,0,121.44-20.97t67.05-65.39q20.76-44.43,20.76-137.42V7017.59H1426.22v62.28q-52.725-71.4-134.52-71.41-78.885,0-132.44,58.12-53.55,58.14-53.56,169.39,0,98.82,50.24,160.88,50.235,62.085,130.78,62.07,80.13,0,132.86-71.41v64.77q0,41.925-9.14,60.62-9.135,18.675-30.93,26.98t-57.91,8.31q-30.315,0-46.71-8.72t-20.55-35.29l-133.28-16.19v14.11Zm131.82-372.2q27.195-32.175,68.72-32.18,43.59,0,71.61,33.01,28.035,33,28.03,101.09,0,66.435-29.48,99.64-29.49,33.225-72.66,33.22-39.03,0-66.22-32.38t-27.19-102.97Q1225.69,7162.07,1252.88,7129.9Zm579.8,251.8q-41.1,0-67.88-29.06t-28.44-80.96h292.7v-11.21q0-124.965-55.84-188.49t-153.41-63.52q-87.6,0-144.9,62.07t-57.29,171.67q0,104.22,55.01,165.66t158.39,61.44q144.885,0,191.81-131.19l-116.25-19.52q-18.27,63.12-73.9,63.11h0Zm-93.83-181.43v-2.91q0-44.835,24.7-72.24,24.705-27.39,62.9-27.4,35.7,0,60.41,26.37t26.36,76.18H1738.85Zm618.2,425.97h116.67v-221.7q33.21,35.7,62.48,50.23t65.81,14.53q77.22,0,131.4-61.24t54.18-172.09q0-107.94-53.56-167.73-53.55-59.775-131.19-59.78-43.185,0-79.3,20.76t-57.71,53.97v-65.6H2357.05v608.65Zm143.86-493.02q28.02-33.015,70.37-33.01,41.94,0,69.54,33.63t27.61,102.97q0,74.31-26.78,106.9t-67.46,32.59q-42.765,0-72.04-35.7t-29.27-109.61Q2472.88,7166.22,2500.91,7133.22Zm494.27-23.25q17.43-12.24,48.99-12.25,45.66,0,62.28,13.91,16.59,13.92,16.6,47.95v12.04q-31.545,12.465-112.92,27.82-61.455,12.045-93.21,27.82-31.77,15.78-49.62,44.63t-17.85,66.22q0,56.88,39.03,94.03,39.015,37.17,107.11,37.16,76.395,0,137.01-58.95,1.245,2.91,6.02,20.76t9.34,27.81h114.59q-15.36-31.545-20.76-59.16t-5.39-85.32l1.66-137q0-75.57-15.78-104.01t-53.97-46.7q-38.2-18.27-116.67-18.27-85.935,0-129.32,30.51t-61.24,94.46l105.45,19.51Q2977.735,7122.22,2995.18,7109.97Zm127.87,160.05q0,45.675-5.39,61.03a70.865,70.865,0,0,1-18.06,27.61,101.723,101.723,0,0,1-31.14,20.14,95.832,95.832,0,0,1-37.99,7.88q-28.245,0-46.5-17.85t-18.27-42.35q0-24.9,23.25-41.1,14.115-9.96,63.11-20.34,48.975-10.38,70.99-17.86v22.84Zm346.26,188.9V6850.28H3352.65v608.64h116.66Zm301.01-77.22q-41.115,0-67.89-29.06T3674,7271.68h292.7v-11.21q0-124.965-55.85-188.49t-153.4-63.52q-87.615,0-144.9,62.07-57.3,62.07-57.3,171.67,0,104.22,55.02,165.66t158.39,61.44q144.885,0,191.81-131.19l-116.25-19.52q-18.27,63.12-73.9,63.11h0Zm-93.83-181.43v-2.91q0-44.835,24.7-72.24,24.69-27.39,62.9-27.4,35.7,0,60.41,26.37,24.69,26.37,26.36,76.18H3676.49Zm507.76-182.68V6861.9l-117.08,68.09v87.6h-53.56v93.42h53.56v192.22q0,78.06,10.17,107.12t38.4,44.01q28.23,14.94,65.19,14.94,51.885,0,92.58-17.85l-9.96-90.51q-30.735,11.22-46.92,11.21-11.625,0-19.72-6.02a26.484,26.484,0,0,1-10.38-14.94q-2.28-8.925-2.28-62.49V7111.01h80.13v-93.42h-80.13Zm283.15,0V6861.9l-117.08,68.09v87.6h-53.56v93.42h53.56v192.22q0,78.06,10.17,107.12t38.41,44.01q28.215,14.94,65.18,14.94,51.885,0,92.58-17.85l-9.96-90.51q-30.735,11.22-46.92,11.21-11.625,0-19.72-6.02a26.532,26.532,0,0,1-10.38-14.94q-2.28-8.925-2.28-62.49V7111.01h80.13v-93.42H4467.4Zm342.11,364.11q-41.115,0-67.88-29.06-26.79-29.055-28.44-80.96h292.7v-11.21q0-124.965-55.85-188.49t-153.4-63.52q-87.615,0-144.9,62.07t-57.3,171.67q0,104.22,55.02,165.66,55.005,61.44,158.39,61.44,144.885,0,191.81-131.19l-116.25-19.52q-18.27,63.12-73.9,63.11h0Zm-93.83-181.43v-2.91q0-44.835,24.7-72.24,24.69-27.39,62.9-27.4,35.7,0,60.41,26.37,24.69,26.37,26.36,76.18H4715.68Zm622.97,160.88q28.44,52.53,83.66,80.34t115.83,27.81q97.56,0,162.34-66.01t64.77-166.48q0-98.4-63.94-163.38t-164-64.97q-64.755,0-117.49,28.44t-81.17,82.83q-28.44,54.39-28.44,112.09Q5310.21,7308.635,5338.65,7361.15Zm122.48-222.74q30.93-34.875,77.01-34.88,44.85,0,75.98,34.88t31.14,99.64q0,66.015-31.14,100.89t-75.98,34.87q-46.08,0-77.01-34.87t-30.93-100.06Q5430.2,7173.285,5461.13,7138.41Zm344.8-29.06h64.36v349.57h116.66V7109.35h87.6v-91.76h-87.6v-30.72q0-34.035,11-45.88t36.33-11.83a236.277,236.277,0,0,1,53.98,6.64l14.94-80.54a311.5,311.5,0,0,0-96.74-15.36q-49.41,0-80.75,17.44t-43.38,44.63q-12.045,27.2-12.04,82.41v33.21h-64.36v91.76Zm886.62-66.64q-47.55-34.245-128.5-34.25-98.82,0-156.11,60.61-57.285,60.63-57.29,169.81,0,107.955,57.29,169.18,57.3,61.245,154.45,61.24,167.73,0,203.85-159.84l-114.59-19.93q-8.31,46.1-29.68,65.19-21.39,19.095-54.6,19.09-44.01,0-70.37-32.17t-26.37-111.48q0-70.575,25.95-100.26t69.13-29.69q32.385,0,53.14,17.44t26.99,51.48l114.59-20.76Q6740.075,7076.97,6692.55,7042.71Zm157.76,318.44q28.44,52.53,83.66,80.34t115.84,27.81q97.56,0,162.33-66.01t64.77-166.48q0-98.4-63.94-163.38t-163.99-64.97q-64.77,0-117.5,28.44t-81.17,82.83q-28.44,54.39-28.44,112.09Q6821.87,7308.635,6850.31,7361.15Zm122.48-222.74q30.93-34.875,77.02-34.88,44.835,0,75.98,34.88,31.125,34.875,31.13,99.64,0,66.015-31.13,100.89t-75.98,34.87q-46.1,0-77.02-34.87t-30.93-100.06Q6941.86,7173.285,6972.79,7138.41Zm512.12,320.51V6850.28H7368.25v608.64h116.66Zm121.03-97.77q28.425,52.53,83.66,80.34,55.215,27.81,115.83,27.81,97.56,0,162.34-66.01,64.755-66.015,64.76-166.48,0-98.4-63.93-163.38-63.945-64.965-164-64.97-64.77,0-117.49,28.44-52.74,28.44-81.17,82.83t-28.44,112.09Q7577.5,7308.635,7605.94,7361.15Zm122.48-222.74q30.915-34.875,77.01-34.88,44.835,0,75.98,34.88t31.14,99.64q0,66.015-31.14,100.89t-75.98,34.87q-46.08,0-77.01-34.87t-30.93-100.06Q7697.49,7173.285,7728.42,7138.41Zm507.14,184.34q0-112.095,9.75-147.39,9.75-35.28,26.78-48.99t41.52-13.7q25.74,0,54.39,19.1l36.53-101.31q-37.365-21.99-76.39-22-29.07,0-51.07,13.91t-50.23,58.33v-63.11H8118.89v441.33h116.67V7322.75Zm246.61,109.81q52.725,36.75,142.82,36.74,99.645,0,150.09-43.8t50.44-104.41q0-57.7-37.57-87.61-37.575-29.88-129.33-51.06-67.26-15.36-93.83-25.54t-26.57-28.85q0-36.525,79.3-36.54,68.91,0,83.04,53.56l110.02-20.34q-16.2-57.705-60.41-86.98t-134.31-29.27q-95.505,0-140.95,39.03-45.465,39.03-45.47,95.9,0,63.945,52.73,99.64,37.365,25.335,178.53,56.88,29.055,5.82,38.4,14.74a29.009,29.009,0,0,1,9.34,21.8q0,23.655-22.42,36.12t-61.03,12.45q-78.885,0-94.24-69.75l-117.5,17.86Q8429.45,7395.815,8482.17,7432.56Zm797.14-322.59q17.445-12.24,48.99-12.25,45.675,0,62.28,13.91t16.61,47.95v12.04q-31.56,12.465-112.93,27.82-61.455,12.045-93.21,27.82t-49.61,44.63q-17.85,28.86-17.85,66.22,0,56.88,39.02,94.03,39.03,37.17,107.12,37.16,76.38,0,137.01-58.95,1.245,2.91,6.02,20.76t9.34,27.81h114.59q-15.36-31.545-20.76-59.16t-5.4-85.32l1.66-137q0-75.57-15.77-104.01-15.8-28.425-53.98-46.7-38.205-18.27-116.66-18.27-85.95,0-129.33,30.51-43.4,30.525-61.24,94.46l105.46,19.51Q9261.875,7122.22,9279.31,7109.97Zm127.88,160.05q0,45.675-5.4,61.03a70.865,70.865,0,0,1-18.06,27.61,101.6,101.6,0,0,1-31.14,20.14,95.832,95.832,0,0,1-37.99,7.88q-28.23,0-46.5-17.85t-18.26-42.35q0-24.9,23.25-41.1,14.1-9.96,63.1-20.34t71-17.86v22.84Zm630.21-84.7q0-51.06-6.4-78.67a135.012,135.012,0,0,0-22.4-49.41q-16.02-21.8-47.98-35.29-31.98-13.485-70.99-13.49-87.615,0-145.32,74.73v-65.6H9635.95v441.33h116.67v-199.7q0-73.89,8.92-101.3a82.38,82.38,0,0,1,33.22-43.8,94.005,94.005,0,0,1,53.76-16.4q24.075,0,41.11,11.42,17.01,11.43,24.08,32.18,7.05,20.76,7.05,92.16v225.44h116.64v-273.6Zm522.7-335.04h-116.2v219.21q-53.55-61.035-127.9-61.03-80.55,0-133.3,58.12-52.65,58.14-52.7,170.23,0,110.01,54,171.25t130.4,61.24q37.35,0,74.1-18.89t63.7-56.25v64.76h107.9V6850.28Zm-282.9,280.03q28.05-32.58,69.5-32.59,42.75,0,70.4,33.01,27.6,33,27.6,109.81,0,68.1-28.4,101.93-28.5,33.84-68.7,33.83-44.55,0-71.4-34.25-27-34.245-27-113.55Q10249.2,7162.905,10277.2,7130.31Zm750-20.34c11.6-8.16,28-12.25,49-12.25q45.6,0,62.3,13.91c11,9.28,16.6,25.26,16.6,47.95v12.04q-31.5,12.465-112.9,27.82-61.5,12.045-93.2,27.82-31.8,15.78-49.7,44.63-17.85,28.86-17.8,66.22,0,56.88,39,94.03,39,37.17,107.1,37.16,76.5,0,137-58.95c0.9,1.94,2.9,8.86,6.1,20.76q4.65,17.85,9.3,27.81h114.6q-15.45-31.545-20.8-59.16-5.4-27.6-5.4-85.32l1.7-137q0-75.57-15.8-104.01-15.75-28.425-54-46.7-38.1-18.27-116.6-18.27-85.95,0-129.4,30.51-43.35,30.525-61.2,94.46l105.5,19.51C11006,7132.46,11015.6,7118.14,11027.2,7109.97Zm127.9,160.05q0,45.675-5.4,61.03a70.307,70.307,0,0,1-18.1,27.61c-8.4,8.17-18.8,14.88-31.1,20.14a95.843,95.843,0,0,1-38,7.88q-28.2,0-46.5-17.85t-18.3-42.35q0-24.9,23.3-41.1,14.1-9.96,63.1-20.34,48.9-10.38,71-17.86v22.84Zm341.3,52.73q0-112.095,9.7-147.39,9.75-35.28,26.8-48.99c11.3-9.13,25.2-13.7,41.5-13.7q25.8,0,54.4,19.1l36.5-101.31q-37.35-21.99-76.3-22-29.1,0-51.1,13.91c-14.7,9.27-31.4,28.72-50.3,58.33v-63.11h-107.9v441.33h116.7V7322.75Zm341.7-305.16V6861.9l-117.1,68.09v87.6h-53.6v93.42h53.6v192.22q0,78.06,10.1,107.12,10.2,29.07,38.5,44.01,28.2,14.94,65.1,14.94,51.9,0,92.6-17.85l-9.9-90.51c-20.5,7.48-36.2,11.21-47,11.21-7.7,0-14.3-2-19.7-6.02a26.909,26.909,0,0,1-10.4-14.94q-2.25-8.925-2.2-62.49V7111.01h80.1v-93.42h-80.1Zm277.3-59.37V6850.28h-116.7v107.94h116.7Zm0,500.7V7017.59h-116.7v441.33h116.7Zm147-26.36q52.65,36.75,142.8,36.74,99.6,0,150.1-43.8,50.4-43.8,50.4-104.41,0-57.7-37.6-87.61-37.5-29.88-129.3-51.06-67.2-15.36-93.8-25.54c-17.7-6.78-26.6-16.4-26.6-28.85q0-36.525,79.3-36.54c46,0,73.6,17.86,83.1,53.56l110-20.34q-16.2-57.705-60.4-86.98-44.25-29.265-134.3-29.27-95.55,0-141,39.03t-45.5,95.9q0,63.945,52.8,99.64,37.35,25.335,178.5,56.88,29.1,5.82,38.4,14.74a29.081,29.081,0,0,1,9.3,21.8c0,15.77-7.4,27.81-22.4,36.12-14.9,8.3-35.3,12.45-61,12.45q-78.9,0-94.3-69.75l-117.5,17.86Q12209.6,7395.815,12262.4,7432.56Zm567.9-414.97V6861.9l-117,68.09v87.6h-53.6v93.42h53.6v192.22c0,52.04,3.3,87.75,10.1,107.12s19.6,34.04,38.4,44.01,40.6,14.94,65.2,14.94q51.9,0,92.6-17.85l-10-90.51c-20.5,7.48-36.1,11.21-46.9,11.21-7.7,0-14.3-2-19.7-6.02a26.424,26.424,0,0,1-10.4-14.94q-2.25-8.925-2.3-62.49V7111.01h80.2v-93.42h-80.2Zm277.4-59.37V6850.28H12991v107.94h116.7Zm0,500.7V7017.59H12991v441.33h116.7Zm436.1-416.21q-47.55-34.245-128.5-34.25-98.85,0-156.1,60.61-57.3,60.63-57.3,169.81,0,107.955,57.3,169.18,57.3,61.245,154.5,61.24,167.7,0,203.8-159.84l-114.6-19.93q-8.25,46.1-29.7,65.19-21.3,19.095-54.6,19.09c-29.3,0-52.8-10.72-70.3-32.17q-26.4-32.175-26.4-111.48,0-70.575,26-100.26c17.2-19.79,40.3-29.69,69.1-29.69q32.4,0,53.1,17.44,20.85,17.43,27,51.48l114.6-20.76Q13591.3,7076.97,13543.8,7042.71Zm796.5-192.43h-116.2v219.21q-53.55-61.035-127.9-61.03-80.55,0-133.3,58.12-52.65,58.14-52.7,170.23,0,110.01,54,171.25t130.4,61.24q37.35,0,74.1-18.89t63.7-56.25v64.76h107.9V6850.28Zm-282.9,280.03q28.05-32.58,69.5-32.59,42.75,0,70.4,33.01,27.6,33,27.6,109.81,0,68.1-28.4,101.93-28.5,33.84-68.7,33.83-44.55,0-71.4-34.25-27-34.245-27-113.55Q14029.4,7162.905,14057.4,7130.31Zm579.8,251.39q-41.1,0-67.9-29.06-26.7-29.055-28.4-80.96h292.7v-11.21q0-124.965-55.9-188.49-55.8-63.525-153.4-63.52-87.6,0-144.9,62.07t-57.3,171.67q0,104.22,55,165.66,55.05,61.44,158.4,61.44,144.9,0,191.8-131.19l-116.2-19.52q-18.3,63.12-73.9,63.11h0Zm-93.8-181.43v-2.91q0-44.835,24.7-72.24,24.6-27.39,62.9-27.4,35.7,0,60.4,26.37,24.6,26.37,26.3,76.18h-174.3Zm412.6,232.29q52.8,36.75,142.9,36.74,99.6,0,150.1-43.8,50.4-43.8,50.4-104.41,0-57.7-37.6-87.61-37.5-29.88-129.3-51.06-67.2-15.36-93.8-25.54c-17.8-6.78-26.6-16.4-26.6-28.85q0-36.525,79.3-36.54,68.85,0,83,53.56l110.1-20.34q-16.2-57.705-60.5-86.98-44.1-29.265-134.3-29.27-95.4,0-140.9,39.03-45.45,39.03-45.5,95.9,0,63.945,52.7,99.64,37.5,25.335,178.6,56.88,28.95,5.82,38.4,14.74a29.081,29.081,0,0,1,9.3,21.8c0,15.77-7.5,27.81-22.4,36.12s-35.3,12.45-61,12.45q-78.9,0-94.3-69.75l-117.5,17.86Q14903.3,7395.815,14956,7432.56Zm562.2-474.34V6850.28h-116.7v107.94h116.7Zm0,500.7V7017.59h-116.7v441.33h116.7Zm108.8,43.18q0,58.95,46.7,97.15,46.65,38.19,158.8,38.2,75.15,0,121.4-20.97,46.35-20.97,67.1-65.39,20.7-44.43,20.7-137.42V7017.59h-109.6v62.28q-52.65-71.4-134.5-71.41-78.9,0-132.4,58.12-53.55,58.14-53.6,169.39,0,98.82,50.2,160.88,50.25,62.085,130.8,62.07,80.1,0,132.9-71.41v64.77c0,27.95-3.1,48.16-9.1,60.62-6.1,12.45-16.4,21.44-31,26.98q-21.75,8.31-57.9,8.31c-20.2,0-35.8-2.91-46.7-8.72s-17.8-17.58-20.6-35.29l-133.2-16.19v14.11Zm131.8-372.2q27.15-32.175,68.7-32.18c29.1,0,52.9,11,71.6,33.01s28,55.7,28,101.09q0,66.435-29.4,99.64-29.55,33.225-72.7,33.22-39,0-66.2-32.38-27.15-32.385-27.2-102.97Q15731.6,7162.07,15758.8,7129.9Zm799,55.42q0-51.06-6.4-78.67a133.569,133.569,0,0,0-22.5-49.41q-15.9-21.8-47.9-35.29-31.95-13.485-71-13.49-87.6,0-145.3,74.73v-65.6h-108.4v441.33H16273v-199.7q0-73.89,8.9-101.3a82.542,82.542,0,0,1,33.2-43.8,94.039,94.039,0,0,1,53.8-16.4q24,0,41.1,11.42c11.3,7.62,19.4,18.34,24.1,32.18s7,44.56,7,92.16v225.44h116.7v-273.6Zm146.1,247.24q52.8,36.75,142.9,36.74,99.6,0,150.1-43.8,50.4-43.8,50.4-104.41,0-57.7-37.6-87.61-37.5-29.88-129.3-51.06-67.2-15.36-93.8-25.54c-17.8-6.78-26.6-16.4-26.6-28.85q0-36.525,79.3-36.54,68.85,0,83,53.56l110.1-20.34q-16.2-57.705-60.5-86.98-44.1-29.265-134.3-29.27-95.4,0-140.9,39.03-45.45,39.03-45.5,95.9,0,63.945,52.7,99.64,37.5,25.335,178.6,56.88,28.95,5.82,38.4,14.74a29.081,29.081,0,0,1,9.3,21.8c0,15.77-7.5,27.81-22.4,36.12s-35.3,12.45-61,12.45q-78.9,0-94.3-69.75l-117.5,17.86Q16651.2,7395.815,16703.9,7432.56Zm562.2,26.36V7342.26h-116.7v116.66h116.7ZM374.99,8424.73V8169.81l223.781-353.73H456.78L316.45,8056.47,173.629,7816.08H29.977l222.951,352.9v255.75H374.99Zm285.435-97.78q28.434,52.53,83.658,80.34t115.835,27.82q97.56,0,162.332-66.02,64.77-66,64.77-166.48,0-98.4-63.94-163.37t-163.992-64.98q-64.768,0-117.5,28.44t-81.167,82.83q-28.443,54.39-28.44,112.1Q631.985,8274.445,660.425,8326.95ZM782.9,8104.21q30.924-34.875,77.015-34.87,44.84,0,75.978,34.87t31.138,99.64q0,66.015-31.138,100.89t-75.978,34.88q-46.084,0-77.015-34.88t-30.931-100.05Q751.972,8139.095,782.9,8104.21Zm794.447,320.52V7983.4h-117.5v186.41q0,95.085-8.51,119.36t-32.18,40.48q-23.655,16.2-53.55,16.19-26.16,0-43.18-12.45a63.109,63.109,0,0,1-23.46-33.21q-6.45-20.76-6.44-113.35V7983.4H1175.87v279.82q0,61.875,15.78,97.16,15.765,35.28,51.06,55.01,35.28,19.71,79.72,19.72a176.5,176.5,0,0,0,82.62-20.55q39.435-20.565,63.52-56.26v66.43h108.78Zm232.08-136.18q0-112.095,9.76-147.39,9.75-35.28,26.78-48.99,17.01-13.695,41.51-13.7,25.74,0,54.39,19.1l36.54-101.3q-37.365-22.005-76.39-22.01-29.07,0-51.07,13.91-22.02,13.92-50.24,58.33v-63.1H1692.77v441.33h116.66V8288.55Zm856.1-137.42q0-51.075-6.44-78.68a134.1,134.1,0,0,0-22.42-49.4q-15.99-21.795-47.95-35.29-31.98-13.485-71-13.5-87.6,0-145.31,74.73V7983.4H2264.05v441.33h116.67v-199.7q0-73.89,8.92-101.3a82.294,82.294,0,0,1,33.22-43.8,93.931,93.931,0,0,1,53.76-16.4q24.075,0,41.1,11.41,17.025,11.43,24.08,32.18t7.06,92.17v225.44h116.67v-273.6Zm234.16-75.36q17.43-12.24,48.99-12.24,45.66,0,62.28,13.9,16.59,13.92,16.6,47.96v12.04q-31.545,12.45-112.93,27.81-61.44,12.045-93.2,27.82t-49.62,44.63q-17.85,28.86-17.85,66.22,0,56.9,39.03,94.04t107.11,37.16q76.4,0,137.01-58.96,1.245,2.91,6.02,20.76t9.34,27.82h114.59q-15.36-31.545-20.76-59.16t-5.39-85.32l1.66-137.01q0-75.555-15.78-104t-53.97-46.71q-38.205-18.27-116.67-18.27-85.935,0-129.33,30.52t-61.23,94.45l105.45,19.51Q2882.245,8088.02,2899.69,8075.77Zm127.87,160.05q0,45.675-5.39,61.03a70.793,70.793,0,0,1-18.06,27.61,101.723,101.723,0,0,1-31.14,20.14,95.843,95.843,0,0,1-37.99,7.89q-28.245,0-46.5-17.86-18.27-17.835-18.27-42.34,0-24.915,23.25-41.11,14.115-9.96,63.11-20.34,48.975-10.365,70.99-17.85v22.83Zm346.26-311.79V7816.08H3257.16v107.95h116.66Zm0,500.7V7983.4H3257.16v441.33h116.66Zm236.24,0V7816.08H3493.39v608.65h116.67Zm146.97-26.37q52.725,36.75,142.82,36.75,99.645,0,150.09-43.8t50.44-104.42q0-57.7-37.57-87.6t-129.33-51.07q-67.26-15.36-93.83-25.53t-26.57-28.86q0-36.525,79.3-36.53,68.91,0,83.03,53.56l110.03-20.35q-16.2-57.7-60.41-86.98t-134.31-29.27q-95.5,0-140.95,39.03-45.465,39.03-45.47,95.9,0,63.945,52.73,99.65,37.365,25.32,178.53,56.88,29.055,5.805,38.4,14.73a29.009,29.009,0,0,1,9.34,21.8q0,23.67-22.42,36.12t-61.03,12.46q-78.885,0-94.24-69.75l-117.5,17.85Q3704.31,8361.63,3757.03,8398.36Zm797.14-322.59q17.445-12.24,48.99-12.24,45.675,0,62.28,13.9,16.605,13.92,16.61,47.96v12.04q-31.56,12.45-112.93,27.81-61.455,12.045-93.21,27.82t-49.61,44.63q-17.865,28.86-17.85,66.22,0,56.9,39.02,94.04t107.12,37.16q76.38,0,137.01-58.96,1.245,2.91,6.02,20.76t9.34,27.82h114.59q-15.375-31.545-20.76-59.16-5.4-27.615-5.4-85.32l1.66-137.01q0-75.555-15.77-104-15.795-28.44-53.98-46.71-38.205-18.27-116.66-18.27-85.95,0-129.33,30.52-43.4,30.51-61.24,94.45l105.46,19.51Q4536.735,8088.02,4554.17,8075.77Zm127.88,160.05q0,45.675-5.4,61.03a70.793,70.793,0,0,1-18.06,27.61,101.723,101.723,0,0,1-31.14,20.14,95.843,95.843,0,0,1-37.99,7.89q-28.23,0-46.5-17.86-18.27-17.835-18.26-42.34,0-24.915,23.25-41.11,14.1-9.96,63.1-20.34,48.99-10.365,71-17.85v22.83Zm630.24-84.69q0-51.075-6.44-78.68a133.937,133.937,0,0,0-22.42-49.4q-15.99-21.795-47.95-35.29-31.98-13.485-71-13.5-87.6,0-145.31,74.73V7983.4H4910.81v441.33h116.67v-199.7q0-73.89,8.92-101.3a82.294,82.294,0,0,1,33.22-43.8,93.931,93.931,0,0,1,53.76-16.4q24.075,0,41.1,11.41,17.025,11.43,24.08,32.18t7.06,92.17v225.44h116.67v-273.6ZM5835,7816.08H5718.75v219.21q-53.565-61.02-127.88-61.03-80.55,0-133.27,58.13t-52.73,170.22q0,110.025,53.98,171.26,53.955,61.245,130.36,61.24,37.365,0,74.11-18.89t63.73-56.26v64.77H5835V7816.08Zm-282.95,280.04q28.035-32.595,69.55-32.59,42.75,0,70.37,33,27.6,33.015,27.61,109.82,0,68.085-28.44,101.92t-68.71,33.84q-44.43,0-71.41-34.25-27-34.26-26.99-113.55Q5524.03,8128.715,5552.05,8096.12Zm816.04,251.39q-41.115,0-67.89-29.07t-28.43-80.96h292.7v-11.21q0-124.95-55.85-188.49-55.845-63.51-153.4-63.52-87.615,0-144.9,62.07t-57.3,171.68q0,104.2,55.01,165.65t158.4,61.45q144.885,0,191.81-131.2l-116.25-19.51q-18.27,63.1-73.9,63.11h0Zm-93.83-181.44v-2.9q0-44.85,24.7-72.24,24.69-27.405,62.9-27.4,35.7,0,60.41,26.36,24.69,26.37,26.36,76.18H6274.26Zm497.79,259.49q-10.38,37.365-29.89,61.24t-60.2,23.87a273.831,273.831,0,0,1-49.4-4.98l9.96,90.92a330.356,330.356,0,0,0,66.43,6.64q41.925,0,72.65-10.79a122.69,122.69,0,0,0,51.69-34.25q20.97-23.46,40.9-73.28L7057.7,7983.4H6936.88l-102.96,313.87L6728.46,7983.4H6604.32Zm541.81-78.05q-41.1,0-67.88-29.07t-28.44-80.96h292.7v-11.21q0-124.95-55.84-188.49-55.845-63.51-153.41-63.52-87.6,0-144.89,62.07t-57.3,171.68q0,104.2,55.01,165.65t158.39,61.45q144.9,0,191.81-131.2l-116.25-19.51q-18.27,63.1-73.9,63.11h0Zm-93.83-181.44v-2.9q0-44.85,24.71-72.24,24.69-27.405,62.9-27.4,35.7,0,60.4,26.36t26.37,76.18H7220.03Zm501.95,258.66V7816.08H7605.32v608.65h116.66Zm234.99-348.96q17.445-12.24,48.99-12.24,45.675,0,62.28,13.9,16.605,13.92,16.61,47.96v12.04q-31.56,12.45-112.93,27.81-61.455,12.045-93.21,27.82t-49.61,44.63q-17.85,28.86-17.85,66.22,0,56.9,39.02,94.04t107.12,37.16q76.38,0,137.01-58.96,1.245,2.91,6.02,20.76t9.34,27.82h114.59q-15.36-31.545-20.76-59.16t-5.4-85.32l1.66-137.01q0-75.555-15.77-104-15.8-28.44-53.98-46.71-38.2-18.27-116.66-18.27-85.95,0-129.33,30.52t-61.24,94.45l105.46,19.51Q7939.535,8088.02,7956.97,8075.77Zm127.88,160.05q0,45.675-5.4,61.03a70.793,70.793,0,0,1-18.06,27.61,101.482,101.482,0,0,1-31.14,20.14,95.843,95.843,0,0,1-37.99,7.89q-28.23,0-46.5-17.86-18.27-17.835-18.26-42.34,0-24.915,23.25-41.11,14.1-9.96,63.1-20.34,48.99-10.365,71-17.85v22.83Zm256.99,162.54q52.725,36.75,142.83,36.75,99.63,0,150.08-43.8t50.45-104.42q0-57.7-37.58-87.6t-129.32-51.07q-67.26-15.36-93.83-25.53t-26.58-28.86q0-36.525,79.3-36.53,68.91,0,83.04,53.56l110.02-20.35q-16.185-57.7-60.41-86.98t-134.31-29.27q-95.49,0-140.95,39.03t-45.46,95.9q0,63.945,52.72,99.65,37.365,25.32,178.53,56.88,29.055,5.805,38.4,14.73a29.019,29.019,0,0,1,9.35,21.8q0,23.67-22.42,36.12t-61.03,12.46q-78.9,0-94.25-69.75l-117.5,17.85Q8289.12,8361.63,8341.84,8398.36Zm444.66-582.28v608.65h116.67V8203.85q0-55.62,10.58-84.07,10.59-28.425,33.63-42.35,23.04-13.905,51.69-13.9,25.74,0,42.77,11a55.369,55.369,0,0,1,23.24,29.68q6.24,18.69,6.23,87.6v232.92h116.67V8166.07q0-59.355-6.02-87.39a144.492,144.492,0,0,0-22.01-51.48q-15.99-23.46-48.37-38.2t-73.07-14.74q-78.465,0-135.34,65.19V7816.08H8786.5Zm701.65,531.43q-41.1,0-67.88-29.07t-28.44-80.96h292.7v-11.21q0-124.95-55.84-188.49-55.845-63.51-153.41-63.52-87.6,0-144.9,62.07-57.285,62.07-57.29,171.68,0,104.2,55.01,165.65t158.39,61.45q144.885,0,191.81-131.2l-116.25-19.51q-18.27,63.1-73.9,63.11h0Zm-93.83-181.44v-2.9q0-44.85,24.7-72.24,24.7-27.405,62.9-27.4,35.715,0,60.41,26.36t26.37,76.18H9394.32Zm412.69,232.29q52.725,36.75,142.82,36.75,99.7,0,150.07-43.8,50.4-43.8,50.5-104.42,0-57.7-37.6-87.6-37.65-29.9-129.34-51.07-67.26-15.36-93.83-25.53t-26.57-28.86q0-36.525,79.3-36.53,68.91,0,83.04,53.56l110-20.35q-16.2-57.7-60.4-86.98-44.25-29.265-134.3-29.27-95.505,0-140.96,39.03t-45.46,95.9q0,63.945,52.73,99.65,37.365,25.32,178.52,56.88,29.055,5.805,38.37,14.73a28.815,28.815,0,0,1,9.4,21.8c0,15.78-7.5,27.82-22.4,36.12q-22.485,12.45-61.07,12.46-78.885,0-94.25-69.75l-117.49,17.85Q9754.275,8361.63,9807.01,8398.36ZM287.388,9390.53l75.147-283.15L438.1,9390.53H550.2L691.356,8949.2H576.767l-84.281,288.96L419.414,8949.2H306.486l-75.978,288.96L148.3,8949.2H34.129l139.5,441.33H287.388Zm582.494-500.7V8781.89H753.217v107.94H869.882Zm0,500.7V8949.2H753.217v441.33H869.882Zm236.238,0V8781.89H989.453v608.64H1106.12Zm236.23,0V8781.89H1225.69v608.64h116.66Zm458.78,0v-64.77q27.39,36.54,63.93,55.84,36.54,19.32,73.91,19.31,77.22,0,130.78-61.24t53.55-174.58q0-108.765-52.52-166.9t-132.64-58.12q-73.905,0-128.29,61.03V8781.89H1693.18v608.64h107.95Zm35.91-329.02q28.02-32.175,69.54-32.18,42.765,0,70.37,33.01t27.61,108.98q0,71.415-27.19,104t-66.64,32.59q-44.43,0-73.07-36.53t-28.65-111.27Q1809.01,9093.69,1837.04,9061.51Zm561.94,251.8q-41.1,0-67.88-29.06t-28.44-80.96h292.7v-11.21q0-124.965-55.84-188.49t-153.41-63.52q-87.6,0-144.89,62.07t-57.3,171.67q0,104.22,55.01,165.66t158.39,61.44q144.9,0,191.81-131.19l-116.25-19.52q-18.27,63.12-73.9,63.11h0Zm-93.83-181.43v-2.91q0-44.835,24.71-72.24,24.69-27.405,62.9-27.4,35.7,0,60.4,26.36t26.37,76.19H2305.15Zm648.93,232.29q52.71,36.735,142.82,36.74,99.645,0,150.08-43.8t50.45-104.42q0-57.69-37.58-87.6t-129.32-51.06q-67.26-15.36-93.83-25.54t-26.57-28.85q0-36.54,79.29-36.54,68.925,0,83.04,53.56l110.02-20.34q-16.185-57.7-60.41-86.98-44.205-29.28-134.31-29.27-95.49,0-140.95,39.02T2901.35,9075q0,63.945,52.73,99.64,37.365,25.335,178.52,56.88,29.055,5.82,38.41,14.74a29.024,29.024,0,0,1,9.34,21.79q0,23.67-22.42,36.13t-61.03,12.45q-78.885,0-94.25-69.75l-117.49,17.85Q2901.345,9327.43,2954.08,9364.17Zm567.96-414.97V8793.51l-117.08,68.09v87.6H3351.4v93.42h53.56v192.22q0,78.06,10.17,107.12t38.41,44q28.215,14.955,65.18,14.95,51.885,0,92.58-17.85l-9.96-90.51q-30.735,11.205-46.92,11.21-11.625,0-19.72-6.02a26.521,26.521,0,0,1-10.38-14.95q-2.28-8.925-2.28-62.48V9042.62h80.13V8949.2h-80.13Zm272.36,305.15q0-112.095,9.75-147.38t26.78-48.99q17.025-13.71,41.52-13.7,25.74,0,54.39,19.09l36.53-101.3q-37.365-22.005-76.39-22-29.07,0-51.07,13.91t-50.23,58.33V8949.2H3677.73v441.33H3794.4V9254.35Zm220.66,38.41q28.44,52.53,83.66,80.33t115.84,27.82q97.56,0,162.33-66.01t64.77-166.49q0-98.385-63.94-163.37-63.945-64.965-163.99-64.97-64.77,0-117.5,28.44t-81.17,82.82q-28.44,54.405-28.44,112.1Q3986.62,9240.245,4015.06,9292.76Zm122.48-222.74q30.93-34.875,77.02-34.88,44.835,0,75.97,34.88t31.14,99.64q0,66.015-31.14,100.89-31.125,34.875-75.97,34.87-46.1,0-77.02-34.87t-30.93-100.06Q4106.61,9104.9,4137.54,9070.02Zm796.11,46.91q0-51.06-6.44-78.67a134.071,134.071,0,0,0-22.42-49.41q-15.99-21.8-47.95-35.29-31.98-13.485-71-13.49-87.6,0-145.31,74.73v-65.6H4532.17v441.33h116.66v-199.7q0-73.89,8.93-101.3a82.362,82.362,0,0,1,33.21-43.8,94.037,94.037,0,0,1,53.77-16.4q24.075,0,41.1,11.42t24.08,32.17q7.065,20.775,7.06,92.17v225.44h116.67v-273.6Zm107.94,316.78q0,58.95,46.71,97.15t158.8,38.2q75.15,0,121.44-20.97t67.06-65.39q20.745-44.43,20.75-137.42V8949.2h-109.6v62.28q-52.74-71.415-134.52-71.41-78.885,0-132.44,58.12-53.565,58.14-53.56,169.39,0,98.82,50.24,160.88,50.22,62.07,130.78,62.07,80.115,0,132.85-71.41v64.77q0,41.925-9.13,60.61t-30.93,26.99q-21.795,8.3-57.92,8.3-30.3,0-46.71-8.71-16.4-8.73-20.55-35.29l-133.27-16.2v14.12Zm131.82-372.2q27.195-32.175,68.71-32.18,43.59,0,71.62,33.01t28.03,101.09q0,66.435-29.48,99.64-29.49,33.225-72.66,33.22-39.03,0-66.22-32.39t-27.19-102.96Q5146.22,9093.68,5173.41,9061.51Zm750.02-19.93q17.43-12.24,48.99-12.25,45.675,0,62.28,13.91t16.6,47.95v12.04q-31.545,12.45-112.92,27.82-61.455,12.045-93.21,27.81-31.77,15.795-49.61,44.64-17.865,28.86-17.86,66.22,0,56.88,39.03,94.03,39.015,37.17,107.11,37.16,76.4,0,137.01-58.95,1.245,2.91,6.02,20.75,4.77,17.865,9.35,27.82H6190.8q-15.36-31.545-20.75-59.16t-5.4-85.32l1.66-137.01q0-75.555-15.78-104-15.78-28.425-53.97-46.7-38.205-18.27-116.67-18.27-85.935,0-129.32,30.51t-61.24,94.45l105.45,19.52Q5906,9053.83,5923.43,9041.58Zm127.87,160.05q0,45.675-5.39,61.03a70.865,70.865,0,0,1-18.06,27.61,101.7,101.7,0,0,1-31.14,20.13,95.843,95.843,0,0,1-37.99,7.89q-28.245,0-46.5-17.85-18.27-17.85-18.27-42.35,0-24.915,23.25-41.1,14.115-9.96,63.11-20.35,48.99-10.365,70.99-17.85v22.84Zm630.25-84.7q0-51.06-6.44-78.67a134.071,134.071,0,0,0-22.42-49.41q-15.99-21.8-47.95-35.29-31.98-13.485-71-13.49-87.6,0-145.31,74.73v-65.6H6280.07v441.33h116.66v-199.7q0-73.89,8.93-101.3a82.362,82.362,0,0,1,33.21-43.8,94.037,94.037,0,0,1,53.77-16.4q24.075,0,41.1,11.42t24.08,32.17q7.065,20.775,7.06,92.17v225.44h116.67v-273.6Zm522.7-335.04H7088V9001.1q-53.55-61.035-127.87-61.03-80.55,0-133.27,58.12-52.74,58.14-52.73,170.22,0,110.025,53.97,171.26t130.37,61.24q37.365,0,74.11-18.89t63.73-56.26v64.77h107.94V8781.89Zm-282.94,280.03q28.02-32.58,69.54-32.59,42.765,0,70.38,33.01t27.6,109.81q0,68.1-28.44,101.93t-68.71,33.83q-44.43,0-71.41-34.25t-26.98-113.55Q6893.29,9094.515,6921.31,9061.92Zm633.77-280.03v608.64h116.66V9169.66q0-55.635,10.59-84.07t33.63-42.35q23.04-13.905,51.69-13.91,25.74,0,42.76,11a55.362,55.362,0,0,1,23.25,29.69q6.24,18.675,6.23,87.6v232.91h116.67V9131.88q0-59.37-6.02-87.4a144.671,144.671,0,0,0-22.01-51.48q-15.99-23.445-48.37-38.19t-73.07-14.74q-78.465,0-135.35,65.18V8781.89H7555.08Zm701.65,531.42q-41.1,0-67.88-29.06t-28.44-80.96h292.7v-11.21q0-124.965-55.84-188.49t-153.41-63.52q-87.6,0-144.9,62.07-57.285,62.07-57.29,171.67,0,104.22,55.01,165.66t158.39,61.44q144.885,0,191.81-131.19l-116.25-19.52q-18.27,63.12-73.9,63.11h0Zm-93.83-181.43v-2.91q0-44.835,24.7-72.24t62.9-27.4q35.7,0,60.41,26.36t26.37,76.19H8162.9Zm500.71-90.3q17.43-12.24,48.99-12.25,45.66,0,62.27,13.91t16.61,47.95v12.04q-31.56,12.45-112.93,27.82-61.44,12.045-93.21,27.81-31.755,15.795-49.61,44.64t-17.85,66.22q0,56.88,39.02,94.03,39.03,37.17,107.12,37.16,76.38,0,137.01-58.95,1.245,2.91,6.02,20.75,4.77,17.865,9.34,27.82h114.59q-15.36-31.545-20.76-59.16t-5.4-85.32l1.66-137.01q0-75.555-15.77-104-15.78-28.425-53.98-46.7t-116.66-18.27q-85.95,0-129.33,30.51t-61.24,94.45l105.46,19.52Q8646.165,9053.83,8663.61,9041.58Zm127.87,160.05q0,45.675-5.4,61.03a70.865,70.865,0,0,1-18.06,27.61,101.46,101.46,0,0,1-31.14,20.13,95.8,95.8,0,0,1-37.98,7.89q-28.245,0-46.5-17.85-18.285-17.85-18.27-42.35,0-24.915,23.25-41.1,14.1-9.96,63.11-20.35,48.975-10.365,70.99-17.85v22.84Zm346.26,188.9V8781.89H9021.07v608.64h116.67Zm242.05-441.33V8793.51l-117.08,68.09v87.6h-53.56v93.42h53.56v192.22q0,78.06,10.17,107.12t38.4,44q28.23,14.955,65.19,14.95,51.885,0,92.58-17.85l-9.96-90.51q-30.735,11.205-46.92,11.21-11.625,0-19.72-6.02a26.473,26.473,0,0,1-10.38-14.95q-2.28-8.925-2.28-62.48V9042.62h80.13V8949.2h-80.13Zm159.84-167.31v608.64H9656.3V9169.66q0-55.635,10.58-84.07t33.63-42.35q23.04-13.905,51.69-13.91,25.74,0,42.77,11a55.455,55.455,0,0,1,23.25,29.69q6.225,18.675,6.22,87.6v232.91h116.67V9131.88q0-59.37-6.02-87.4a144.492,144.492,0,0,0-22.01-51.48q-15.975-23.445-48.36-38.19t-73.08-14.74q-78.465,0-135.34,65.18V8781.89H9539.63Zm632.77,609.47c-7,24.91-16.9,45.32-29.9,61.24s-33.1,23.87-60.2,23.87a273.57,273.57,0,0,1-49.4-4.98l9.9,90.92a330.4,330.4,0,0,0,66.5,6.65q41.85,0,72.6-10.8a122.723,122.723,0,0,0,51.7-34.25q21-23.46,40.9-73.28L10458,8949.2h-120.8l-103,313.87-105.4-313.87h-124.2Zm477-.83V9273.87h-116.7v116.66h116.7ZM524.869,10356.3v-102.9H218.883V9747.69H96.406v608.61H524.869Zm267.79-77.2q-41.1,0-67.881-29-26.78-29.1-28.44-81h292.7v-11.2q0-124.95-55.842-188.51-55.845-63.525-153.408-63.52-87.606,0-144.9,62.07-57.3,62.04-57.3,171.66,0,104.25,55.011,165.7,55.008,61.35,158.391,61.4,144.89,0,191.812-131.2l-116.25-19.5q-18.274,63.15-73.9,63.1h0Zm-93.83-181.4v-2.9q0-44.85,24.7-72.3,24.7-27.3,62.9-27.37,35.7,0,60.408,26.37,24.7,26.4,26.364,76.2H698.829Zm507.761-182.69v-155.7l-117.08,68.09v87.61h-53.56v93.39h53.56v192.2q0,78.15,10.17,107.2,10.17,28.95,38.41,44,28.23,14.85,65.18,14.9,51.9,0,92.59-17.8l-9.97-90.5c-20.49,7.4-36.12,11.2-46.91,11.2-7.76,0-14.33-2-19.73-6.1a26.184,26.184,0,0,1-10.37-14.9q-2.3-9-2.29-62.5v-177.7h80.13v-93.39h-80.13Zm245.79,49.4,18.68-114.17V9747.69H1344.43v102.55l22.01,114.17h85.94ZM1596.86,10330q52.725,36.75,142.82,36.7,99.645,0,150.09-43.8t50.44-104.4q0-57.75-37.57-87.6-37.59-29.85-129.33-51.1-67.26-15.3-93.83-25.5c-17.72-6.8-26.57-16.4-26.57-28.9q0-36.45,79.3-36.49,68.91,0,83.03,53.59l110.02-20.4q-16.185-57.675-60.4-86.96-44.22-29.265-134.31-29.27-95.5,0-140.96,39.03t-45.46,95.9q0,63.9,52.73,99.6,37.365,25.35,178.53,56.9c19.37,3.9,32.17,8.8,38.4,14.8a28.887,28.887,0,0,1,9.34,21.8c0,15.7-7.47,27.8-22.42,36.1s-35.29,12.4-61.03,12.4q-78.885,0-94.25-69.7l-117.49,17.8Q1544.125,10293.2,1596.86,10330Zm998.29-389.88q-47.535-34.245-128.49-34.25-98.82,0-156.11,60.62t-57.29,169.81q0,108,57.29,169.2t154.45,61.2q167.73,0,203.85-159.8l-114.59-20q-8.31,46.2-29.69,65.2c-14.25,12.8-32.45,19.1-54.59,19.1q-44.01,0-70.37-32.2-26.37-32.1-26.37-111.4,0-70.65,25.95-100.3,25.95-29.7,69.13-29.68c21.59,0,39.3,5.78,53.14,17.48,13.84,11.6,22.84,28.8,26.99,51.4l114.59-20.7Q2642.685,9974.37,2595.15,9940.12Zm268,280.08q0-112.2,9.76-147.4,9.75-35.4,26.78-49c11.34-9.2,25.18-13.7,41.52-13.7q25.725,0,54.38,19.1l36.54-101.32q-37.365-22-76.39-22.01-29.07,0-51.07,13.91t-50.24,58.33v-63.1H2746.49v441.29h116.66v-136.1Zm400.65,58.9q-41.1,0-67.88-29-26.79-29.1-28.44-81h292.7v-11.2q0-124.95-55.84-188.51-55.845-63.525-153.41-63.52-87.615,0-144.9,62.07-57.3,62.04-57.29,171.66,0,104.25,55.01,165.7,55.005,61.35,158.39,61.4,144.885,0,191.81-131.2L3337.7,10216q-18.27,63.15-73.9,63.1h0Zm-93.83-181.4v-2.9q0-44.85,24.7-72.3,24.7-27.3,62.9-27.37,35.7,0,60.41,26.37,24.69,26.4,26.36,76.2H3169.97Zm500.7-90.3q17.445-12.27,48.99-12.27,45.675,0,62.28,13.87,16.605,13.95,16.61,48v12q-31.56,12.45-112.93,27.9-61.455,12-93.21,27.8-31.755,15.75-49.61,44.6-17.865,28.8-17.85,66.2,0,56.85,39.02,94.1,39.03,37.05,107.12,37.1,76.38,0,137.01-58.9,1.245,2.85,6.02,20.7c3.18,11.9,6.29,21.2,9.34,27.8h114.59q-15.375-31.5-20.76-59.1c-3.6-18.4-5.4-46.9-5.4-85.3l1.66-137.1q0-75.45-15.77-103.95-15.8-28.44-53.98-46.71-38.205-18.27-116.66-18.27-85.95,0-129.33,30.52t-61.24,94.41l105.46,19.6C3649.5,10029.9,3659.05,10015.5,3670.67,10007.4Zm127.88,160c0,30.5-1.81,50.8-5.4,61.1a71.414,71.414,0,0,1-18.06,27.6,101.822,101.822,0,0,1-31.14,20.1,95.165,95.165,0,0,1-37.99,7.9q-28.23,0-46.5-17.9-18.27-17.85-18.26-42.3,0-24.9,23.25-41.1c9.4-6.7,30.44-13.4,63.1-20.4q48.99-10.35,71-17.8v22.8Zm352.07-252.39v-155.7l-117.08,68.09v87.61h-53.56v93.39h53.56v192.2q0,78.15,10.17,107.2,10.17,28.95,38.4,44,28.23,14.85,65.19,14.9,51.885,0,92.58-17.8l-9.96-90.5c-20.49,7.4-36.12,11.2-46.92,11.2-7.75,0-14.32-2-19.72-6.1a26.2,26.2,0,0,1-10.38-14.9q-2.28-9-2.28-62.5v-177.7h80.13v-93.39h-80.13Zm342.11,364.09q-41.115,0-67.89-29-26.775-29.1-28.44-81h292.71v-11.2q0-124.95-55.85-188.51-55.845-63.525-153.4-63.52-87.615,0-144.9,62.07-57.3,62.04-57.3,171.66,0,104.25,55.01,165.7,55.02,61.35,158.39,61.4,144.9,0,191.82-131.2l-116.25-19.5q-18.285,63.15-73.9,63.1h0Zm-93.83-181.4v-2.9q0-44.85,24.7-72.3,24.69-27.3,62.9-27.37,35.7,0,60.41,26.37,24.69,26.4,26.36,76.2H4398.9Zm736.94-90.3q17.43-12.27,48.99-12.27,45.66,0,62.27,13.87,16.6,13.95,16.61,48v12q-31.56,12.45-112.93,27.9-61.44,12-93.2,27.8-31.77,15.75-49.62,44.6-17.85,28.8-17.85,66.2,0,56.85,39.03,94.1,39.015,37.05,107.11,37.1,76.4,0,137.01-58.9,1.245,2.85,6.02,20.7c3.18,11.9,6.29,21.2,9.34,27.8h114.59q-15.36-31.5-20.76-59.1c-3.6-18.4-5.4-46.9-5.4-85.3l1.67-137.1q0-75.45-15.78-103.95-15.78-28.44-53.97-46.71-38.205-18.27-116.67-18.27-85.935,0-129.33,30.52t-61.24,94.41l105.46,19.6C5114.66,10029.9,5124.21,10015.5,5135.84,10007.4Zm127.87,160c0,30.5-1.8,50.8-5.4,61.1a71.414,71.414,0,0,1-18.06,27.6,101.65,101.65,0,0,1-31.13,20.1,95.2,95.2,0,0,1-37.99,7.9q-28.245,0-46.5-17.9-18.285-17.85-18.27-42.3,0-24.9,23.25-41.1c9.41-6.7,30.44-13.4,63.11-20.4q48.975-10.35,70.99-17.8v22.8Zm568.8,188.9v-64.7q27.39,36.45,63.93,55.8t73.9,19.3q77.235,0,130.79-61.2t53.55-174.6q0-108.75-52.52-166.9-52.515-58.125-132.65-58.13-73.905,0-128.29,61.03V9747.69H5724.56v608.61h107.95Zm35.91-329q28.02-32.1,69.54-32.17,42.765,0,70.37,32.97,27.615,33,27.61,109,0,71.4-27.19,104c-18.13,21.8-40.35,32.6-66.64,32.6q-44.43,0-73.07-36.5-28.65-36.6-28.65-111.3Q5840.39,10059.45,5868.42,10027.3Zm561.94,251.8q-41.1,0-67.88-29-26.775-29.1-28.44-81h292.7v-11.2q0-124.95-55.84-188.51-55.845-63.525-153.41-63.52-87.6,0-144.9,62.07-57.285,62.04-57.29,171.66,0,104.25,55.01,165.7,55,61.35,158.39,61.4,144.9,0,191.81-131.2l-116.25-19.5q-18.27,63.15-73.9,63.1h0Zm-93.83-181.4v-2.9q0-44.85,24.7-72.3,24.7-27.3,62.9-27.37,35.715,0,60.41,26.37,24.705,26.4,26.37,76.2H6336.53Zm500.71-90.3q17.43-12.27,48.99-12.27,45.66,0,62.27,13.87,16.6,13.95,16.61,48v12q-31.56,12.45-112.93,27.9-61.44,12-93.2,27.8-31.77,15.75-49.62,44.6-17.85,28.8-17.85,66.2,0,56.85,39.03,94.1,39.015,37.05,107.11,37.1,76.4,0,137.01-58.9,1.245,2.85,6.02,20.7c3.18,11.9,6.29,21.2,9.34,27.8h114.59q-15.36-31.5-20.76-59.1c-3.6-18.4-5.4-46.9-5.4-85.3l1.67-137.1q0-75.45-15.78-103.95-15.78-28.44-53.97-46.71-38.205-18.27-116.67-18.27-85.935,0-129.33,30.52t-61.24,94.41l105.46,19.6C6816.06,10029.9,6825.61,10015.5,6837.24,10007.4Zm127.87,160c0,30.5-1.8,50.8-5.4,61.1a71.414,71.414,0,0,1-18.06,27.6,101.65,101.65,0,0,1-31.13,20.1,95.2,95.2,0,0,1-37.99,7.9q-28.245,0-46.5-17.9-18.285-17.85-18.27-42.3,0-24.9,23.25-41.1c9.41-6.7,30.44-13.4,63.11-20.4q48.975-10.35,70.99-17.8v22.8Zm628.58,188.9V9915.01H7476.2v186.39q0,95.1-8.51,119.4t-32.18,40.5q-23.67,16.2-53.56,16.2c-17.44,0-31.83-4.2-43.18-12.5a63.293,63.293,0,0,1-23.46-33.2c-4.29-13.9-6.43-51.6-6.43-113.4V9915.01H7192.21v279.79q0,61.95,15.78,97.2c10.52,23.5,27.54,41.9,51.07,55s50.09,19.7,79.71,19.7a176.412,176.412,0,0,0,82.62-20.5q39.45-20.55,63.52-56.3v66.4h108.78Zm242.88-441.29v-155.7l-117.08,68.09v87.61h-53.56v93.39h53.56v192.2q0,78.15,10.17,107.2,10.17,28.95,38.41,44,28.23,14.85,65.18,14.9,51.885,0,92.58-17.8l-9.96-90.5c-20.49,7.4-36.12,11.2-46.92,11.2-7.75,0-14.32-2-19.72-6.1a26.248,26.248,0,0,1-10.38-14.9q-2.28-9-2.28-62.5v-177.7h80.13v-93.39h-80.13Zm273.19,442.19q-10.38,37.35-29.9,61.2t-60.2,23.9a275.976,275.976,0,0,1-49.4-5l9.96,90.9a331.83,331.83,0,0,0,66.43,6.7q41.925,0,72.66-10.8a123.072,123.072,0,0,0,51.69-34.3c13.97-15.6,27.61-40.1,40.89-73.3l183.51-501.49H8274.58l-102.96,313.89-105.46-313.89H7942.03Zm1000.58-609.51H8994.09V9966.9q-53.565-61.035-127.88-61.03-80.55,0-133.27,58.13-52.725,58.05-52.73,170.2,0,110.1,53.98,171.3,53.955,61.2,130.36,61.2,37.365,0,74.11-18.9t63.73-56.2v64.7h107.95V9747.69Zm-282.95,280.01q28.035-32.55,69.55-32.57,42.75,0,70.37,32.97,27.6,33,27.61,109.9,0,68.1-28.44,101.9-28.44,33.75-68.71,33.8-44.43,0-71.42-34.2-26.985-34.35-26.98-113.6Q8799.37,10060.35,8827.39,10027.7Zm579.8,251.4q-41.1,0-67.88-29-26.79-29.1-28.44-81h292.7v-11.2q0-124.95-55.84-188.51-55.845-63.525-153.41-63.52-87.615,0-144.9,62.07-57.285,62.04-57.29,171.66,0,104.25,55.01,165.7,55.005,61.35,158.39,61.4,144.885,0,191.81-131.2l-116.25-19.5q-18.27,63.15-73.9,63.1h0Zm-93.83-181.4v-2.9q0-44.85,24.7-72.3,24.705-27.3,62.9-27.37,35.7,0,60.41,26.37,24.69,26.4,26.36,76.2H9313.36Zm412.69,232.3q52.71,36.75,142.82,36.7,99.645,0,150.13-43.8,50.4-43.8,50.4-104.4,0-57.75-37.6-87.6-37.5-29.85-129.3-51.1-67.26-15.3-93.83-25.5c-17.72-6.8-26.58-16.4-26.58-28.9q0-36.45,79.3-36.49,68.925,0,83.04,53.59l110.07-20.4q-16.2-57.675-60.46-86.96-44.205-29.265-134.31-29.27-95.49,0-140.95,39.03t-45.46,95.9q0,63.9,52.73,99.6,37.365,25.35,178.52,56.9c19.37,3.9,32.18,8.8,38.41,14.8a28.922,28.922,0,0,1,9.34,21.8c0,15.7-7.48,27.8-22.42,36.1s-35.29,12.4-61.03,12.4q-78.885,0-94.25-69.7l-117.49,17.8Q9673.315,10293.2,9726.05,10330Zm562.15-474.36V9747.69h-116.7v107.95h116.7Zm0,500.66V9915.01h-116.7v441.29h116.7Zm108.8,43.2q0,58.95,46.7,97.2,46.65,38.1,158.8,38.2,75.15,0,121.4-21,46.35-21,67.1-65.4,20.7-44.4,20.7-137.4V9915.01h-109.6v62.27q-52.65-71.4-134.5-71.41-78.9,0-132.4,58.13-53.55,58.05-53.6,169.4,0,98.85,50.2,160.9,50.25,61.95,130.8,62,80.1,0,132.9-71.4v64.8c0,27.9-3.1,48.2-9.1,60.6-6.1,12.5-16.4,21.5-31,27q-21.75,8.25-57.9,8.3c-20.2,0-35.8-2.9-46.7-8.7s-17.8-17.6-20.6-35.3l-133.2-16.2v14.1Zm131.8-372.2q27.15-32.1,68.7-32.17c29.1,0,52.9,10.97,71.6,32.97s28,55.7,28,101.1q0,66.45-29.4,99.7-29.55,33.15-72.7,33.2-39,0-66.2-32.4-27.15-32.4-27.2-103Q10501.6,10059.5,10528.8,10027.3Zm799,55.4q0-51-6.4-78.6a133.6,133.6,0,0,0-22.5-49.45q-15.9-21.795-47.9-35.29-31.95-13.485-71-13.49-87.6,0-145.3,74.73v-65.59h-108.4v441.29H11043v-199.7q0-73.8,8.9-101.3a83.031,83.031,0,0,1,33.2-43.8,94.236,94.236,0,0,1,53.8-16.37q24,0,41.1,11.47c11.3,7.6,19.4,18.3,24.1,32.1q7.05,20.85,7,92.2v225.4h116.7v-273.6Zm477.5-167.69v-155.7l-117.1,68.09v87.61h-53.6v93.39h53.6v192.2q0,78.15,10.1,107.2,10.2,28.95,38.5,44,28.2,14.85,65.1,14.9,51.9,0,92.6-17.8l-9.9-90.5c-20.5,7.4-36.2,11.2-47,11.2-7.7,0-14.3-2-19.7-6.1a26.618,26.618,0,0,1-10.4-14.9q-2.25-9-2.2-62.5v-177.7h80.1v-93.39h-80.1Zm162.1,343.59q28.35,52.5,83.6,80.3,55.35,27.75,115.9,27.8,97.5,0,162.3-66t64.8-166.5q0-98.4-64-163.35-63.9-64.98-164-64.98-64.65,0-117.4,28.44-52.8,28.44-81.2,82.79-28.5,54.45-28.5,112.1Q11938.9,10206,11967.4,10258.6Zm122.5-222.8c20.6-23.2,46.3-34.9,77-34.9,29.9,0,55.2,11.7,76,34.9q31.05,34.95,31.1,99.7,0,66-31.1,100.8-31.2,34.95-76,34.9-46.05,0-77-34.9-31.05-34.8-31-100Q12058.9,10070.75,12089.9,10035.8Zm384.6,363.7q0,58.95,46.7,97.2,46.8,38.1,158.8,38.2,75.15,0,121.5-21,46.2-21,67-65.4,20.85-44.4,20.8-137.4V9915.01h-109.6v62.27q-52.8-71.4-134.5-71.41-78.9,0-132.5,58.13-53.55,58.05-53.5,169.4,0,98.85,50.2,160.9,50.25,61.95,130.8,62,80.1,0,132.8-71.4v64.8c0,27.9-3,48.2-9.1,60.6q-9.15,18.75-30.9,27-21.9,8.25-57.9,8.3c-20.3,0-35.8-2.9-46.8-8.7-10.9-5.8-17.7-17.6-20.5-35.3l-133.3-16.2v14.1Zm131.8-372.2q27.3-32.1,68.8-32.17,43.5,0,71.6,32.97,28.05,33,28,101.1,0,66.45-29.5,99.7c-19.6,22.1-43.9,33.2-72.6,33.2-26.1,0-48.1-10.8-66.3-32.4q-27.15-32.4-27.1-103Q12579.2,10059.5,12606.3,10027.3Zm579.8,251.8q-41.1,0-67.8-29-26.85-29.1-28.5-81h292.7v-11.2q0-124.95-55.8-188.51-55.95-63.525-153.4-63.52-87.6,0-144.9,62.07-57.3,62.04-57.3,171.66,0,104.25,55,165.7,55.05,61.35,158.4,61.4,144.9,0,191.8-131.2L13260,10216q-18.15,63.15-73.9,63.1h0Zm-93.8-181.4v-2.9q0-44.85,24.7-72.3c16.5-18.2,37.4-27.37,62.9-27.37q35.7,0,60.4,26.37,24.75,26.4,26.4,76.2h-174.4Zm507.8-182.69v-155.7L13483,9827.4v87.61h-53.6v93.39h53.6v192.2q0,78.15,10.2,107.2,10.05,28.95,38.4,44,28.2,14.85,65.2,14.9c34.5,0,65.4-5.9,92.5-17.8l-9.9-90.5c-20.5,7.4-36.1,11.2-46.9,11.2-7.8,0-14.4-2-19.8-6.1a25.97,25.97,0,0,1-10.3-14.9c-1.6-6-2.3-26.8-2.3-62.5v-177.7h80.1v-93.39h-80.1Zm159.8-167.32v608.61h116.7v-220.8q0-55.65,10.6-84.1,10.5-28.5,33.6-42.4,23.1-13.845,51.7-13.87c17.1,0,31.4,3.68,42.8,10.97a56.209,56.209,0,0,1,23.2,29.7c4.2,12.5,6.2,41.7,6.2,87.6v232.9h116.7v-258.6q0-59.4-6-87.4a145.084,145.084,0,0,0-22-51.49q-16.05-23.46-48.4-38.2c-21.6-9.82-45.9-14.74-73.1-14.74q-78.45,0-135.3,65.18V9747.69h-116.7Zm701.7,531.41c-27.4,0-50.1-9.7-67.9-29q-26.85-29.1-28.5-81h292.7v-11.2q0-124.95-55.8-188.51-55.8-63.525-153.4-63.52-87.6,0-144.9,62.07-57.3,62.04-57.3,171.66,0,104.25,55,165.7,55.05,61.35,158.4,61.4,144.9,0,191.8-131.2l-116.2-19.5q-18.3,63.15-73.9,63.1h0Zm-93.9-181.4v-2.9c0-29.9,8.3-54,24.7-72.3q24.75-27.3,62.9-27.37c23.8,0,44,8.77,60.4,26.37q24.75,26.4,26.4,76.2h-174.4Zm497,122.5q0-112.2,9.8-147.4,9.75-35.4,26.7-49c11.4-9.2,25.2-13.7,41.6-13.7q25.65,0,54.3,19.1l36.6-101.32q-37.35-22-76.4-22.01-29.1,0-51.1,13.91-22.05,13.92-50.2,58.33v-63.1h-108v441.29h116.7v-136.1Zm330.9-21.2,29.5-308.49V9747.69h-125.8v142.82l29.9,308.49h66.4Zm25.3,157.3v-116.6h-116.2v116.6h116.2Zm-9475.17,1500,120.82-455,121.65,455h129.95l147.8-608.6H6141.81l-93.41,425.1-106.29-425.1H5795.97l-111.68,418.1-91.76-418.1h-125.8l145.31,608.6h133.69Zm698.75-500.7v-107.9H6327.81v107.9h116.67Zm0,500.7V11415H6327.81v441.3h116.67Zm242.05-441.3v-155.7l-117.08,68.1v87.6h-53.56v93.4h53.56v192.2q0,78.15,10.17,107.2,10.17,28.95,38.4,44,28.23,14.85,65.19,14.9,51.885,0,92.58-17.8l-9.96-90.5c-20.49,7.4-36.12,11.2-46.92,11.2-7.75,0-14.32-2-19.72-6.1a26.2,26.2,0,0,1-10.38-14.9q-2.28-9-2.28-62.5v-177.7h80.13V11415h-80.13Zm159.84-167.3v608.6h116.66v-220.8q0-55.65,10.59-84.1,10.59-28.5,33.63-42.4c15.36-9.2,32.59-13.9,51.69-13.9,17.16,0,31.41,3.7,42.76,11a55.823,55.823,0,0,1,23.25,29.7q6.24,18.75,6.23,87.6v232.9h116.67v-258.6q0-59.4-6.02-87.4a144.13,144.13,0,0,0-22.01-51.5c-10.66-15.6-26.78-28.4-48.37-38.2s-45.94-14.7-73.07-14.7q-78.465,0-135.35,65.2v-223.4H6846.37Zm873.12,608.6v-608.6H7602.82v608.6h116.67Zm121.02-97.7q28.44,52.5,83.66,80.3,55.215,27.75,115.84,27.8,97.56,0,162.33-66t64.77-166.5q0-98.4-63.94-163.4-63.93-64.95-163.99-64.9-64.77,0-117.5,28.4-52.725,28.5-81.17,82.8-28.44,54.45-28.44,112.1Q7812.07,11706,7840.51,11758.6Zm122.48-222.8c20.62-23.2,46.29-34.9,77.02-34.9,29.89,0,55.22,11.7,75.98,34.9q31.125,34.95,31.13,99.7,0,66-31.13,100.8-31.14,34.95-75.98,34.9-46.1,0-77.02-34.9-30.93-34.8-30.93-100Q7932.06,11570.75,7962.99,11535.8Zm621.73,320.5,175.21-441.3H8639.94l-83.87,225.4c-4.71,12.5-8.72,25-12.04,37.4l-12.87,37.4-23.66-74.8-83.45-225.4H8301.57l177.7,441.3h105.45Zm428.05-77.2q-41.1,0-67.88-29-26.775-29.1-28.44-81h292.7v-11.2q0-124.95-55.84-188.5-55.845-63.6-153.41-63.5-87.6,0-144.9,62-57.285,62.1-57.29,171.7,0,104.25,55.01,165.7,55,61.35,158.39,61.4,144.885,0,191.81-131.2l-116.25-19.5q-18.27,63.15-73.9,63.1h0Zm-93.83-181.4v-2.9q0-44.85,24.7-72.3c16.47-18.2,37.43-27.4,62.9-27.4q35.7,0,60.41,26.4,24.69,26.4,26.36,76.2H8918.94Zm746.91,258.6v-183.5l99.22-102.1,167.74,285.6h158.99l-241.62-371.5,229.62-237.1H9914.12L9665.85,11518v-270.3H9543.37v608.6h122.48Zm795.05-608.6h-130.4l-237,608.6h129.9l50.3-138.6h244.1l52.7,138.6h133.3Zm-149,367.8,82.6-225.8,83.4,225.8h-166Zm717,240.8v-506.1h180.2v-102.5h-483.7v102.5h181v506.1h122.5Zm542.2,0v-254.9l223.8-353.7h-142l-140.3,240.4-142.9-240.4h-143.6l222.9,352.9v255.7h122.1Z"/>
</svg>
