<svg width="100" height="100" viewBox="0 0 100 100" fill='white'  xmlns="http://www.w3.org/2000/svg">
<path d="M44.4902 94C44.4902 78.8002 44.4902 63.6005 44.4902 48.4007C38.3375 48.4007 32.1527 48.4007 26 48.4007C26 46.2293 26 44.0579 26 41.8865C32.1527 41.8865 38.3375 41.8865 44.4902 41.8865C44.4902 36.8669 44.4902 31.8191 44.4902 25.1639C44.4902 16.3656 51.3479 8.92078 60.609 6.72118C64.2301 5.84698 68.1076 5.76238 71.921 6.49558C73.7797 6.86218 74.004 6.91858 74.2283 6.94678C74.2283 8.38498 74.2283 9.85138 74.2283 11.2896C72.6901 11.2614 71.1199 11.2614 67.9154 11.2332C59.0708 11.205 51.8927 17.4936 51.8927 25.2767C51.8927 31.9037 51.8927 36.8669 51.8927 41.8583C58.3979 41.8583 64.8711 41.8583 71.3763 41.8583C71.0558 44.0297 70.7354 46.2011 70.4149 48.3725C64.2622 48.3725 58.0774 48.3725 51.9247 48.3725C51.9247 63.5723 51.9247 78.772 51.9247 93.9718C49.4252 94 46.9577 94 44.4902 94Z" fill='white' />
</svg>
