<svg width="100" height="100" viewBox="0 0 100 100" fill="none" xmlns="http://www.w3.org/2000/svg">
<path d="M68.4015 6C56.1244 6 43.8756 6 31.5985 6C17.4869 6 6 17.4869 6 31.5985C6 43.8756 6 56.1244 6 68.4015C6 82.5414 17.4869 94 31.5985 94C43.8756 94 56.1244 94 68.4015 94C82.5414 94 94 82.5132 94 68.4015C94 56.1244 94 43.8756 94 31.5985C94 17.4869 82.5414 6 68.4015 6ZM87.4804 68.3733C87.4804 78.9288 78.9288 87.4804 68.3733 87.4804C56.1244 87.4804 43.8756 87.4804 31.6267 87.4804C21.0712 87.4804 12.5196 78.9288 12.5196 68.3733C12.5196 56.1244 12.5196 43.8756 12.5196 31.6267C12.5196 21.0712 21.0712 12.5196 31.6267 12.5196C43.8756 12.5196 56.1244 12.5196 68.3733 12.5196C78.9288 12.5196 87.4804 21.0712 87.4804 31.6267C87.4804 43.8756 87.4804 56.1244 87.4804 68.3733Z" fill="white"/>
<path d="M78.7595 26.3207C78.7595 23.5266 76.5016 21.2688 73.7075 21.2688C70.9134 21.2688 68.6556 23.5266 68.6556 26.3207C68.6556 29.1148 70.9134 31.3727 73.7075 31.3727C76.5016 31.3445 78.7595 29.0866 78.7595 26.3207Z" fill="white"/>
<path d="M50 28.0141C37.864 28.0141 27.9859 37.864 27.9859 50.0282C27.9859 62.1924 37.8358 72.0423 50 72.0423C62.136 72.0423 72.0141 62.1924 72.0141 50.0282C72.0141 37.864 62.136 28.0141 50 28.0141ZM50 65.4946C41.4483 65.4946 34.5054 58.5516 34.5054 50C34.5054 41.4484 41.4483 34.5055 50 34.5055C58.5516 34.5055 65.4945 41.4484 65.4945 50C65.4945 58.5516 58.5516 65.4946 50 65.4946Z" fill="white"/>
</svg>
