<svg width="100" height="100" viewBox="0 0 100 100" fill="none" xmlns="http://www.w3.org/2000/svg">
<path d="M6 78.0026C6 59.353 6 40.6752 6 22.0257C6 13.1946 13.1664 6.02824 21.9974 6.02824C29.6999 6.02824 37.4024 6.02824 45.1048 6.02824C45.1048 8.20073 45.1048 10.3732 45.1048 12.5457C37.4024 12.5457 29.6717 12.5457 21.9692 12.5457C16.7496 12.5457 12.5457 16.7778 12.5457 21.9692C12.5457 40.647 12.5457 59.353 12.5457 78.0308C12.5457 83.2504 16.7778 87.4543 21.9692 87.4543C40.647 87.4543 59.353 87.4543 78.0308 87.4543C83.2504 87.4543 87.4543 83.2222 87.4543 78.0308C87.4543 59.4659 87.4543 40.8727 87.4543 22.3078C89.6268 22.3078 91.7993 22.3078 93.9718 22.3078C93.9718 40.8727 93.9718 59.4376 93.9718 78.0026C93.9718 86.8336 86.8054 94 77.9743 94C59.3248 94 40.647 94 21.9974 94C13.1664 93.9718 6 86.8054 6 78.0026Z" fill="white"/>
<path d="M77.6639 77.6922C77.6639 55.9673 77.6639 34.2424 77.6639 12.5175C83.081 12.5175 88.5264 12.5175 93.9435 12.5175C93.9435 10.345 93.9435 8.17249 93.9435 6C80.9086 6 67.8736 6 54.8387 6C54.8387 8.17249 54.8387 10.345 54.8387 12.5175C60.2558 12.5175 65.7011 12.5175 71.1182 12.5175C71.1182 34.2424 71.1182 55.9673 71.1182 77.6922C73.3189 77.6922 75.4914 77.6922 77.6639 77.6922Z" fill="white"/>
<path d="M61.3844 22.3078C53.7948 29.8974 46.177 37.5152 38.5874 45.1048C38.5874 42.0295 38.5874 38.9542 38.5874 35.8788C43.1016 31.3645 47.6441 26.8221 52.1584 22.3078C55.2337 22.3078 58.3091 22.3078 61.3844 22.3078Z" fill="white"/>
<path d="M38.5874 64.093C43.1298 68.6354 47.6441 73.1497 52.1866 77.6922C55.2619 77.6922 58.3373 77.6922 61.4126 77.6922C53.823 70.1026 46.2052 62.4848 38.6156 54.8952C38.5874 57.9705 38.5874 61.0176 38.5874 64.093Z" fill="white"/>
<path d="M22.2796 77.6922C22.2796 59.2401 22.2796 40.7599 22.2796 22.3078C24.452 22.3078 26.6245 22.3078 28.797 22.3078C28.797 40.7599 28.797 59.2401 28.797 77.6922C26.6245 77.6922 24.452 77.6922 22.2796 77.6922Z" fill="white"/>
</svg>
