<svg id="_Слой_2" data-name="Слой 2" xmlns="http://www.w3.org/2000/svg" viewBox="0 0 318.48 318.48">
  <defs>
    <style>
      .cls-1 {
        fill: white;
        stroke: white;
        stroke-miterlimit: 10;
      }
         @media (prefers-color-scheme: dark) {
        .cls-1 {
          fill: #ffffff;  /* Явно задаем белый цвет */
          stroke: #ffffff; /* Явно задаем белый цвет */
        }
      }
    </style>
  </defs>
  <g id="_Слой_1-2" data-name="Слой 1">
    <path class="cls-1" d="M258.25,253.14V34.36c0-5,4.06-9.06,9.06-9.06h45.56c2.82,0,5.11-2.29,5.11-5.11V5.61c0-2.82-2.29-5.11-5.11-5.11H180.82c-2.82,0-5.11,2.29-5.11,5.11v14.58c0,2.82,2.29,5.11,5.11,5.11h43.57c5,0,9.06,4.06,9.06,9.06V253.14c0,2.82,2.29,5.11,5.11,5.11h14.58c2.82,0,5.11-2.29,5.11-5.11Z"/>
    <path class="cls-1" d="M.5,260.44V58.04C.5,26.29,26.29,.5,58.04,.5h77.52c2.89,0,5.23,2.3,5.23,5.11v14.58c0,2.81-2.34,5.11-5.23,5.11H57.9c-17.99,0-32.6,14.61-32.6,32.6v202.68c0,17.99,14.61,32.6,32.6,32.6h202.68c17.99,0,32.6-14.61,32.6-32.6V65.39c0-2.85,2.29-5.16,5.11-5.16h14.58c2.82,0,5.11,2.31,5.11,5.16v195.05c0,31.75-25.79,57.54-57.54,57.54H58.04c-31.75,0-57.54-25.79-57.54-57.54Z"/>
    <path class="cls-1" d="M65.34,60.23h14.58c2.82,0,5.11,2.29,5.11,5.11V253.14c0,2.82-2.29,5.11-5.11,5.11h-14.58c-2.82,0-5.11-2.29-5.11-5.11V65.34c0-2.82,2.29-5.11,5.11-5.11Z"/>
    <path class="cls-1" d="M200.08,61.86c-26.83,26.83-53.65,53.65-80.48,80.48-.6,.6-1.63,.17-1.63-.68v-26.49c0-4.01,1.6-7.86,4.43-10.7l39.81-39.81c2.84-2.84,6.69-4.43,10.7-4.43h26.49c.85,0,1.27,1.04,.68,1.63Z"/>
    <path class="cls-1" d="M122.4,214.01c13.27,13.27,26.54,26.54,39.81,39.81,2.84,2.84,6.69,4.43,10.7,4.43h26.49c.85,0,1.27-1.04,.68-1.63-26.83-26.83-53.65-53.65-80.48-80.48-.6-.6-1.63-.17-1.63,.68v26.49c0,4.01,1.6,7.86,4.43,10.7Z"/>
  </g>
</svg>