<svg xmlns="http://www.w3.org/2000/svg" viewBox="0 0 100 100" width="50" height="50"><path d="M93.9104 35.0497C93.4078 34.3254 90.9135 35.1831 88.3634 36.5554C85.9622 33.1056 82.3139 30.6279 78.0885 29.8083C77.3067 24.8528 74.4401 20.6215 70.4381 18.0675C71.3688 15.1895 71.7969 12.4258 70.9779 12.0446C70.1775 11.6634 68.372 13.779 66.8084 16.3521C65.1704 15.7803 63.4207 15.4754 61.5965 15.4754C57.0919 15.4754 52.9968 17.3051 50 20.2784C47.0217 17.3051 42.908 15.4754 38.4035 15.4754C36.5793 15.4754 34.811 15.7803 33.1916 16.3521C31.628 13.779 29.8411 11.6634 29.022 12.0446C28.2216 12.4258 28.6311 15.1895 29.5618 18.0675C25.5598 20.6215 22.6933 24.8528 21.9115 29.8083C17.6861 30.6279 14.0378 33.1056 11.6366 36.5554C9.08647 35.1641 6.59221 34.3254 6.08963 35.0497C5.56844 35.8121 7.3926 38.0802 9.68212 40.1387C8.8631 42.1018 8.43499 44.2746 8.43499 46.5618C8.43499 53.1946 12.1205 58.9506 17.5186 61.7524C19.3614 62.7054 20.8691 64.2493 21.3531 66.2124C22.1535 69.3954 22.805 72.7499 23.3634 74.8655C25.7274 83.7664 33.4708 90.1133 42.6661 91.1616C45.1045 91.4285 47.5615 91.619 50 91.619C52.4384 91.619 54.8955 91.4475 57.3339 91.1616C66.5106 90.1324 74.2726 83.7855 76.6366 74.8655C77.195 72.7499 77.8465 69.3954 78.6469 66.2124C79.1309 64.2493 80.6386 62.7054 82.4814 61.7524C87.8794 58.9316 91.565 53.1755 91.565 46.5618C91.565 44.2937 91.1369 42.1209 90.3179 40.1387C92.6074 38.0802 94.4316 35.8121 93.9104 35.0497ZM53.3691 29.1031C55.1375 25.1386 59.3814 22.394 64.2024 24.6431C69.0235 26.8921 69.768 32.0002 68.0183 35.9455C66.3058 39.7765 58.8975 47.1527 54.9885 45.342C51.0982 43.5122 51.6753 32.915 53.3691 29.1031ZM35.7975 24.624C40.6185 22.375 44.8625 25.1386 46.6309 29.084C48.3434 32.915 48.9204 43.4932 45.0114 45.3229C41.1025 47.1527 33.6941 39.7575 31.9816 35.9265C30.2319 31.9811 30.9765 26.8731 35.7975 24.624ZM19.7709 53.2899C16.8299 50.7168 15.6944 46.1044 18.803 42.3877C21.9115 38.652 26.5464 39.0904 29.4688 41.6635C32.2981 44.1412 36.5793 52.7181 34.0664 55.7295C31.5536 58.741 22.6188 55.7677 19.7709 53.2899ZM55.2864 79.9164C52.0103 78.0485 48.0269 78.0485 44.7508 79.9164C37.8264 83.8808 32.3912 78.2582 32.3912 70.6343C32.3912 64.478 38.5524 58.1311 43.6899 53.7283C47.3382 50.6025 52.6804 50.6025 56.3287 53.7283C61.4662 58.1311 67.6274 64.478 67.6274 70.6343C67.6274 78.2772 62.1922 83.8808 55.2864 79.9164ZM80.2477 53.2899C77.4184 55.7677 68.4836 58.741 65.9521 55.7295C63.4393 52.7181 67.7019 44.1412 70.5498 41.6635C73.4908 39.0904 78.1071 38.652 81.2156 42.3877C84.3241 46.1044 83.1701 50.7168 80.2477 53.2899Z" fill="white"/></g></svg>