<svg width="100" height="100" viewBox="0 0 100 100" fill="none" xmlns="http://www.w3.org/2000/svg">
<path d="M49.9485 6C32.8803 6 19 19.8803 19 36.9485C19 44.2554 21.4827 51.393 25.7427 57.1482C30.7362 63.9755 37.0557 71.8184 40.6104 77.63C44.1651 83.4417 45.2653 86.9964 47.0426 91.9899C48.0019 94.67 51.8387 94.67 52.7979 91.9899C54.5752 86.9964 55.6755 83.4417 59.2302 77.63C62.7849 71.8184 69.1326 63.9755 74.0979 57.1482C78.3579 51.393 80.8405 44.2836 80.8405 36.9485C80.897 19.8803 67.0167 6 49.9485 6ZM68.8787 53.2832C63.9134 60.0822 56.7758 69.7025 53.7007 74.2164C50.6256 78.7303 50.9077 78.9278 50.3717 80.3102C50.2306 80.7051 49.6664 80.7051 49.5253 80.3102C48.9893 78.9278 49.2714 78.7303 46.1963 74.2164C43.1212 69.7025 35.9836 60.0822 31.0183 53.2832C27.5482 48.6 25.5452 42.8448 25.5452 36.9767C25.5452 23.4914 36.4914 12.5452 49.9767 12.5452C63.462 12.5452 74.4082 23.4914 74.4082 36.9767C74.38 42.8448 72.3487 48.6 68.8787 53.2832Z" fill=" rgb(143, 57, 103)"/>
<path d="M49.9485 24.5352C43.6573 24.5352 38.5791 29.6416 38.5791 35.9046C38.5791 42.1959 43.6855 47.274 49.9485 47.274C56.2398 47.274 61.3179 42.1677 61.3179 35.9046C61.3179 29.6416 56.2116 24.5352 49.9485 24.5352ZM49.9485 42.5626C46.281 42.5626 43.2905 39.5722 43.2905 35.9046C43.2905 32.2371 46.281 29.2466 49.9485 29.2466C53.6161 29.2466 56.6065 32.2371 56.6065 35.9046C56.5783 39.5722 53.6161 42.5626 49.9485 42.5626Z" fill=" rgb(143, 57, 103)"/>
</svg>
