<svg width="100" height="100" viewBox="0 0 100 100" fill="none" xmlns="http://www.w3.org/2000/svg">
<path d="M88.1974 34.8538C81.1744 34.8538 74.1513 33.359 65.9436 22.9231C65.9436 31.018 65.9436 46.6436 65.9436 66.9513C65.9436 81.9564 53.0821 94 38.4718 94C23.8333 94 11 81.6462 11 66.7538C11 51.9744 23.1282 39.5077 38.0487 39.5077C38.7539 39.5077 39.4872 39.5077 40.1923 39.5077V46.0231C39.4872 46.0231 38.7821 46.0231 38.0769 46.0231C26.7385 46.0231 17.5154 55.4718 17.5154 66.7538C17.5154 78.0923 27.2462 87.4846 38.4718 87.4846C49.6692 87.4846 59.4282 78.2897 59.4282 66.9231C59.4282 46.6154 59.4282 26.3077 59.4282 6C61.4308 6 63.4051 6 66.1128 6C69.9487 22.6974 84.1077 25.8564 88.2256 25.8846L88.1974 34.8538Z" fill="white"/>
</svg>
