<svg id="general" xmlns="http://www.w3.org/2000/svg" width="1440.296" height="1032.5" viewBox="0 0 17437 12500">
  <defs>
    <style>
      .cls-1 {
        fill: #944a71;
        fill-rule: evenodd;
      }
    </style>
  </defs>
  <path id="Описание_китайский" data-name="Описание китайский" class="cls-1" d="M5286.55,193.61q12.42-48.81,20.86-122.92l-92.3-11.538q-20.865,193.482-109.17,329.711l72.78,55.469q57.24-98.514,78.99-156.2h188.15a482.978,482.978,0,0,1-48.37,106.058l85.65,32.837q59.46-93.624,66.12-233.415H5286.55ZM5039.38,511.783q47.925-109.6,76.33-246.284v-94.52H4765.14V265.5h259.6q-15.975,86.979-48.82,175.283-62.13-63.453-147.33-130.02l-63.45,65.232q101.175,73.666,171.73,151.764-71.445,136.236-197.47,233.859l60.35,68.782Q4918.235,734.111,4995,600.534q44.37,61.685,82.54,142.889l78.1-60.794q-56.8-96.736-116.26-170.846h0Zm321.72-46.6V340.049h-90.97V472.732q0,112.72-48.37,192.812T5073.11,807.768l73.66,82.094q123.81-96.3,182.83-232.971,52.35,125.139,176.17,232.971L5571,807.768q-209.9-164.184-209.9-342.58h0ZM6117.36,50.721q-59.025,60.8-158.87,104.726V604.084l-51.92,22.631,52.37,83.87q103.4-46.594,206.79-102.507V513.114l-118.04,56.8V202.929q67.89-26.625,142.45-90.082Zm334.59,82.1H6193.69v616.82h90.97V578.79l19.97,68.338q91.845,0,119.59-21.078,27.72-21.072,27.73-67.229v-426ZM6323.71,560.6a368.381,368.381,0,0,1-39.05-2.663V219.792h76.32v309.3q0,31.513-37.27,31.507h0ZM5790.31,68.915l-78.99,58.132q70.56,65.232,120.26,155.758l83.43-63.457q-43.05-73.656-124.7-150.433h0Zm252.5,709.121q-109.17,0-163.31-75.882V360.462H5681.14v92.745h106.95V703.041q-44.385,67.458-115.82,116.708l68.78,73.22a702.2,702.2,0,0,0,96.3-105.17q71.445,78.981,209.45,78.988h416.69l39.94-88.751H6042.81Zm1103.27-255.6h267.14v-90.97H7195.34a566.616,566.616,0,0,0,107.83-126.026l-81.65-43.932q-38.61,66.126-113.6,130.02l56.36,39.938H7063.54V242.423h315.07V151.9H7063.54V62.7h-95.41V151.9H6649.96v90.526h318.17v189.04H6857.19l65.24-37.275q-42.165-68.332-108.72-132.683l-82.1,50.144q52.365,43.5,102.07,119.814H6617.12v90.97h268.03q-45.255,73.219-103.62,126.026-58.35,52.815-178.17,113.158l54.59,79.876q178.83-81.207,310.18-266.253V882.318h95.41V572.577q133.125,196.143,304.42,268.028l59.02-80.763q-171.3-74.552-280.9-237.409h0ZM8328.35,61.815H8235.6V752.3q0,35.508-29.73,35.5a864.957,864.957,0,0,1-92.75-5.326l29.29,99.845h94.52q91.41,0,91.42-114.488V61.815ZM7913.87,213.579l-78.54,47.038q34.6,35.508,66.56,87.864-91.86,9.767-151.76,11.094,31.5-65.67,74.1-190.371h228.1V81.784H7546V169.2h170.85q-25.305,96.746-76.78,193.477l-90.08,4.438,33.73,96.738q202.785-19.968,351.9-39.494a811.764,811.764,0,0,1,31.06,75.438l86.98-48.813q-67.9-157.973-139.79-237.409h0Zm260.05-53.694h-92.75V697.716h92.75V159.885ZM8061.2,699.047q-81.21,15.976-213.45,36.832V642.691h167.3v-87.42h-167.3V469.626h-92.74v85.645H7585.05v87.42h169.96V749.636l-229.87,31.95,31.95,98.957q171.735-27.072,504.11-90.082V699.047ZM8881.8,109.74h-86.09V237.986h-64.79V61.815h-86.09V237.986h-64.78V109.74h-86.09V325.406H8881.8V109.74Zm331.93,520.969q0,101.177-3.99,119.592t-14.2,18.416q-12.87,0-12.87-12.425V90.659H8914.64V537.077q0,189.486-79.88,299.091l78.99,48.813q87.42-121.146,87.42-347.9V184.291h94.52v604.4q0,76.318,72.78,76.326h38.16q52.365,0,72.78-47.482t20.41-154.87Zm-347.02,22.632-265.36,89.194V599.646h265.36V361.793H8483.75v86.976h291.99v63.9H8510.38v217q0,34.612-25.74,59.019l36.39,67.451L8866.71,740.76V653.341ZM10192.3,437.232H9969.99q23.52-26.178,47.91-59.463l-43.47-26.182H10163V274.374H9854.61V210.029h-90.97v64.345H9455.23v77.213h193.48l-49.7,36.388q36.375,15.539,64.34,49.257H9425.5v156.2h86.97v-78.1h593.73v78.1h86.1v-156.2Zm-333.25,0H9709.5l48.37-32.394q-26.19-34.614-53.69-53.251h218.33q-20.865,41.717-63.46,85.645h0Zm236.05,149.1H9854.61V529.089h-90.97v57.245H9527.12V816.2h91.85V664.435h144.67V880.543h90.97V664.435h149.59v47.038c0,13.61-9.81,20.412-29.33,20.412q-25.74,0-71.45-4.881l31.07,89.195h76.31q84.3,0,84.3-90.97v-138.9Zm115-470.381h-190V61.815h-95.38v54.138H9693.53V61.815h-95.41v54.138H9408.19V194.5h189.93V252.63h95.41V194.5h231.19V252.63h95.38V194.5h190V115.953Zm915.5,313.735h-335V371.556h237.8V290.793h-237.8V237.1h301.7V154.56h-170.8q39.9-34.166,63.5-63.014l-98.1-44.376q-41.7,56.808-99.9,107.389h-102a452.709,452.709,0,0,0-88.8-103.839L10507,102.64a206.2,206.2,0,0,1,56.4,51.92H10389V237.1h298.6v53.695h-233.4v80.763h233.4v58.132h-334.1V512.67h772.1V429.688Zm-276.9,228.09h255.6V575.24h-335.5l4.5-33.726-94.5-16.419c-1.2,19.234-3.7,35.945-7.6,50.145h-296.4v82.538h259.6q-87.45,128.249-308.4,149.1l55.4,82.1q267.15-48.821,360.8-231.2,99.9,180.615,367.5,232.084l54.5-92.745q-213.9-19.074-315.5-139.339h0Zm983.5-421.567-74.6,56.357q123,75.882,187.3,180.164l84.3-63.013q-75-103.392-197-173.508h0Zm-323.5,0q-82.95,128.248-214.8,171.733l73.7,64.788q124.65-60.791,224.5-181.052Zm375.2,262.037q-107.25-61.9-161.8-143.111l19.1-30.619-86.5-34.613q-69.75,102.956-158.2,172.843-88.5,69.891-239.9,122.7l53.7,76.326q58.2-17.307,120.7-50.144V883.206h92.8v-42.6h303.5v42.6h92.7V615.178q69.3,32.4,129.2,46.594l62.5-82.1A663.806,663.806,0,0,1,11883.9,498.248Zm-361.9,57.91q84.3-59.46,144.7-129.133,56.25,67.011,149.9,129.133H11522Zm1.8,201.909V638.7h303.5v119.37h-303.5Zm523.6-621.7h-326.2V61.815h-95.8v74.551h-326.2V297.893h95.4V220.679H11952v77.214h95.4V136.366ZM12659,653.341l31.5-329.711V170.979H12556V323.63l32,329.711h71Zm27.1,168.183v-124.7h-124.3v124.7h124.3ZM809.733,2974.84q-2.662,34.62-11.316,77.44t-13.535,49.7q-4.888,6.885-11.981,6.88-14.208,0-43.932-38.39a361.788,361.788,0,0,1-47.483-80.1q75.884-80.76,134.459-189.92l-78.989-43.05q-35.508,79.44-88.308,142.89-16.869-63.9-28.844-154.42H872.3v-87.42H611.372q-4.887-77.655-4.881-161.53,0-55.47,2.219-112.72H518.183l-1.331,109.17q0,91.86,3.993,165.08H365.086V2509.34q77.214-28.4,139.34-67l-59.907-63.9q-153.544,84.315-354.564,107.38l45.264,85.65q90.08-19.08,137.565-31.95v118.93H80.636v87.42H272.784v139.78q-138.016,33.72-208.123,47.48l50.589,86.98q74.1-19.08,157.534-42.6v116.26q0,25.74-26.625,25.74H140.988l28.844,86.97H274.559q40.375,0,65.455-23.07t25.072-63.02V2951.32l131.8-38.16v-87.42q-80.323,23.535-131.8,36.39V2745.87h162.86q14.643,136.23,48.369,228.97-83.87,72.78-195.7,121.59l72.776,69.23q90.08-50.6,159.31-110.05,89.195,153.525,171.734,153.54,26.179,0,49.258-16.42t38.829-78.99q15.746-62.565,19.747-98.96ZM693.468,2418.82l-69.227,67q88.749,54.15,145.553,132.69l74.552-65.23q-73.668-90.54-150.878-134.46h0Zm466.922-40.38q-47.925,252.93-187.265,440.2l73.665,63.46q39.495-59.46,65.68-106.5v430.88h92.74V2574.13l19.97-59.02q19.965-63.9,29.73-111.82Zm167.3,11.09-72.78,52.81q56.8,51.48,102.95,134.45l78.99-51.92q-38.16-77.64-109.16-135.34h0Zm451.75,31.95H1449.72V2516h236.97v583.09q0,9.33-5.99,12.21t-34.39,2.88q-44.835,0-79.44-3.1l31.51,95.4h110.94q70.11,0,70.12-73.66V2421.48Zm-416.25,169.07h-92.75v615.93h92.75V2590.55Zm1296.75,507.66H2521.93v-93.64H2680.8v-85.2H2521.93V2856.8h217v-85.64H2225.5v-58.13q-36.84,21.75-93.63,50.14V2640.25h89.19v-94.52h-89.19V2387.75h-92.75v157.98h-99.84v94.52h99.84v167.3q-74.115,35.055-122.47,52.8l41.71,90.09,80.76-36.39v165.08q0,33.72-34.17,33.72a545.714,545.714,0,0,1-62.12-3.55l31.06,99.85h73.66q84.315,0,84.32-97.19V2867.45l79.43-44.37v33.72h219.66v222.33q-48.375-19.98-82.54-52.37,19.53-52.8,32.84-134.46l-92.74-16.41q-21.75,187.26-150.88,270.69l68.78,63.45q63.9-47.04,100.29-102.5,93.63,80.76,241.41,80.76h178.39l29.73-97.18q-43.935,7.095-96.3,7.1h0Zm25.74-686.94h-430v325.28h430V2411.27Zm-339.03,118.04v-35.5h248.06v35.5H2346.65Zm0,124.7v-42.6h248.06v42.6H2346.65Zm928.88,299.09q-86.985,118.05-199.25,180.61v-593.3q27.51-94.08,37.27-137.12l-92.74-24.85q-48.825,258.255-184.61,440.2l74.56,63.46q43.485-66.57,72.77-121.59v445.97h92.75V3144.8l62.57,70.11q130.02-83.43,218.33-197.47Zm389.62-110.05H3541.78V2654.9h105.17v-92.75H3541.78v-174.4h-92.74v174.4H3332.77v-174.4h-92.75v174.4H3130.86v92.75h109.16v188.15H3113.55v92.74h551.6v-92.74Zm-332.38,0V2654.9h116.27v188.15H3332.77Zm160.64,104.28-74.55,70.11q135.795,111.825,187.27,204.57l83.42-68.33q-68.34-107.385-196.14-206.35h0Zm989.67-543.16H3917.73v276.02h565.35V2404.17Zm-11.53,652.32q70.545-84.3,86.97-228.09H4244.34v75.44h39.05q12.87,88.32,62.57,151.77-55.02,35.505-131.8,58.13V2789.35h379.86v-75.44h-789v75.44h76.33v286.23l-90.53,6.65,13.31,86.98q160.635-18.645,319.06-45.27v82.54h90.97v-73.66l47.04,65.68q90.525-38.61,147.33-81.21,67.89,51.915,171.74,81.21l45.7-81.21q-91.86-20.415-154.42-60.8h0Zm-499.23-228.97v-38.17h150.87v38.17H3972.32Zm0,112.71v-39.05h150.87v39.05H3972.32Zm437.1,60.79q-34.185-44.355-39.05-97.18h90.08q-12.42,53.25-51.03,97.18h0Zm-437.1,65.68v-52.81h150.87v34.62q-59.46,8.88-150.87,18.19h0Zm36.83-554.69v-33.29h382.52v33.29H4009.15Zm0,95.85v-31.07h382.52v31.07H4009.15Zm988.34,347.9q57.24-124.7,68.34-391.83H4919.39q13.74-80.325,24.4-160.64l-91.85-15.54q-9.78,98.085-22.64,176.18h-93.63v94.52H4812q-20.865,106.935-61.69,268.02,68.34,30.2,124.7,62.13-54.585,80.325-147.33,145.99l60.8,75.44q111.825-98.505,163.75-174.39,55.905,42.6,100.28,83.87l59.02-83.43a1377.6,1377.6,0,0,0-114.04-80.32h0Zm-78.99-45.71q-27.075-13.74-63.46-29.73,29.295-118.92,47.93-221.87h70.11q-8.43,148.215-54.58,251.6h0Zm619.04-148.65H5352.05v-68.34q67.005-54.135,146.44-177.06v-93.63H5102.22v92.74h276.01q-60.345,86.1-118.92,138.9V2761.4H5072.04v92.3h187.27v213q0,45.705-54.59,45.71a303.212,303.212,0,0,1-72.77-9.32l30.17,103.39h96.3q93.63,0,93.63-102.5V2853.7h185.49v-92.3Zm652.42-234.75q13.755-61.245,24.41-123.36l-96.3-18.2q-19.53,179.73-98.96,322.61V2540.41H5881.1q35.055-69.675,51.48-138.9l-98.07-21.3q-17.76,92.31-48.82,160.2h-83.87v649.65h92.75v-64.34h131.8v64.34h92.74V2732.11L6091,2785.8q43.035-72.765,73.66-166.41h183.28q0,118.485-3.11,220.77-3.1,102.3-9.1,170.63t-12.2,79.43a45.014,45.014,0,0,1-17.75,17.53q-11.55,6.435-34.61,6.43-50.16,0-144.67-17.75l26.18,97.18q82.095,11.985,127.81,11.99,73.215,0,99.62-27.07t36.83-58.58q10.425-31.5,17.53-226.09t7.1-334.82v-32.39H6189.96Zm-396.28,260.04V2633.15h131.8v153.54h-131.8Zm0,246.28V2879.44h131.8v153.53h-131.8Zm379.86-299.09-70.11,61.69q86.97,83.865,126.47,191.25l86.53-57.68q-59.025-120.255-142.89-195.26h0Zm1112.59,305.31q71.445-125.145,80.77-316.84H7063.37V2503.13h199.69q-4.89,62.13-12.21,78.32-7.32,16.215-26.84,16.2-25.755,0-97.19-12.87l23.52,93.63q74.55,8.445,94.08,8.44,38.16,0,65.45-23.52t41.27-114.27q13.98-90.75,13.98-133.35H6971.51v790.77h91.86V2808.43h18.19q31.5,147.78,95.41,237.41-42.6,56.82-104.73,104.29l64.79,60.79q58.125-47.925,98.07-97.18,52.35,51.015,123.37,96.29l55.46-73.66q-76.32-43.935-127.8-97.18h0Zm-59.46-77.22q-40.4-68.325-59.02-153.54H7270.6q-15.09,90.54-43.93,153.54h0Zm-304.42-546.26H6639.58V2863.9q0,177.51-61.69,278.24l72.78,59.91q71.445-119.82,79.88-281.79H6833.5v156.2q0,16.875-10.65,22.19t-59.02,5.33l-32.4-.89,26.63,92.74h16.86q90.525,0,118.93-28.4t28.4-78.1V2415.71Zm-191.7,207.23V2504.02H6833.5v118.92H6730.55Zm0,209.01V2712.14H6833.5v119.81H6730.55Zm1287.87-145.99q89.2-65.67,163.75-154.87v-81.65H7839.59l18.19-33.73-85.64-39.05q-77.22,179.715-246.29,253.83l63.46,73.66q79.425-41.265,144.66-109.16,46.6,47.49,105.62,90.97-131.805,65.235-331.05,89.64l40.83,84.75q221.43-31.5,378.97-118.04,170.4,93.645,371.87,118.04l40.83-84.75q-198.36-31.065-322.62-89.64h0Zm-90.97-50.15q-62.565-39.045-130.91-98.95h257.38q-63.45,58.14-126.47,98.95h0Zm19.09,226.32q3.54-42.15,3.55-68.34l-94.53-5.32,0.45,21.74q0,25.29-2.22,51.92H7596.85v87.42h237.86q-50.6,138.015-314.18,180.61l48.81,85.64q311.07-64.35,362.99-266.25h184.16q-10.2,126.915-19.3,147.99t-35.72,21.08q-44.385,0-117.6-9.32l17.31,97.18h120.7q75.885,0,96.74-58.35t35.06-286H7946.54Zm992.33-60.8V2675.75H8814.62v125.58h124.25Zm0,346.13V3022.77H8814.62v124.69h124.25ZM704.118,3843.16q56.8-60.345,90.971-145.11h60.795v-82.09H591.4l16.419-53.7-89.639-19.08q-52.815,167.745-153.1,252.05v-78.1H278.109v504.11h86.977v-276.9l38.163,67q143.778-43.035,230.311-105.17,78.983,63.465,231.643,101.62l45.263-88.31q-123.372-18.18-206.348-76.32h0Zm-67.008-58.13q-34.176-36.39-66.563-86.98H698.793q-22.632,45.27-61.683,86.98h0ZM365.086,3925.25V3804.11l63.9,53.69q48.363-42.6,82.54-89.19,33.281,49.26,56.357,75.44-84.765,57.69-202.8,81.2h0ZM222.639,3545.4q-49.257,244.95-181.941,426l71.889,63.46q13.749-19.965,39.051-61.68v398.05h90.97V3791.68l29.732-77.65q29.726-83.43,43.932-144.22Zm398.94,393.17q-98.515,86.97-225.43,122.92l53.695,68.78q134.011-46.59,231.642-142.45Zm88.308,63.01q-123.808,139.785-301.756,177.95l56.357,71.88q177.943-54.57,311.519-202.79Zm78.989,76.33q-139.783,172.62-387.4,223.65L454.282,4377q146.441-39.945,236.08-97.19T855,4124.94Zm519.734-195.7-91.86,49.26V3803.22h83.87V3708.7h-83.87V3550.72H1124V3708.7H1011.29v94.52H1124v172.62q-77.2,35.94-130.018,55.47l41.268,89.2q31.5-12.87,88.75-39.94v159.75q0,21.3-11.09,27.51-11.1,6.225-41.27,6.22-19.965,0-51.03-4.44l31.06,99.84h80.76q84.315,0,84.32-96.29V4033.09l91.86-50.59V3882.21Zm419.79-210.78q-11.535,78.54-31.5,103.39-19.98,24.855-59.47,24.85H1446.62q-24.42,0-24.41-29.29v-24.4q223.2-54.585,315.51-109.17l-70.11-74.55q-78.1,57.69-245.4,93.63V3552.5h-92.75v242.73q0,48.825,22.64,70.78,22.62,21.975,77.21,21.97h227.2q38.16,0,84.54-21.3t79.21-158.87Zm20.86,264.47H1345v433.55h92.74v-43.49h220.11v43.49h91.41V3935.9Zm-311.52,151.77v-60.8h220.11v60.8H1437.74Zm0,147.32v-61.68h220.11v61.68H1437.74Zm1251.49-658.97H1986.76v540.05h93.63v-51.03h210.79v304.41h93.63V4065.04H2595.6v51.03h93.63V3576.02Zm-304.42,191.7v-98.96H2595.6v98.96H2384.81Zm-304.42,0v-98.96h210.79v98.96H2080.39Zm304.42,204.57v-113.6H2595.6v113.6H2384.81Zm-304.42,0v-113.6h210.79v113.6H2080.39Zm865.87,186.38-50.59,43.49q90.96,68.34,140.67,186.37l78.99-70.11q-68.34-98.07-169.07-159.75h0Zm1484.02-315.51q56.79-60.345,90.97-145.11h60.79v-82.09H4317.56l16.42-53.7-89.64-19.08q-52.815,167.745-153.1,252.05v-78.1h-86.97v504.11h86.97v-276.9l38.17,67q143.775-43.035,230.31-105.17,78.975,63.465,231.64,101.62l45.26-88.31q-123.36-18.18-206.34-76.32h0Zm-67.01-58.13q-34.185-36.39-66.57-86.98h128.25q-22.635,45.27-61.68,86.98h0Zm-272.03,140.22V3804.11l63.9,53.69q48.375-42.6,82.54-89.19,33.285,49.26,56.36,75.44-84.765,57.69-202.8,81.2h0ZM3948.8,3545.4q-49.26,244.95-181.94,426l71.88,63.46q13.755-19.965,39.06-61.68v398.05h90.97V3791.68l29.73-77.65q29.715-83.43,43.93-144.22Zm398.94,393.17q-98.52,86.97-225.43,122.92l53.69,68.78q134.01-46.59,231.64-142.45Zm88.3,63.01q-123.795,139.785-301.75,177.95l56.36,71.88q177.945-54.57,311.51-202.79Zm78.99,76.33q-139.785,172.62-387.4,223.65l52.81,75.44q146.445-39.945,236.08-97.19t164.63-154.87Zm700.79-.89-68.34,31.5a687.6,687.6,0,0,1,20.86,67.46q-31.08,11.085-64.79,19.96,32.385-76.3,67.45-191.7l-52.37-22.63h137.13v-90.97h-82.1V3785.03h70.11v-90.97h-70.11V3549.84h-84.31v144.22h-71v90.97h71v105.61h-78.99v90.97h71a1777.442,1777.442,0,0,1-57.69,227.2l-30.62,9.32,39.05,92.3,155.32-57.24,10.2,65.23,71.45-30.62q-15.975-115.365-53.25-210.78h0Zm-227.21-498.34H4769.4v448.19q0,177.51-61.69,278.24l66.12,59.91q79.44-140.22,79.44-281.79h51.47v156.2q0,28.41-27.51,28.4l-41.27-1.77,31.51,92.74h50.14q70.995,0,71-82.09V3578.68ZM4853.27,3786.8V3666.99h51.47V3786.8h-51.47Zm0,208.12V3875.11h51.47v119.81h-51.47Zm662.09-409.58H5279.28v784.11h84.31V3679.86h68.34v413.58q0,20.865-18.2,20.85-19.965,0-43.48-5.77l29.73,102.07h37.27q78.1,0,78.11-90.08V3585.34Zm225.51,573.33-50.58,43.49q90.96,68.34,140.67,186.37l78.99-70.11q-68.355-98.07-169.08-159.75h0Zm1498.67,59.02a402.753,402.753,0,0,0,66.56-99.85h86.09v-87.42h-262.7l25.73-48.81-84.75-31.95h331.04v-87.42H7255.07q42.6-52.35,65.23-99.84l-74.55-35.5h137.57v-86.98h-209.9v-89.2h-92.75v89.2H6879.65v86.98h119.81l-58.13,38.16a289.844,289.844,0,0,1,74.55,97.18H6860.57v87.42h190.81q-10.65,35.94-39.05,80.76H6876.1v87.42h86.53q-37.725,60.36-63.9,96.3,89.64,18.2,142,31.95-96.735,39.045-228.09,40.82l46.15,88.76q196.14-15.975,308.86-90.53,102.945,36.39,186.38,89.64l55.47-86.09q-69.225-33.72-169.96-71h0Zm-93.64-355.45H7043.4l67-39.05q-33.72-61.68-74.55-96.29h190.82a1055.381,1055.381,0,0,1-80.77,135.34h0Zm-3.55,319.95q-43.485-12.87-92.74-25.3,9.315-11.535,27.51-39.05h116.27a259.176,259.176,0,0,1-51.04,64.35h0ZM6860.57,3708.7H6798V3550.72h-94.52V3708.7H6599.64v94.52h103.84v169.07q-66.57,34.185-122.04,53.7l37.28,87.42a901.5,901.5,0,0,0,84.76-38.17V4242.1q0,32.835-34.62,32.83a619.226,619.226,0,0,1-68.34-3.55l31.07,99.85h81.65q84.75,0,84.76-96.3V4021.55q41.7-27.06,47.04-31.95v-99.85L6798,3919.48V3803.22h62.57V3708.7Zm1384.17,561.8H8084.1v-66.57h218.77v-81.65H8084.1v-50.14h178.84V3952.32h69.22v-81.65h-69.22V3752.63H8084.1v-40.38h225.87V3630.6H8084.1v-79.88h-90.97v79.88H7821.39v81.65h171.74v40.38H7842.25v81.65h150.88v36.39H7810.3v81.65h182.83v38.17H7842.25v81.65h150.88v177.5q-43.5-16.41-68.34-39.94,11.535-48.81,12.87-104.73l-90.08-9.76q0,89.64-27.07,140.67t-80.32,90.08l75.44,60.8q52.8-51.03,78.54-96.3,82.095,63.465,201.47,63.46h227.2l31.95-97.18q-58.575,13.755-110.05,13.76h0ZM8084.1,3870.67v-36.39h87.86v36.39H8084.1Zm0,119.82v-38.17h87.86v38.17H8084.1Zm-297.32-393.62H7545.82v692.71h90.97v-56.36h59.02v35.5h90.97V3596.87Zm-149.99,181.94v-95.4h59.02v95.4h-59.02Zm0,182.83v-95.41h59.02v95.41h-59.02Zm0,184.16v-97.18h59.02v97.18h-59.02Zm1538.6-21.74q-5.775,68.79-17.97,100.28-12.21,31.515-47.26,31.51H8874.52q-24.405,0-24.4-24.41V4104.97l383.41-43.48-11.1-85.65-372.31,43.05V3893.3l294.21-38.16-10.65-85.64-283.56,36.38v-113.6q225.42-42.15,310.63-83.42l-61.68-73.67q-75.45,43.5-274.69,77.88-199.26,34.395-370.54,38.39l47.04,82.98q90.075-1.77,251.17-25.74v110.05l-260.93,33.73,9.76,85.2,251.17-31.51v123.37l-295.55,33.72,10.21,85.2,285.34-32.39v130.91q0,95.4,99.84,95.4h284.45q67.005,0,96.08-41.04,29.055-41.04,39.27-143.56Zm271.67,11.53q-38.16,38.61-38.16,93.19,0,54.15,38.38,92.53t92.53,38.38q53.685,0,91.86-38.38t38.16-92.53q0-54.585-38.39-93.19t-92.52-38.6Q9485.22,4096.99,9447.06,4135.59Zm38.83,146.22q-21.96-22.4-21.96-53.92,0-31.5,22.18-53.47t53.25-21.96q31.065,0,53.26,21.96,22.17,21.975,22.18,53.47,0,31.515-21.96,53.92t-53.48,22.41Q9507.86,4304.22,9485.89,4281.81ZM809.733,5300.78q-2.662,34.62-11.316,77.44t-13.535,49.7q-4.888,6.885-11.981,6.88-14.208,0-43.932-38.39a362.015,362.015,0,0,1-47.483-80.1q75.884-80.76,134.459-189.92l-78.989-43.05q-35.508,79.44-88.308,142.89-16.869-63.9-28.844-154.43H872.3v-87.42H611.372q-4.887-77.64-4.881-161.52,0-55.47,2.219-112.72H518.183l-1.331,109.17q0,91.86,3.993,165.07H365.086v-149.1q77.214-28.395,139.34-67l-59.907-63.9Q290.975,4788.7,89.955,4811.76l45.264,85.65q90.08-19.08,137.565-31.95v118.92H80.636v87.42H272.784v139.79q-138.016,33.72-208.123,47.48l50.589,86.98q74.1-19.08,157.534-42.61v116.27q0,25.74-26.625,25.74H140.988l28.844,86.97H274.559q40.375,0,65.455-23.07,25.065-23.085,25.072-63.02V5277.26l131.8-38.16v-87.42q-80.323,23.52-131.8,36.39V5071.8h162.86q14.643,136.245,48.369,228.98-83.87,72.78-195.7,121.59l72.776,69.23q90.08-50.6,159.31-110.05,89.195,153.525,171.734,153.54,26.179,0,49.258-16.42t38.829-78.99q15.746-62.58,19.747-98.96ZM693.468,4744.76l-69.227,67q88.749,54.15,145.553,132.69l74.552-65.24q-73.668-90.525-150.878-134.45h0Zm466.922-40.38q-47.925,252.93-187.265,440.2l73.665,63.46q39.495-59.46,65.68-106.5v430.88h92.74V4900.07l19.97-59.02q19.965-63.9,29.73-111.82Zm167.3,11.09-72.78,52.81q56.8,51.48,102.95,134.45l78.99-51.92q-38.16-77.64-109.16-135.34h0Zm451.75,31.95H1449.72v94.52h236.97v583.09q0,9.33-5.99,12.21t-34.39,2.88q-44.835,0-79.44-3.1l31.51,95.4h110.94q70.11,0,70.12-73.66V4747.42Zm-416.25,169.07h-92.75v615.93h92.75V4916.49Zm1194.24,283.56h174.4v-89.19H2489.1v-57.25h175.72V4733.66H2225.5v319.95h170.85v57.25H2170.03v89.19h159.31q-67.005,125.58-186.38,182.38V4895.19l19.08-59.46q19.08-62.58,27.96-106.5l-92.3-24.85q-49.71,261.81-182.83,440.2l71.89,63.46q32.835-48.81,63.46-104.73v429.11h92.74V5401.51l44.38,71.89q123.36-71.88,209.01-218.32v277.34h92.75V5252.41q87.405,144.225,219.21,220.99l47.93-86.53q-129.585-58.125-198.81-186.82h0Zm-239.18-235.63V4822.86h253.83v141.56H2318.25Zm655.52-234.31-69.23,62.57q76.77,63.9,115.38,139.79l78.99-67.9q-57.69-82.53-125.14-134.46h0Zm700.69,685.16H3473.44V5140.59h149.11v-92.3H3473.44V4849.93h182.83v-92.75H3162.81v92.75H3380.7v565.34h-92.75V5004.35H3195.2v410.92h-68.78v92.75h548.04v-92.75Zm-506.32-161.08q-51.93,40.38-99.85,74.55V4977.28H2869.04v92.75h106.5v292.43q0,24.87-23.96,40.83l47.48,80.32q86.085-61.68,169.08-125.58V5254.19Zm1430.32-482.36H4250.11v-58.14h-98.52v58.14H3803.24v78.98h795.22v-78.98Zm-147.33,112.71H3948.8V5086h502.33V4884.54Zm-409.59,122.03v-43.04h317.29v43.04H4041.54Zm512.54,113.16H3844.96v412.69h93.63V5200.05h522.75v216.11q0,29.73-26.18,29.73-47.04,0-91.86-3.55l30.62,90.08h83.87q96.285,0,96.29-98.95V5119.73Zm-184.6,114.05H4030.45v193.47h339.03V5233.78Zm-248.06,119.81v-46.15h157.09v46.15H4121.42Zm1405.03-458.4H5249.99v-54.14h-92.3v54.14H4907.41v-58.13q295.53-6.66,558.24-47.93l-50.14-84.75a3231.187,3231.187,0,0,1-544.05,46.15l-52.81-.45v407.81q0,104.745-23.07,176.4-23.085,71.67-82.54,147.1l76.33,52.81q61.665-74.55,89.86-162.42,28.17-87.855,28.18-213.89V4982.61h250.28v55.47H4964.65v313.73h92.75V5122.39h292.88v229.42h93.63V5038.08H5249.99v-55.47h276.46v-87.42Zm-273.36,261.82-93.63-9.77,1.33,41.72q0,129.12-72.77,185.04-72.8,55.92-212.12,79.43l46.15,79.88q331.485-49.71,331.49-355.45Zm8.88,184.6-42.6,71a1307.488,1307.488,0,0,1,261.82,119.81l57.24-71.89q-134.46-81.645-276.46-118.92h0Zm1090.85-606.17H5769.27V4976.4h583.55V4735.44Zm-490.8,92.74v-28.4h398.05v28.4H5862.02Zm0,83.43v-27.96h398.05v27.96H5862.02Zm594.19,91.86H5668.99v63.9h787.22v-63.9Zm8.88,440.65H6107.42v-26.19h303.53v-62.57H6107.42v-28.4h249.84v-234.3H5764.39v234.3h250.28v28.4H5714.69v62.57h299.98v26.19H5660.11v63.9h804.98v-63.9Zm-357.67-259.6v-27.51h157.09v27.51H6107.42Zm-250.28,0v-27.51h157.53v27.51H5857.14Zm250.28,77.21v-28.4h157.09v28.4H6107.42Zm-250.28,0v-28.4h157.53v28.4H5857.14ZM7121.5,4852.59q13.74-61.245,24.4-123.36l-96.29-18.2q-19.53,179.73-98.96,322.61V4866.35H6812.64q35.055-69.675,51.48-138.9l-98.07-21.3q-17.76,92.31-48.82,160.2h-83.87V5516h92.75v-64.34H6857.9V5516h92.75V5058.05l71.89,53.69q43.035-72.765,73.66-166.41h183.28q0,118.485-3.11,220.77t-9.1,170.63q-5.985,68.34-12.2,79.43a45.014,45.014,0,0,1-17.75,17.53q-11.55,6.435-34.61,6.43-50.16,0-144.67-17.75l26.18,97.18q82.095,11.985,127.8,11.99,73.23,0,99.63-27.07t36.83-58.58q10.425-31.5,17.53-226.09t7.1-334.82v-32.39H7121.5Zm-396.28,260.04V4959.09h131.8v153.54h-131.8Zm0,246.28V5205.37h131.8v153.54h-131.8Zm379.86-299.09-70.12,61.69q86.97,83.865,126.48,191.25l86.53-57.68q-59.025-120.255-142.89-195.26h0Zm1112.59,305.31q71.445-125.145,80.77-316.84H7994.9V4829.07h199.7q-4.89,62.13-12.21,78.32-7.32,16.215-26.84,16.2-25.755,0-97.19-12.87l23.52,93.63q74.55,8.445,94.08,8.44,38.16,0,65.45-23.52T8282.68,4875q13.98-90.75,13.98-133.35H7903.05v790.77h91.85V5134.37h18.2q31.5,147.78,95.41,237.41-42.6,56.82-104.73,104.29l64.79,60.79q58.125-47.925,98.07-97.18,52.35,51.015,123.36,96.29l55.47-73.66q-76.32-43.935-127.8-97.18h0Zm-59.46-77.22q-40.4-68.325-59.02-153.54h102.95q-15.09,90.525-43.93,153.54h0Zm-304.42-546.26H7571.11v448.19q0,177.51-61.68,278.24l72.78,59.91q71.445-119.82,79.88-281.79h102.95v156.2q0,16.875-10.65,22.19t-59.02,5.33l-32.4-.89,26.63,92.74h16.86q90.525,0,118.93-28.4t28.4-78.1V4741.65Zm-191.7,207.23V4829.96h102.95v118.92H7662.09Zm0,209.01V5038.08h102.95v119.81H7662.09ZM8949.96,5011.9q89.205-65.67,163.75-154.87v-81.65H8771.13l18.19-33.73-85.64-39.05q-77.22,179.715-246.29,253.83l63.46,73.66q79.425-41.265,144.66-109.16,46.6,47.49,105.62,90.97-131.8,65.235-331.05,89.64l40.83,84.75q221.43-31.5,378.97-118.04,170.4,93.645,371.87,118.04l40.83-84.75q-198.36-31.065-322.62-89.64h0Zm-90.97-50.15q-62.565-39.045-130.91-98.95h257.38q-63.465,58.14-126.47,98.95h0Zm19.08,226.32q3.555-42.15,3.55-68.34l-94.52-5.32,0.45,21.74q0,25.29-2.22,51.92H8528.39v87.42h237.86q-50.595,138.015-314.18,180.61l48.81,85.64q311.07-64.35,362.99-266.25h184.16q-10.2,126.915-19.3,147.99-9.1,21.09-35.72,21.08-44.385,0-117.6-9.32l17.31,97.18h120.7q75.885,0,96.74-58.35t35.06-286H8878.07Zm568.99,110.49q-38.16,38.61-38.16,93.19,0,54.15,38.38,92.53t92.53,38.38q53.685,0,91.86-38.38t38.16-92.53q0-54.585-38.39-93.19t-92.52-38.6Q9485.22,5259.96,9447.06,5298.56Zm38.83,146.22q-21.96-22.395-21.96-53.92,0-31.5,22.18-53.47t53.25-21.96q31.065,0,53.26,21.96,22.17,21.975,22.18,53.47,0,31.515-21.96,53.92t-53.48,22.41Q9507.86,5467.19,9485.89,5444.78ZM496.882,5988.49q16.413-42.6,38.164-106.5l-95.408-19.97Q395.7,6040.85,297.191,6173.09l73.664,67.9q44.816-67.9,86.977-159.75h280.9q-9.766,50.145-35.5,111.82l88.308,28.85q39.491-104.28,64.345-233.42h-359ZM259.028,5867.35Q192.9,6114.52,43.361,6278.26l63.013,80.77q39.492-49.7,67.008-89.64v426.89h92.746V6114.52l33.282-72.34q33.282-77.64,48.813-133.57ZM640.66,6112.74H547.915v460.18q0,31.065-38.607,31.06-33.282,0-75-6.66l30.176,98.96h76.327q59.907,0,79.876-25.74t19.969-83.42V6112.74Zm130.022,131.8-83.871,40.82q83.424,147.33,116.709,299.98l89.639-44.37q-44.379-165.96-122.477-296.43h0Zm-355.451,2.66q-46.158,175.725-131.8,284.45l83.871,63.9q90.527-142.89,137.121-314.63Zm1383.289-10.65H1011.29v94.52h787.23v-94.52Zm852.55,346.13h-195.7q-48.825,0-68.78-1.78V6439.35h270.69v-87.42H2386.59V6238.32h209.9V6150.9H2078.17v87.42h213.01v324.39q-74.115-24.84-140.23-101.62,14.205-59.91,14.2-136.68l-0.44-25.29h-98.07q0,155.76-45.04,224.1-45.06,68.34-113.83,106.94l73.22,73.66q92.745-64.785,136.68-150.87,64.335,66.555,137.34,94.52,72.99,27.945,195.03,27.95h269.81l34.61-100.73a661.318,661.318,0,0,1-103.39,7.99h0Zm59.9-615.05H2384.81v-90.97h-95.85v90.97H1962.8v196.59h95.41V6055.05h557.36v109.17h95.4V5967.63Zm608.04-38.16,18.2-33.72-99.85-25.3q-119.805,236.085-391.84,327.05l59.02,89.19q78.99-35.94,157.09-88.3v51.92H3476.1v-51.92q70.995,45.255,161.98,88.3l53.69-89.19q-240.525-81.645-372.76-268.03h0ZM3117.1,6157.56q89.205-70.56,150.88-151.76a775.81,775.81,0,0,0,149.99,151.76H3117.1Zm277.35,283.56L3327,6505.47a590.706,590.706,0,0,1,76.33,51.91q-180.615,22.2-266.7,24.41,49.7-48.81,109.16-137.56l-56.8-32.4h412.7v-92.74H2932.5v92.74h200.13q-43.485,97.185-130.02,176.62-19.965,3.555-51.03,3.55l-36.83-.89,27.96,93.63q277.335-16.425,536.94-55.47,23.97,25.74,59.02,70.56l81.21-68.78q-92.745-108.27-225.43-189.93h0Zm1132.12,25.29q-22.2,121.6-44.82,121.59-12.42,0-39.27-43.26a516.548,516.548,0,0,1-43.71-87.2q110.49-103.4,168.18-226.32l-88.3-41.26q-36.84,95.4-110.06,173.06-16.86-62.115-27.95-158.42l252.5-47.93-10.21-90.97-250.73,47.04q-7.545-115.365-10.65-236.08l-94.52,6.22q3.105,129.135,11.54,243.62l-105.17,15.97,14.2,90.97,99.4-15.53q13.32,124.26,41.72,217.44-74.55,59.91-228.1,138.45l59.91,70.56q108.72-53.25,200.14-121.59,86.085,176.61,172.18,176.62,51.915,0,80.09-61.46a589,589,0,0,0,41.94-129.8ZM4149.82,6030.2H4039.77V5877.55h-92.75V6030.2H3804.13v92.75h142.89v193.92q-89.64,26.19-155.31,43.49l40.82,93.19,114.49-38.17v161.09q0,29.73-36.39,29.73-48.375,0-80.76-3.55l30.62,92.74h94.52q84.75,0,84.76-96.29V6386.98l122.03-40.38v-98.07l-122.03,38.16V6122.95h110.05V6030.2Zm276.91-142-65.24,56.36a465.736,465.736,0,0,1,124.26,124.69l71.88-59.02q-56.8-74.1-130.9-122.03h0Zm1085.96-11.54h-92.74v690.49q0,35.505-29.73,35.5a865.266,865.266,0,0,1-92.75-5.33l29.29,99.85h94.52q91.41,0,91.41-114.49V5876.66Zm-414.47,151.77-78.54,47.04q34.6,35.505,66.56,87.86-91.86,9.765-151.77,11.09,31.515-65.67,74.11-190.37h228.09v-87.42H4730.35v87.42h170.84q-25.29,96.75-76.77,193.48l-90.08,4.44,33.73,96.74q202.785-19.98,351.9-39.5a814.89,814.89,0,0,1,31.06,75.44l86.98-48.81q-67.905-157.98-139.79-237.41h0Zm260.04-53.7h-92.74v537.84h92.74V5974.73ZM5245.55,6513.9q-81.21,15.975-213.45,36.83v-93.19h167.3v-87.42H5032.1v-85.64h-92.74v85.64H4769.4v87.42h169.96v106.94l-229.87,31.95,31.95,98.96q171.735-27.075,504.11-90.08V6513.9Zm1216.88-435.33H6218.8v-82.09a1195.4,1195.4,0,0,0,224.55-54.58l-50.59-74.55q-194.37,59.895-452.64,59.9l-52.81-.44,37.28,84.31,61.68,0.89q74.55,0,140.23-5.33v71.89H5886.43v86.98H6126.5v87.42H5961.87v314.18h92.74v-31.51h236.08v31.51h92.75V6252.97H6218.8v-87.42h243.63v-86.98Zm-407.82,369.65V6339.94h236.08v108.28H6054.61Zm-293.77-555.14-75.44,58.13q82.1,66.57,124.7,159.76l75.44-63.46q-55.47-98.52-124.7-154.43h0Zm260.93,697.14q-109.155,0-163.74-74.55V6165.55H5662.77v86.53h102.51v259.6q-34.6,58.575-110.49,122.03l72.33,67.01q51.015-40.4,92.74-98.07,40.83,41.715,88.98,57.69t130.24,15.97h403.38l39.94-86.09H6021.77Zm1032.28-669.18,16.42-24.41-93.64-32.83q-173.505,237.855-419.79,348.34l69.22,86.98q90.975-51.03,168.19-108.28v66.57h399.82V6197.5q79.44,53.7,177.95,94.52l54.58-87.42q-243.615-92.3-372.75-283.56h0Zm-232.53,248.95q96.735-76.77,169.96-165.08,68.325,90.525,165.52,165.08H6821.52Zm454.41,171.73H6715.01v353.67h95.41v-39.05h370.1v39.05h95.41V6341.72Zm-465.51,227.2V6429.14h370.1v139.78h-370.1Zm1414.35-564.9H7944.76q43.935-57.24,63.9-109.16l-106.5-27.51q-27.075,76.77-73.66,136.67H7624.81v692.26h95.41v-59.91h409.14v59.91h95.41V6004.02Zm-504.55,181.5V6091h409.14v94.52H7720.22Zm0,181.94v-94.52h409.14v94.52H7720.22Zm0,181.49v-94.52h409.14v94.52H7720.22Zm1455.17-123.36a511.893,511.893,0,0,1-18.63,92.3q-15.975,43.05-65.68,43.04h-405.6q-39.045,0-39.05-39.93V6278.26H9060.9v45.27h93.64V5913.05h-639.9v93.63H9060.9v177.95H8552.8v364.32q0,105.615,99.85,105.62h469.94q68.325,0,104.95-48.37,36.6-48.36,45.04-148.66Zm740.73-410.03q13.74-61.245,24.4-123.36l-96.29-18.2q-19.53,179.73-98.96,322.61V6029.32H9607.26q35.055-69.675,51.48-138.9l-98.08-21.3q-17.745,92.31-48.81,160.2h-83.87v649.65h92.75v-64.34h131.79v64.34h92.75V6221.02l71.89,53.69q43.035-72.765,73.66-166.41h183.28q0,118.485-3.1,220.77-3.15,102.3-9.1,170.63-6,68.34-12.2,79.43a45.405,45.405,0,0,1-17.8,17.53c-7.7,4.29-19.2,6.43-34.58,6.43q-50.145,0-144.66-17.75l26.18,97.18q82.095,11.985,127.76,11.98,73.35,0,99.7-27.06c17.6-18.05,29.8-37.57,36.8-58.58q10.35-31.5,17.5-226.09,7.2-194.6,7.1-334.82v-32.39H9916.12ZM9519.84,6275.6V6122.06h131.8V6275.6h-131.8Zm0,246.28V6368.34h131.8v153.54h-131.8Zm379.86-299.09-70.12,61.69q86.97,83.865,126.47,191.25l86.55-57.68q-59.1-120.255-142.9-195.26h0Zm-9045.591,934H414.343q16.86-43.485,36.389-101.62l-96.3-21.75q-19.969,68.79-41.714,123.37H86.405v92.74H268.79q-66.564,125.58-215.223,277.35l59.908,68.78a1210.1,1210.1,0,0,0,108.277-111.83v375.42H317.16V7353.81a976.7,976.7,0,0,0,57.245-104.28h479.7v-92.74ZM878.072,7735H641.548V7536.64H829.7v-92.75H641.548V7282.37H546.14v161.52H377.955v92.75H546.14V7735H348.223v92.3H878.072V7735Zm863.2-108.28q-2.655,34.62-11.31,77.44t-13.54,49.7q-4.89,6.885-11.98,6.88-14.2,0-43.93-38.39a361.423,361.423,0,0,1-47.48-80.1q75.87-80.76,134.45-189.92l-78.98-43.05q-35.52,79.44-88.31,142.89-16.875-63.9-28.85-154.43h252.5v-87.42H1542.91q-4.89-77.64-4.88-161.52,0-55.47,2.22-112.72h-90.53l-1.33,109.17q0,91.86,3.99,165.07H1296.63v-149.1q77.2-28.4,139.34-67l-59.91-63.91q-153.54,84.33-354.57,107.39l45.27,85.65q90.075-19.08,137.56-31.95v118.92H1012.18v87.42h192.14v139.79q-138.015,33.72-208.12,47.48l50.59,86.98q74.1-19.08,157.53-42.61v116.27q0,25.74-26.62,25.74H1072.53l28.84,86.97H1206.1q40.38,0,65.45-23.07,25.065-23.085,25.08-63.02V7603.2l131.79-38.16v-87.42q-80.325,23.52-131.79,36.39V7397.74h162.85q14.655,136.245,48.37,228.98-83.865,72.78-195.69,121.59l72.77,69.23q90.09-50.595,159.31-110.05,89.205,153.525,171.74,153.53,26.175,0,49.26-16.41,23.055-16.425,38.82-78.99,15.75-62.58,19.75-98.96ZM1625.01,7070.7l-69.23,67q88.755,54.15,145.55,132.69l74.56-65.24q-73.68-90.525-150.88-134.45h0Zm466.92-40.39q-47.925,252.945-187.27,440.21l73.67,63.46q39.5-59.46,65.67-106.5v430.88h92.75V7226.01l19.97-59.02q19.965-63.9,29.73-111.82Zm167.3,11.1-72.78,52.81q56.805,51.48,102.95,134.45l78.99-51.92q-38.16-77.64-109.16-135.34h0Zm451.74,31.95H2381.26v94.52h236.97v583.09q0,9.33-5.99,12.21t-34.39,2.88q-44.835,0-79.44-3.11l31.51,95.41h110.94q70.11,0,70.11-73.66V7073.36Zm-416.24,169.07h-92.75v615.93h92.75V7242.43Zm1369.53,304.86H3318.13V7444.78h287.55v-92.74H3318.13v-106.5q182.82-28.845,308.85-69.23l-52.36-86.98q-122.04,42.165-256.49,62.57V7038.75h-98.96v127.8q-156.21,19.53-337.26,20.85l38.16,89.2,22.64,0.44q104.265,0,276.46-17.75v92.75H2931.61v92.74h287.56v102.51H2873.04v92.74h346.13v220.11h98.96V7640.03h346.13v-92.74Zm791.75-338.59H3944.36v75.44h511.65V7208.7Zm-9.32,102.51H3949.68v173.95h497.01V7311.21Zm-407.81,102.51V7383.1h319.06v30.62H4038.88Zm477.93,98.51H3879.57v345.24h92.75v-35.5h451.74v35.5h92.75V7512.23Zm-274.24,117.15v-41.71h181.49v41.71H4242.57Zm-270.25,0v-41.71h181.49v41.71H3972.32Zm270.25,118.04v-42.6h181.49v42.6H4242.57Zm-270.25,0v-42.6h181.49v42.6H3972.32Zm600.85-643.89H4247.89v-63.9h-95.85v63.9H3826.76v161.53h92.75v-86.09h560.91v86.09h92.75V7103.53Zm685.25,75q13.755-61.245,24.41-123.36l-96.3-18.2q-19.53,179.73-98.96,322.61V7192.29H4949.56q35.055-69.675,51.48-138.9l-98.07-21.3q-17.76,92.31-48.82,160.2h-83.87v649.65h92.75V7777.6h131.8v64.34h92.74V7383.99l71.89,53.69q43.035-72.765,73.66-166.41H5416.4q0,118.485-3.11,220.77-3.1,102.3-9.1,170.63t-12.2,79.43a45.014,45.014,0,0,1-17.75,17.53q-11.55,6.435-34.61,6.43-50.16,0-144.67-17.75l26.18,97.18q82.095,11.985,127.81,11.98,73.215,0,99.62-27.06,26.4-27.075,36.83-58.58t17.53-226.09q7.095-194.595,7.1-334.82v-32.39H5258.42Zm-396.28,260.04V7285.03h131.8v153.54h-131.8Zm0,246.28V7531.31h131.8v153.54h-131.8ZM5242,7385.76l-70.11,61.68q86.97,83.88,126.47,191.26l86.53-57.68q-59.025-120.255-142.89-195.26h0ZM6388.76,7621.4q-19.53,131.79-84.31,131.79H5877.11q-9.315,0-18.2-7.99a25.233,25.233,0,0,1-8.87-19.52V7598.32h535.17V7289.47H6197.95q32.385-32.835,61.24-78.1v-87.42H5982.72l30.18-52.37-91.86-38.16q-99.4,197.925-278.24,314.18l61.69,73.66,52.8-39.93v351.45q0,108.27,111.83,108.28h454.41q67.005,0,112.72-48.15,45.69-48.15,47.03-141.78ZM6062.6,7289.47H5858.91a780.7,780.7,0,0,0,66.57-78.1h203.68q-13.305,32.4-66.56,78.1h0Zm55.47,220.99V7377.78h174.4v132.68h-174.4Zm-268.03,0V7377.78h174.4v132.68h-174.4Zm1183.15-480.15q-210.345,69.24-441.54,69.23l38.16,93.63q225.42-5.76,454.41-84.31Zm280.9,4q-90.09,128.7-226.32,205.9l66.57,71q138.885-89.19,234.3-219.66Zm-309.74,117.15q-18.645,97.185-80.33,184.6l81.21,43.49q54.135-70.11,86.09-195.25Zm-137.57,27.96-88.75,26.62q43.485,74.115,45.26,139.78l90.08-26.18q-4.44-68.325-46.59-140.22h0Zm-157.09,21.74-87.87,38.16q51.93,75.45,61.69,158.42l91.86-33.72q-11.1-81.645-65.68-162.86h0Zm618.16,72.78q-92.31,144.225-247.18,237.41l66.12,72.77q154.875-110.49,254.72-253.83Zm-384.3,266.25-41.27,39.94v-78.1H7074.9v-86.98H6902.28v-51.92h-92.75v51.92H6616.94v86.98h170.85q-86.1,135.78-217.89,222.76l61.69,71q106.935-76.32,177.94-175.28v237.85h92.75V7618.29q64.335,39.06,121.15,107.39l64.34-71.89a602.608,602.608,0,0,0-144.22-113.6h0Zm394.06-27.07q-111.825,163.74-351.46,281.79l62.57,77.21q244.065-122.91,366.99-312.85Zm513.52-118.93-58.14,51.48v-92.75h152.66v-92.3H7792.99V7148.8q75.435-22.635,122.93-43.05l-54.59-78.99q-145.545,61.695-327.05,85.65l46.15,83.43q54.585-8.88,119.82-23.52v88.3H7527.63v92.3h154.42q-73.215,170.415-186.37,269.36l77.65,65.24q68.34-69.675,126.92-175.29v347.02h92.74v-401.6q55.92,51.03,98.96,135.35l70.12-61.69q-43.5-81.645-110.94-137.12h0Zm437.1-300.86H7980.26v713.11h92.75v-86.09h122.47v86.09h92.75V7093.33Zm-215.22,532.5V7187.85h122.47v437.98H8073.01Zm1184.04-503.66h-209.9v-82.54h-95.41v82.54H8760.92v-82.54h-95.41v82.54H8455.62v92.75h209.89v91.85h95.41v-91.85h190.82v91.85h95.41v-91.85h209.9v-92.75Zm-98.08,497.01q-6.21,71.88-21.96,100.95-15.765,29.07-45.93,29.07H8647.32q-23.52,0-23.52-23.08a30.621,30.621,0,0,1,3.11-13.53q3.09-6.435,59.9-47.93t165.08-106.94q108.27-65.46,233.42-131.13v-91.86H8555.46v92.75H8911.8q-134.46,68.34-244.95,143.77-110.5,75.45-134.02,109.61t-23.52,70.11q0,40.83,33.28,66.34t90.97,25.52h474.38q65.235,0,99.18-42.16t49.04-142Zm778-583.98-63.45,69.67q90.075,47.925,146.88,123.8l75.4-70.11q-80.25-83.865-158.83-123.36h0Zm105.13,532.72q-63.84-84.96-100.69-234.08h242.69v-92.3H9838.01V7039.63h-92.74v201.91h-351.9v92.3h248.06q-35.94,146.01-98.96,232.53-63.015,86.535-176.17,156.65l70.11,71q245.4-145.545,297.76-460.18h11.1v524.52h92.74V7333.84h10.65q50.595,311.97,298.24,460.18l70.1-71Q10106,7652.91,10042.1,7567.92Zm384-511.87-69.2,62.57q76.65,63.9,115.3,139.79l79-67.9q-57.6-82.545-125.1-134.46h0Zm506.8,631.47q78.45-75.885,135.7-182.83v-94.52h-405.5q128.1-74.1,128.2-224.98v-24.85h126.5v129.13q0,80.76,72.3,80.76h127.4v-82.54h-84.4c-16.5,0-24.8-9.02-24.8-27.07v-194.8h-308v110.93q0,74.55-29,114.27-29.1,39.72-109.9,68.56l54.6,74.55a338.631,338.631,0,0,0,35.5-17.3v87.86h34.2q32.85,103.845,109.1,182.83-86.4,55.47-226.3,94.52l49.3,81.65q142.5-45.27,243.6-117.15,90.6,67.89,227.2,117.15l53.3-81.65q-111-25.74-209-94.52h0Zm-67.1-56.36q-59.85-59.91-85.6-126.47h180.2q-42.6,77.205-94.6,126.47h0Zm-224.5-80.76-103.4,95.4V7303.22h-216.5v92.75h123.8v311.52q0,24.855-24,40.82l47.5,80.32,172.6-160.2V7550.4Zm1412.1-247.18h-208.1V7039.63h-95.4v263.59h-210.8v94.52h210.8v460.62h95.4V7397.74h208.1v-94.52Zm-692.2-252.05-72.8,63.01q92.25,70.56,133.6,144.23l79-67.9a689.02,689.02,0,0,0-139.8-139.34h0Zm241.8,573.78-126.4,80.76V7303.22h-229.9v94.52h134.4v339.92q0,24.855-23.5,40.83l49.7,83.42,195.7-127.8V7624.95Zm1322.1-427.34h-296V7037.86h-92.8v159.75h-296.4v429.11h92.8v-64.79h203.6v299.09h92.8V7561.93h203.2v64.79h92.8V7197.61Zm-296,269.8V7292.13h203.2v175.28h-203.2Zm-296.4,0V7292.13h203.6v175.28h-203.6Zm840.5,157.09q-38.1,38.61-38.1,93.19,0,54.15,38.3,92.52,38.4,38.385,92.6,38.39,53.7,0,91.8-38.39,38.25-38.37,38.2-92.52,0-54.585-38.4-93.19t-92.5-38.6Q13211.4,7585.9,13173.2,7624.5Zm38.8,146.22q-21.9-22.4-21.9-53.92,0-31.5,22.2-53.47t53.2-21.96q31.05,0,53.3,21.96,22.2,21.975,22.2,53.47c0,21.01-7.4,38.99-22,53.92s-32.5,22.41-53.5,22.41S13226.7,7785.66,13212,7770.72ZM512.414,8282.48l26.626-55.47-84.758-32.84q-56.808,142.455-162.416,225.43l74.551,61.24q54.135-51.48,91.415-105.62H742.281a279.652,279.652,0,0,1-14.2,44.38l87.864,29.29a1298.883,1298.883,0,0,0,43.933-166.41H512.414Zm-229.867-86.09q-53.7,130.035-227.205,272.47l66.564,69.22,61.682-58.13v233.42h92.746V8380.55q59.46-86.97,87.864-149.1Zm364.326,208.12H554.127v187.71q0,31.065-37.275,31.06-20.416,0-51.476-6.21l29.731,98.96h51.92q59.909,0,79.877-25.74t19.969-83.43V8404.51Zm89.2,33.28-73.664,53.7a695.6,695.6,0,0,1,130.909,192.59l82.539-58.13q-42.6-88.305-139.784-188.16h0Zm-283.562,0q-51.921,94.98-149.1,169.07l66.564,77.22A775.565,775.565,0,0,0,531.5,8491.49Zm15.531,265.37-62.57,64.79q63.007,44.37,92.3,96.29l73.664-59.02q-37.724-52.35-103.4-102.06h0Zm288,24.85-77.214,52.36q81.645,87.87,116.265,189.04l87.42-41.71q-42.6-110.055-126.471-199.69h0Zm-149.991,84.31q-2.662,66.57-15.088,84.76t-44.819,18.19H401.474q-24.409,0-24.407-24.85V8742.21H284.322v164.63q0,55.485,24.628,76.77t74.33,21.3H557.234q64.785,0,98.071-31.5t42.6-128.25Zm-421.571-64.34Q136.1,8856.7,52.68,8925.04l75.44,61.68A632.917,632.917,0,0,0,265.24,8790.58ZM1532.26,8341.5q13.755-61.245,24.41-123.37l-96.3-18.19q-19.53,179.715-98.96,322.61V8355.26h-138q35.04-69.675,51.47-138.9l-98.07-21.3q-17.76,92.31-48.81,160.2h-83.87v649.65h92.74v-64.34h131.8v64.34h92.74V8546.96l71.89,53.69q43.035-72.765,73.67-166.41h183.27q0,118.485-3.11,220.77t-9.09,170.63q-6,68.34-12.21,79.43a44.949,44.949,0,0,1-17.75,17.53q-11.535,6.435-34.61,6.43-50.16,0-144.67-17.75l26.19,97.18q82.08,11.985,127.8,11.98,73.215,0,99.62-27.06t36.83-58.58q10.425-31.5,17.53-226.09t7.1-334.82V8341.5H1532.26Zm-396.28,260.04V8448h131.8v153.54h-131.8Zm0,246.28V8694.28h131.8v153.54h-131.8Zm379.86-299.09-70.11,61.68q86.97,83.88,126.47,191.26l86.53-57.69q-59.025-120.24-142.89-195.25h0Zm724.31-14.64-91.86,49.26V8455.1h83.87v-94.52h-83.87V8202.6h-92.75v157.98H1942.83v94.52h112.71v172.62q-77.2,35.94-130.02,55.47l41.27,89.2q31.5-12.87,88.75-39.94V8892.2q0,21.3-11.09,27.51-11.1,6.225-41.27,6.21-19.965,0-51.03-4.43l31.06,99.84h80.76q84.315,0,84.32-96.29V8684.97l91.86-50.59V8534.09Zm419.79-210.79q-11.535,78.555-31.5,103.4-19.98,24.855-59.47,24.85H2378.16q-24.42,0-24.41-29.29v-24.4q223.2-54.585,315.51-109.17l-70.11-74.55q-78.105,57.69-245.4,93.63V8204.38H2261v242.73q0,48.825,22.63,70.78,22.635,21.975,77.22,21.97h227.2q38.16,0,84.54-21.3,46.365-21.3,79.21-158.87Zm20.86,264.48H2276.53v433.55h92.75v-43.49h220.1v43.49h91.42V8587.78Zm-311.52,151.77v-60.8h220.1v60.8h-220.1Zm0,147.32v-61.68h220.1v61.68h-220.1ZM3620.77,8227.9H2918.3v540.05h93.63v-51.03h210.79v304.41h93.63V8716.92h210.79v51.03h93.63V8227.9Zm-304.42,191.7v-98.96h210.79v98.96H3316.35Zm-304.42,0v-98.96h210.79v98.96H3011.93Zm304.42,204.57v-113.6h210.79v113.6H3316.35Zm-304.42,0v-113.6h210.79v113.6H3011.93Zm1113.04-67.01-58.13,51.48v-92.75h152.65v-92.3H4066.84V8311.77q75.435-22.635,122.92-43.05l-54.58-78.99q-145.56,61.7-327.05,85.65l46.15,83.43q54.57-8.88,119.81-23.52v88.3H3801.47v92.3H3955.9q-73.23,170.415-186.38,269.36l77.66,65.24q68.325-69.675,126.91-175.29v347.02h92.75v-401.6q55.9,51.03,98.96,135.35l70.11-61.69q-43.5-81.645-110.94-137.12h0Zm437.1-300.86H4254.1v713.11h92.75v-86.09h122.48v86.09h92.74V8256.3Zm-215.22,532.5V8350.82h122.48V8788.8H4346.85Zm1103.27,133.57H5289.48v-66.56h218.78v-81.65H5289.48v-50.14h178.84V8604.2h69.22v-81.65h-69.22V8404.51H5289.48v-40.38h225.88v-81.65H5289.48V8202.6h-90.97v79.88H5026.78v81.65h171.73v40.38H5047.63v81.65h150.88v36.39H5015.68v81.65h182.83v38.17H5047.63v81.65h150.88v177.5q-43.5-16.41-68.34-39.94,11.535-48.81,12.87-104.73l-90.08-9.76q0,89.64-27.07,140.67t-80.32,90.08l75.44,60.8q52.8-51.045,78.54-96.3,82.095,63.465,201.47,63.46h227.2l31.96-97.18q-58.59,13.755-110.06,13.75h0Zm-160.64-399.82v-36.39h87.87v36.39h-87.87Zm0,119.82V8604.2h87.87v38.17h-87.87Zm-297.32-393.62H4751.2v692.71h90.97V8885.1h59.02v35.5h90.97V8248.75Zm-149.99,181.94v-95.4h59.02v95.4h-59.02Zm0,182.83v-95.41h59.02v95.41h-59.02Zm0,184.16V8700.5h59.02v97.18h-59.02Zm1538.61-21.74q-5.775,68.775-17.98,100.28t-47.26,31.51H6079.91q-24.42,0-24.41-24.41V8756.85l383.41-43.48-11.1-85.65-372.31,43.05V8545.18l294.21-38.16-10.65-85.65-283.56,36.39v-113.6q225.42-42.15,310.63-83.42l-61.68-73.67q-75.45,43.5-274.69,77.88t-370.54,38.39l47.04,82.98q90.075-1.77,251.17-25.74v110.05l-260.93,33.73,9.76,85.2,251.17-31.51v123.37l-295.54,33.72,10.2,85.2,285.34-32.39v130.91q0,95.4,99.84,95.4h284.45q67.005,0,96.08-41.04,29.055-41.04,39.27-143.56Zm463.37-573.34H6751.4v422.46q-100.74,90.975-169.07,144.66l45.71,87.87a1623.472,1623.472,0,0,0,123.36-112.72v276.46h92.75V8202.6Zm-161.09,120.7-87.86,29.29q42.6,124.71,56.8,226.32l90.53-31.06q-15.09-107.835-59.47-224.55h0Zm715.79,282.68H7295.9v-63.02h-92.75v63.02H6864.12v92.74h339.03v192.59q0,43.935-37.28,43.93-12.87,0-84.31-6.65l29.73,92.74h90.08q53.7,0,74.11-19.75t20.42-83.64V8698.72h102.95v-92.74Zm-420.69,106.94-55.47,71.89q92.3,43.935,156.21,119.37l65.23-68.78q-73.215-80.76-165.97-122.48h0Zm360.34-512.09q-213.465,59.025-477.49,65.23l33.28,90.08q266.7-13.3,487.69-69.67Zm-373.21,180.16-86.08,38.17q44.355,67.005,70.11,159.75l88.75-39.94q-27.96-89.625-72.78-157.98h0Zm157.1-26.62-88.76,38.16q49.26,71.445,70.56,159.75l90.97-39.94a562,562,0,0,0-72.77-157.97h0Zm159.3-30.18q-17.295,92.76-67.89,180.61l90.08,35.5a689.875,689.875,0,0,0,71.45-182.38Zm1039.38-28.84H7991.35q-29.28-65.235-72.77-106.5l-80.77,46.59q31.065,28.41,50.59,59.91H7530.29v86.97h243.62v228.09h92.75V8382.32h116.26v228.09h92.75V8382.32h245.4v-86.97Zm-170.85,101.62-57.24,63.9q108.7,86.535,170.84,198.8l68.34-72.77q-86.1-121.59-181.94-189.93h0Zm-460.62,0Q7616.82,8523,7511.21,8586.9l57.24,72.77q97.185-58.125,188.16-198.8Zm321.72,475.26q74.115-59.01,145.11-146v-87.42H7662.09v87.42h62.12q47.04,84.765,124.25,146.89-130.02,62.13-338.14,68.34l51.92,93.63q236.52-29.745,366.99-106.5,146.445,82.08,360.77,106.5l53.7-93.63q-197.925-8.43-332.38-69.23h0Zm-82.09-46.15q-61.245-43.485-103.4-99.85h216.11q-58.575,63.03-112.71,99.85h0Zm697.23-626.14q-60.345,114.945-177.06,209.9l71.45,66.12A1011.779,1011.779,0,0,0,8709,8246.98Zm563.58,26.18H8743.62V8551.4h446.42V8226.12Zm-353.68,121.15v-39.5h260.93v39.5H8836.36Zm0,122.47v-40.82h260.93v40.82H8836.36Zm-197.92-51.92q-71,136.7-209.89,247.18l63.45,72.77a654.442,654.442,0,0,0,62.57-55.47v339.03h92.75V8576.25a961.8,961.8,0,0,0,72.78-108.28Zm620.38,290.22H9154.54v-40.38h75.44v-81.65H8702.79v81.65h359v40.38H8671.73v81.65h135.79l-54.59,62.57q75,31.065,138.9,92.75l66.57-66.12a395.817,395.817,0,0,0-137.57-89.2h240.96v107.39q0,43.5-39.05,43.49-21.3,0-91.86-6.21l25.3,86.97h94.52q103.83,0,103.84-129.13V8789.69h104.28v-81.65Zm459.82-505.44h-92.3v472.6h92.3V8202.6Zm-173.51,28.85h-92.74v427.33h92.74V8231.45Zm476.17,281.78q77.25-73.65,132.7-189.04v-86.97H9747.93v86.97h31.06q33.285,110.5,99.85,187.27-58.575,33.27-142.89,55.47l46.59,82.54q98.52-35.5,163.31-77.22,78.09,56.37,206.35,91.86l52.8-86.98q-113.55-23.955-183.7-63.9h0Zm-71.46-53.69q-54.585-54.135-81.21-135.35h183.67q-42.15,81.21-102.46,135.35h0Zm241.36,448.19H9841.56V8807h267.14v-87.42H9841.56v-57.25h-99.84v57.25H9472.36V8807h269.36v100.73H9385.38v87.42h805.82v-87.42Zm519.3-295.1h-176.6v-62.12h158.4v-86.98h-158.4v-63.01h176.6v-86.98h-176.6V8201.72h-92.7v111.82H10336v86.98h105.2v63.01h-100.8v86.98h100.8v62.12h-118.1v86.98h118.1v321.72h92.7V8699.61h83.9v106.5q0,15.975-6.9,24.19c-4.6,5.47-15.6,8.2-33.1,8.2h-28.4l20.9,87.42h51q89.25,0,89.2-113.6V8612.63Zm20.9-384.73v91.85H10853v230.76q0,178.83-45.5,265.36-45.45,86.535-126.3,133.57l71,68.34q98.1-77.655,145.4-187.48,47.25-109.83,47.2-279.79V8319.75h71q0,165.09-3.7,284.23-3.75,119.145-14.7,197.25-10.8,78.1-17.7,89.19c-4.6,7.4-15.8,11.1-33.5,11.1-19.9,0-42.3-2.51-67.5-7.55l24.4,96.3a499.99,499.99,0,0,0,67.9,4.88q45.75,0,72.4-29.07,26.55-29.055,36.1-87.64,9.6-58.575,18.9-279.56t9.3-348.35V8227.9h-376.3Zm17.3,203.68,0.9,24.41q0,84.315-31.1,171.73l80.8,35.5q33.75-111.375,36.4-217.88Zm828.6,125.58-58.1,51.48v-92.75h152.6v-92.3h-152.6V8311.77q75.3-22.635,122.9-43.05l-54.6-78.99q-145.5,61.7-327.1,85.65l46.2,83.43q54.6-8.88,119.8-23.52v88.3h-172.6v92.3h154.4q-73.2,170.415-186.4,269.36l77.7,65.24q68.25-69.675,126.9-175.29v347.02h92.8v-401.6q55.8,51.03,98.9,135.35l70.1-61.69q-43.5-81.645-110.9-137.12h0Zm437.1-300.86h-308v713.11h92.8v-86.09h122.4v86.09h92.8V8256.3Zm-215.2,532.5V8350.82h122.4V8788.8h-122.4Zm539.7-588.86q-57.3,260.925-178.9,432.66l71.9,62.57q29.7-45.69,50.6-81.65v407.81h86.5V8428.92l24-70.11q24.45-75.435,35.1-129.14Zm636.3,179.72h-36.4V8265.17H12815V8202.6h-86.1v62.57H12638v79.88h90.9v34.61h-118v82.1h118v34.17h-92.7v80.32h92.7v34.16h-97.2v82.1h97.2v35.5h-115.3v81.65h115.3v88.31h86.1v-88.31h155.8v-81.65H12815v-35.5h128.3v-82.1H12815v-34.16h123.8V8461.76h36.4v-82.1Zm-160.2,0v-34.61h43.1v34.61H12815Zm0,116.27v-34.17h43.1v34.17H12815Zm-84.3,419.34q-96.75,0-163.7-73.66,34.95-94.95,35-268.47l-0.4-47.93h-98.1q51.9-66.99,98.1-155.31v-92.75h-175.3v90.97h78.1a905.738,905.738,0,0,1-101.6,157.98v90.08h112.7q-1.35,68.34-11.1,121.59a568.535,568.535,0,0,1-29.3-95.4l-78.1,20.85q19.05,105.615,70.1,185.49-27.9,56.37-89.2,117.15l71.9,66.57q50.1-57.255,79.9-109.17,90.9,84.315,210.8,84.32h233.8l28.9-92.31h-272.5Zm1185.8-398.49h-77.2V8402.29h-211.7v-39.05h-92.7v39.05h-198.8v74.55h198.8v39.94h-240.5v75.44h240.5v40.38h-198.8v74.55h198.8v190.82c0,17.75-12.2,26.62-36.4,26.62a256.856,256.856,0,0,1-47.9-4.88q41.25-15.975,67.9-31.06l-13.3-78.1q-24,13.305-57.3,25.29l38.2-56.35q-64.8-41.715-157.6-60.8l-38.1,70.11q69.6,13.32,136.6,54.59a1198.35,1198.35,0,0,1-168.1,43.48l36.4,79.88q67.35-15.975,142.4-42.6l26.6,89.19h67.9q95.4,0,95.4-100.28v-62.57q103.95,80.325,261.4,145.1l47.9-84.75q-101.1-27.06-166.4-71.45,63.9-15.525,136.7-61.68l-56.4-67.89q-70.05,52.365-166.4,79.87l-56.8-37.27v-45.27h211.7V8592.22h77.2v-75.44Zm-288.9,0v-39.94h118.1v39.94h-118.1Zm0,115.82v-40.38h118.1v40.38h-118.1Zm281.8-367.87H13593V8202.6h-92.7v62.13h-316.4v361.22q0,228.09-87.9,341.69l86.5,58.13q92.4-159.3,92.3-400.71V8345.94h634.6v-81.21Zm195.4,522.74q-38.25,38.61-38.2,93.19,0,54.15,38.4,92.52,38.4,38.385,92.5,38.39,53.7,0,91.9-38.39,38.1-38.37,38.1-92.52,0-54.585-38.4-93.19t-92.5-38.6Q14142.9,8748.87,14104.8,8787.47Zm38.8,146.22q-22.05-22.41-22-53.92,0-31.5,22.2-53.47c14.8-14.64,32.5-21.96,53.3-21.96q31.05,0,53.2,21.96,22.2,21.975,22.2,53.47,0,31.515-22,53.92-21.9,22.41-53.4,22.41C14176.1,8956.1,14158.2,8948.63,14143.6,8933.69ZM882.509,10064.5H610.485V9743.65H858.99v-94.52h-248.5V9365.57H515.077v698.93H352.661v94.5H882.509v-94.5ZM183.588,9365.57L111.7,9430.81q106.939,61.68,162.86,142.88l78.989-68.33q-82.986-89.64-169.96-139.79h0Zm210.786,534.28-104.727,81.66V9619.85H79.749v92.74h114.49v311.91q0,24.9-23.52,40.9l47.483,79.9,176.172-138.1V9899.85Zm1346.9,52.81q-2.655,34.62-11.31,77.44-8.655,42.75-13.54,49.7-4.89,6.9-11.98,6.9-14.2,0-43.93-38.4a361.938,361.938,0,0,1-47.48-80.11q75.87-80.76,134.45-189.92l-78.98-43.05q-35.52,79.44-88.31,142.89-16.875-63.9-28.85-154.43h252.5v-87.42H1542.91q-4.89-77.64-4.88-161.52,0-55.47,2.22-112.72h-90.53l-1.33,109.17q0,91.86,3.99,165.07H1296.63v-149.1q77.2-28.4,139.34-67l-59.91-63.91q-153.54,84.33-354.57,107.39l45.27,85.65q90.075-19.08,137.56-31.95v118.92H1012.18v87.42h192.14v139.79q-138.015,33.72-208.12,47.48l50.59,86.97q74.1-19.065,157.53-42.6v116.28c0,17.1-8.87,25.7-26.62,25.7H1072.53l28.84,87H1206.1q40.38,0,65.45-23.1t25.08-63V9929.14l131.79-38.16v-87.42q-80.325,23.52-131.79,36.39V9723.68h162.85q14.655,136.245,48.37,228.98-83.865,72.81-195.69,121.64l72.77,69.2q90.09-50.55,159.31-110.1,89.205,153.6,171.74,153.6,26.175,0,49.26-16.5,23.055-16.35,38.82-78.9c10.5-41.8,17.09-74.7,19.75-99Zm-116.26-556.02-69.23,67q88.755,54.15,145.55,132.69l74.56-65.24q-73.68-90.525-150.88-134.45h0Zm466.92-40.39q-47.925,252.945-187.27,440.21l73.67,63.46q39.5-59.46,65.67-106.5v430.88h92.75V9551.95l19.97-59.02q19.965-63.9,29.73-111.83Zm167.3,11.1-72.78,52.81q56.805,51.48,102.95,134.45l78.99-51.92q-38.16-77.64-109.16-135.34h0Zm451.74,31.95H2381.26v94.52h236.97v583.08c0,6.2-2,10.3-5.99,12.2s-15.46,2.9-34.39,2.9q-44.835,0-79.44-3.1l31.51,95.4h110.94q70.11,0,70.11-73.7V9399.3Zm-416.24,169.07h-92.75v615.93h92.75V9568.37ZM3661.6,9725.46H2874.37v94.52H3661.6v-94.52Zm852.55,358.14H4215.94q-62.565,0-133.57-25.8V9927.37h108.28v-84.76H4082.37v-90.97h119.81v-84.31H4047.76v-106.5H4176v-84.32H4047.76V9365.57h-90.98v110.94H3824.1v84.32h132.68v106.5H3790.82v84.31H3991.4v260.06q-33.285-23.985-51.92-44.39,4.875-31.95,4.88-51.92V9805.33h-90.97v96.3q0,141.555-72.78,238.27l77.22,50.6q33.72-45.3,59.9-128.7,126.48,107.85,299.98,107.9h367.44l39.94-93.7q-46.17,7.65-110.94,7.6h0Zm7.1-271.17q-4.44,118.485-78.11,118.49h-84.31q-39.06,0-39.05-39.94V9732.56h140.67v47.92h90.97V9404.62H4201.3v84.32h259.15v160.19H4227.92V9914.5q0,103.4,98.07,103.4h144.22q123.81,0,144.67-169.96Zm826.36-348.79h-89.19v210.79q-107.4-144.225-226.32-248.95,5.76-14.64,13.76-44.38l-94.52-18.19q-59.025,208.125-244.51,339.92l52.8,79.87,42.6-32.83v319.03q0,97.2,99.85,97.2H5110.2q67.455,0,99.41-34.8t40.38-124.1l-89.64-32.79v8.87q0,90.03-62.13,90.12H4919.39c-16.87,0-25.3-8.2-25.3-24.4V9751.64H5067.6q-11.985,133.575-20.41,151.54t-35.5,17.97q-14.64,0-67.01-12.86l16.42,97.21q47.925,6.15,66.56,6.2,71.9,0,95.19-39.96,23.3-39.93,39.27-265.36l31.95,47.04,64.35-63.46V9992.6h89.19V9463.64ZM4894.98,9658.9a774.96,774.96,0,0,0,98.96-146.89,1120.538,1120.538,0,0,1,133.57,146.89H4894.98Zm615.05-293.33h-90.97v690.53c0,12.4-3.04,21.5-9.1,27.2q-9.09,8.7-38.83,8.7-36.39,0-90.08-5.8l29.29,99.9h107.83q91.86,0,91.86-114.5V9365.57ZM6454,9642.92H6223.68v-88.75H6400.3v-84.31H6223.68V9365.57h-90.97v104.29h-61.24q7.995-23.97,16.42-57.25l-87.42-28.84q-32.4,118.485-100.73,191.26l79.88,53.69q31.5-38.16,51.03-74.55h102.06v88.75H5902.4v84.76H6454v-84.76Zm-51.48,129.58H5953.88V10049h90.97v-35.5h267.59v35.5h90.08V9772.5Zm-357.67,156.2v-71.45h267.59v71.45H6044.85Zm-275.58-556.03-78.98,58.14q69.66,65.22,111.38,155.75l81.65-63.45q-44.385-78.1-114.05-150.44h0Zm252.5,712.63q-106.95,0-161.08-79.4V9664.22H5660.11v92.75h107.83v249.83q-44.82,67.5-117.15,116.7l68.78,73.2a691.894,691.894,0,0,0,101.18-105.1q70.11,78.9,205.02,78.9h416.69l39.94-85.2H6021.77Zm1356.66-351.85H7043.4v-58.14h237.85v-80.76H7043.4v-53.69h301.75v-82.54H7174.3q39.945-34.17,63.46-63.02l-98.07-44.37q-41.715,56.8-99.84,107.39H6937.78a451.427,451.427,0,0,0-88.75-103.84l-89.2,51.92a206.205,206.205,0,0,1,56.36,51.92h-174.4v82.54h298.65v53.69H6707.03v80.76h233.41v58.14H6606.29v82.98h772.14v-82.98Zm-276.9,228.09h255.6V9879H7021.65l4.44-33.73-94.52-16.42q-1.785,28.86-7.55,50.15H6627.59v82.54h259.6q-87.42,128.19-308.41,149.06l55.47,82.1q267.135-48.75,360.78-231.16,99.84,180.54,367.43,232.06l54.58-92.7q-213.9-19.05-315.51-139.36h0Zm1218.65-572.45H7516.09v92.75h804.09v-92.75Zm-32.84,163.75H7951.42v631.46h90.52V9645.58h154.43v428.72c0,6.8-2,11.3-5.99,13.7s-16.05,3.6-36.17,3.6a385.736,385.736,0,0,1-44.82-2.7l29.74,95.4h49.25q54.585,0,76.77-23.3,22.185-23.25,22.19-80.1V9552.84Zm-387.84,0H7563.13v631.46h90.97V9645.58h154.43v428.72c0,6.8-2.08,11.3-6.22,13.7s-16.27,3.6-36.38,3.6a385.475,385.475,0,0,1-44.82-2.7l30.17,95.4h49.26q54.135,0,76.55-23.3,22.4-23.25,22.41-80.1V9552.84Zm229.86,151.76-73.66,32.84q40.38,92.31,55.47,201.47l77.21-31.96q-13.3-87.855-59.02-202.35h0Zm-388.29,0-73.22,32.84q40.38,92.31,55.03,201.47l77.66-31.96q-13.32-87.855-59.47-202.35h0Zm1243.51-200.13q13.74-61.245,24.4-123.37l-96.29-18.19q-19.53,179.715-98.96,322.61V9518.23H8675.72q35.055-69.675,51.48-138.9l-98.07-21.3q-17.76,92.31-48.82,160.2h-83.87v649.67h92.75v-64.4h131.79v64.4h92.75V9709.93l71.89,53.69q43.035-72.765,73.66-166.41h183.28q0,118.485-3.11,220.77t-9.1,170.63c-3.99,45.59-8.06,71.99-12.2,79.39a45.248,45.248,0,0,1-17.75,17.6c-7.7,4.3-19.24,6.4-34.62,6.4q-50.145,0-144.66-17.7l26.18,97.1q82.1,12,127.8,12,73.23,0,99.63-27.1,26.4-27,36.83-58.5t17.53-226.12q7.095-194.595,7.1-334.82v-32.39H8984.58ZM8588.3,9764.51V9610.97h131.8v153.54H8588.3Zm0,246.29V9857.25h131.8v153.55H8588.3Zm379.86-299.1-70.12,61.68q86.97,83.88,126.48,191.26l86.53-57.69q-59.025-120.24-142.89-195.25h0Zm526.38-329.71-69.22,62.57q76.77,63.9,115.38,139.78l78.98-67.89q-57.69-82.545-125.14-134.46h0Zm506.76,631.51q78.6-75.945,135.8-182.87v-94.52H9731.51q128.25-74.1,128.25-224.98v-24.86h126.47v129.14q0,80.76,72.37,80.76h127.3v-82.54h-84.3c-16.6,0-24.8-9.02-24.8-27.07V9391.75H9768.79v110.94q0,74.55-29.07,114.27t-109.83,68.56l54.58,74.55a335.7,335.7,0,0,0,35.5-17.3v87.86h34.17q32.835,103.83,109.17,182.87-86.535,55.35-226.32,94.5l49.26,81.6q142.44-45.15,243.62-117.1,90.525,67.8,227.23,117.1l53.2-81.6q-110.85-25.8-209-94.5h0Zm-66.99-56.4q-59.91-59.91-85.65-126.47h180.14q-42.6,77.205-94.49,126.47h0Zm-224.54-80.76-103.4,95.4V9629.16H9389.82v92.75h123.81v311.49q0,24.9-23.97,40.9l47.49,80.3,172.62-160.23V9876.34Zm1412.13-247.18h-208.1V9365.57h-95.4v263.59h-210.8v94.52h210.8v460.62h95.4V9723.68h208.1v-94.52Zm-692.3-252.05-72.7,63.01q92.25,70.56,133.5,144.22l79-67.89a683.979,683.979,0,0,0-139.8-139.34h0Zm241.9,573.78-126.5,80.81V9629.16h-229.9v94.52h134.5v339.92q0,24.9-23.5,40.8l49.7,83.5,195.7-127.8V9950.89Zm1309.6-20.86q-7.5,100.29-19.1,122.27c-7.7,14.6-23.2,22-46.6,22h-223.6c-17.5,0-26.2-8.2-26.2-24.5V9827.97h260v40.82h88.8v-468.6h-439.8v670.51q0,97.2,101.6,97.2h258.3q63,0,97.2-37.5t47.5-167.09Zm-142.9-194.81V9487.16h87.4v248.06h-87.4Zm-172.6,0V9487.16h87.4v248.06h-87.4Zm-146.4-278.68h-237.9v554.26h86.1v-72.78h63.9v52.8h87.9V9456.54Zm-151.8,387.85v-295.1h63.9v295.1h-63.9ZM12638,9957.1l31.5-329.71V9474.74H12535v152.65l32,329.71h71Zm27,168.2v-124.7h-124.2v124.7H12665ZM7199.69,11281.8H7075.44v-98.9h-92.75v98.9H6846.9v-115.3h-92.3v115.3H6619.69v-98.9h-92.3v98.9h-113.6v87.5h113.6v69.6h92.3v-69.6H6754.6v76.3h92.3v-76.3h135.79v69.6h92.75v-69.6h124.25v-87.5Zm-18.2,186.4H6423.55v154.4h90.97v-67.4h576v64.8h90.97v-151.8Zm-65.23,182.8H6848.23v-71.8h-90.97v71.8H6489.23v280.5h90.53v-192.6h177.5v245.4h90.97v-245.4h177.06v78.1c0,11.5-3.33,18.9-9.98,22s-19.16,4.6-37.5,4.6q-27.96,0-67.01-4l35.5,96.8h76.33q49.26,0,71.44-19.8c14.79-13.1,22.19-40,22.19-80.5V11651Zm1024.29-177H7785.54v-37.3H8047.8v-75.4H7785.98v-36.4h300.87v-75.5H7910.68q16.41-19.05,35.5-57.6l-97.18-36.4q-20.415,43.05-59.91,94H7678.15q-20.865-59.85-46.15-95.8l-95.41,36.4c17.15,24.5,28.84,44.4,35.06,59.4H7378.61v75.5h309.75v36.4H7423.43v75.4H7688.8v37.3H7334.24v75.4h99.4q-7.56,179.7-122.92,319.1l85.2,66.5q125.13-174.75,137.12-385.6h607.51V11474Zm-585.32,511.2h95.41v-28.9h295.54v28.9h95.41v-400.3H7555.23v400.3Zm95.41-296.4v-28.4h295.54v28.4H7650.64Zm0,95.4v-28.4h295.54v28.4H7650.64Zm0,96.7v-29.3h295.54v29.3H7650.64Zm1171.17-17.3q65.22-47.1,130.02-120.3v-82.5H8591.05l28.4-44.4h317.73v-84.7h-276.9q8.865-19.5,19.97-51.9h279.12v96.7h90.53v-181.1H8909.23q29.28-42.15,53.69-100.7l-81.65-37.3q101.61-15,150.43-27.5l-54.13-75.4q-204.585,48.75-532.07,48.8-79.44,0-145.11-4l30.62,90.5,73.66,0.9-36.39,19.5q27.075,27.6,57.25,85.2H8284.86v181.1h90.97v-96.7h207.23a493.952,493.952,0,0,1-21.74,51.9H8397.57v84.7h114.49q-93.18,133.65-266.25,214.4l68.34,69.2q130.455-74.55,209.89-156.7h19.08q44.82,75.9,95.41,120.3-85.2,29.7-274.68,40.8l39.05,89.2q225.42-27,322.61-73.6,101.61,49.2,318.18,73.6l36.38-89.2q-163.3-7.95-258.26-40.8h0Zm-33.29-468.2h-98.51l44.82-20.8q-27.075-57.3-60.8-94.5,86.97-6.3,190.82-20-26.625,76.8-76.33,135.3h0Zm-300.87,0,38.17-20.8q-23.085-51.45-55.47-84.8,48.81-.45,149.99-6.2l-43.05,26.6q29.295,29.4,60.36,85.2h-150Zm244.52,425.2q-46.6-30.3-86.54-77.3H8832.9q-52.815,48.9-100.73,77.3h0Zm1144.63-607.1h-86.09v128.2h-64.79v-176.1h-86.09v176.1h-64.79v-128.2h-86.09v215.7H9876.8v-215.7Zm331.9,521q0,101.1-4,119.6c-2.6,12.2-7.4,18.4-14.2,18.4-8.5,0-12.8-4.2-12.8-12.4v-665.7H9909.64v446.4q0,189.6-79.88,299.1l78.99,48.8q87.42-121.05,87.42-347.9v-352.7h94.53v604.3q0,76.35,72.8,76.4h38.1q52.35,0,72.8-47.5,20.4-47.55,20.4-154.9Zm-346.99,22.6-265.37,89.2v-142.9h265.37v-237.8H9478.75v86.9h291.99v63.9H9505.37v217q0,34.65-25.74,59l36.39,67.5,345.69-115.4v-87.4ZM11187.3,11541H10965c15.7-17.5,31.6-37.3,47.9-59.5l-43.5-26.2H11158v-77.2h-308.4v-64.3h-91v64.3h-308.4v77.2h193.5l-49.7,36.4q36.45,15.6,64.3,49.3h-237.8v156.2h87v-78.1h593.7v78.1h86.1V11541Zm-333.3,0h-149.5l48.4-32.4c-17.5-23.1-35.4-40.8-53.7-53.3h218.3q-20.85,41.85-63.5,85.7h0Zm236.1,149.1h-240.5v-57.3h-91v57.3h-236.5V11920h91.9v-151.8h144.6v216.1h91v-216.1h149.6v47c0,13.6-9.8,20.4-29.3,20.4q-25.8,0-71.5-4.8l31.1,89.2h76.3q84.3,0,84.3-91v-138.9Zm115-470.4h-190v-54.1h-95.4v54.1h-231.2v-54.1h-95.4v54.1h-189.9v78.6h189.9v58.1h95.4v-58.1h231.2v58.1h95.4v-58.1h190v-78.6Z"/>
</svg>
